<svg width="497" height="431" viewBox="0 0 497 431" fill="none" xmlns="http://www.w3.org/2000/svg">
<g opacity="0.6">
<path opacity="0.6" d="M368.898 0L436.862 142.425L438.476 141.642L370.879 0H368.898Z" fill="url(#paint0_linear_43_1438)"/>
</g>
<g opacity="0.6">
<path opacity="0.6" d="M369.461 0L436.862 142.425L438.476 141.642L371.417 0H369.461Z" fill="url(#paint1_linear_43_1438)"/>
</g>
<g opacity="0.6">
<path opacity="0.6" d="M369.461 0L436.862 142.425L438.476 141.642L371.417 0H369.461Z" fill="url(#paint2_linear_43_1438)"/>
</g>
<g opacity="0.6">
<path opacity="0.6" d="M392.058 0L436.813 142.303L438.525 141.764L393.917 0H392.058Z" fill="url(#paint3_linear_43_1438)"/>
</g>
<g opacity="0.6">
<path opacity="0.6" d="M351.705 0L171.218 167.39L172.417 168.712L354.347 0H351.705Z" fill="url(#paint4_linear_43_1438)"/>
</g>
<g opacity="0.6">
<path opacity="0.6" d="M171.732 167.17L437.571 141.152L437.742 142.914L171.903 168.932L171.732 167.17Z" fill="url(#paint5_linear_43_1438)"/>
</g>
<g opacity="0.6">
<path opacity="0.6" d="M128.933 0L170.949 168.271L172.686 167.831L130.768 0H128.933Z" fill="url(#paint6_linear_43_1438)"/>
</g>
<g opacity="0.6">
<path opacity="0.6" d="M239.158 0L170.998 167.733L172.637 168.394L241.09 0H239.158Z" fill="url(#paint7_linear_43_1438)"/>
</g>
<g opacity="0.6">
<path opacity="0.6" d="M238.644 0L170.998 167.733L172.637 168.394L240.576 0H238.644Z" fill="url(#paint8_linear_43_1438)"/>
</g>
<g opacity="0.6">
<path opacity="0.6" d="M238.644 0L170.998 167.733L172.637 168.394L240.576 0H238.644Z" fill="url(#paint9_linear_43_1438)"/>
</g>
<g opacity="0.6">
<path opacity="0.6" d="M61.2629 0L171.072 168.541L172.563 167.562L63.3906 0H61.2629Z" fill="url(#paint10_linear_43_1438)"/>
</g>
<g opacity="0.6">
<path opacity="0.6" d="M0 277.336L172.294 168.81L171.341 167.292L0 275.231V277.336Z" fill="url(#paint11_linear_43_1438)"/>
</g>
<g opacity="0.6">
<path opacity="0.6" d="M0 188.856L171.927 168.932L171.707 167.17L0 187.069V188.856Z" fill="url(#paint12_linear_43_1438)"/>
</g>
<g opacity="0.6">
<path opacity="0.6" d="M0 101.33L96.4065 0H93.9609L0 98.76V101.33Z" fill="url(#paint13_linear_43_1438)"/>
</g>
<g opacity="0.6">
<path opacity="0.6" d="M0 230.587V232.472L172.563 292.511L173.15 290.846L0 230.587Z" fill="url(#paint14_linear_43_1438)"/>
</g>
<g opacity="0.6">
<path opacity="0.6" d="M0 312.728L172.979 292.56L172.759 290.798L0 310.917V312.728Z" fill="url(#paint15_linear_43_1438)"/>
</g>
<g opacity="0.6">
<path opacity="0.6" d="M171.976 291.678L170.925 168.051H172.71L173.762 291.678H171.976Z" fill="url(#paint16_linear_43_1438)"/>
</g>
<g opacity="0.6">
<path opacity="0.6" d="M172.417 290.895L437.229 141.25L438.109 142.816L173.297 292.462L172.417 290.895Z" fill="url(#paint17_linear_43_1438)"/>
</g>
<g opacity="0.6">
<path opacity="0.6" d="M126.268 0L171.976 291.825L173.737 291.532L128.077 0H126.268Z" fill="url(#paint18_linear_43_1438)"/>
</g>
<path d="M437.694 145.803C435.615 145.827 433.903 144.138 433.878 142.058C433.854 139.977 435.541 138.264 437.62 138.24C439.699 138.215 441.411 139.904 441.435 141.984C441.46 144.089 439.772 145.778 437.694 145.803Z" fill="url(#paint19_linear_43_1438)"/>
<path d="M437.694 145.803C435.615 145.827 433.903 144.138 433.878 142.058C433.854 139.977 435.541 138.264 437.62 138.24C439.699 138.215 441.411 139.904 441.435 141.984C441.46 144.089 439.772 145.778 437.694 145.803Z" fill="url(#paint20_linear_43_1438)"/>
<path d="M437.694 145.803C435.615 145.827 433.903 144.138 433.878 142.058C433.854 139.977 435.541 138.264 437.62 138.24C439.699 138.215 441.411 139.904 441.435 141.984C441.46 144.089 439.772 145.778 437.694 145.803Z" fill="url(#paint21_linear_43_1438)"/>
<path d="M437.694 145.803C435.615 145.827 433.903 144.138 433.878 142.058C433.854 139.977 435.541 138.264 437.62 138.24C439.699 138.215 441.411 139.904 441.435 141.984C441.46 144.089 439.772 145.778 437.694 145.803Z" fill="url(#paint22_linear_43_1438)"/>
<path d="M171.854 171.82C169.775 171.845 168.063 170.156 168.039 168.076C168.015 165.995 169.702 164.282 171.781 164.257C173.86 164.233 175.571 165.922 175.571 168.002C175.596 170.107 173.933 171.82 171.854 171.82Z" fill="url(#paint23_linear_43_1438)"/>
<path d="M437.694 145.803C435.615 145.827 433.903 144.138 433.878 142.058C433.854 139.977 435.541 138.264 437.62 138.24C439.699 138.215 441.411 139.904 441.435 141.984C441.46 144.089 439.772 145.778 437.694 145.803Z" fill="url(#paint24_linear_43_1438)"/>
<path d="M171.854 171.82C169.775 171.845 168.063 170.156 168.039 168.076C168.015 165.995 169.702 164.282 171.781 164.257C173.86 164.233 175.571 165.922 175.571 168.002C175.596 170.107 173.933 171.82 171.854 171.82Z" fill="url(#paint25_linear_43_1438)"/>
<path d="M171.854 171.82C169.775 171.845 168.063 170.156 168.039 168.076C168.015 165.995 169.702 164.282 171.781 164.257C173.86 164.233 175.571 165.922 175.571 168.002C175.596 170.107 173.933 171.82 171.854 171.82Z" fill="url(#paint26_linear_43_1438)"/>
<path d="M171.854 171.82C169.775 171.845 168.063 170.156 168.039 168.076C168.015 165.995 169.702 164.282 171.781 164.257C173.86 164.233 175.571 165.922 175.571 168.002C175.596 170.107 173.933 171.82 171.854 171.82Z" fill="url(#paint27_linear_43_1438)"/>
<path d="M171.854 171.82C169.775 171.845 168.063 170.156 168.039 168.076C168.015 165.995 169.702 164.282 171.781 164.257C173.86 164.233 175.571 165.922 175.571 168.002C175.596 170.107 173.933 171.82 171.854 171.82Z" fill="url(#paint28_linear_43_1438)"/>
<path d="M171.854 171.82C169.775 171.845 168.063 170.156 168.039 168.076C168.015 165.995 169.702 164.282 171.781 164.257C173.86 164.233 175.571 165.922 175.571 168.002C175.596 170.107 173.933 171.82 171.854 171.82Z" fill="url(#paint29_linear_43_1438)"/>
<path d="M171.854 171.82C169.775 171.845 168.063 170.156 168.039 168.076C168.015 165.995 169.702 164.282 171.781 164.257C173.86 164.233 175.571 165.922 175.571 168.002C175.596 170.107 173.933 171.82 171.854 171.82Z" fill="url(#paint30_linear_43_1438)"/>
<path d="M171.854 171.82C169.775 171.845 168.063 170.156 168.039 168.076C168.015 165.995 169.702 164.282 171.781 164.257C173.86 164.233 175.571 165.922 175.571 168.002C175.596 170.107 173.933 171.82 171.854 171.82Z" fill="url(#paint31_linear_43_1438)"/>
<path d="M171.854 171.82C169.775 171.845 168.063 170.156 168.039 168.076C168.015 165.995 169.702 164.282 171.781 164.257C173.86 164.233 175.571 165.922 175.571 168.002C175.596 170.107 173.933 171.82 171.854 171.82Z" fill="url(#paint32_linear_43_1438)"/>
<path d="M172.906 295.448C170.827 295.472 169.115 293.783 169.09 291.703C169.066 289.623 170.753 287.909 172.832 287.885C174.911 287.86 176.623 289.549 176.623 291.63C176.647 293.735 174.984 295.448 172.906 295.448Z" fill="url(#paint33_linear_43_1438)"/>
<path d="M172.906 295.448C170.827 295.472 169.115 293.783 169.09 291.703C169.066 289.623 170.753 287.909 172.832 287.885C174.911 287.86 176.623 289.549 176.623 291.63C176.647 293.735 174.984 295.448 172.906 295.448Z" fill="url(#paint34_linear_43_1438)"/>
<path d="M171.854 171.82C169.775 171.845 168.063 170.156 168.039 168.076C168.015 165.995 169.702 164.282 171.781 164.257C173.86 164.233 175.571 165.922 175.571 168.002C175.596 170.107 173.933 171.82 171.854 171.82Z" fill="url(#paint35_linear_43_1438)"/>
<path d="M172.906 295.448C170.827 295.472 169.115 293.783 169.09 291.703C169.066 289.623 170.753 287.909 172.832 287.885C174.911 287.86 176.623 289.549 176.623 291.63C176.647 293.735 174.984 295.448 172.906 295.448Z" fill="url(#paint36_linear_43_1438)"/>
<path d="M437.694 145.803C435.615 145.827 433.903 144.138 433.878 142.058C433.854 139.977 435.541 138.264 437.62 138.24C439.699 138.215 441.411 139.904 441.435 141.984C441.46 144.089 439.772 145.778 437.694 145.803Z" fill="url(#paint37_linear_43_1438)"/>
<path d="M172.906 295.448C170.827 295.472 169.115 293.783 169.09 291.703C169.066 289.623 170.753 287.909 172.832 287.885C174.911 287.86 176.623 289.549 176.623 291.63C176.647 293.735 174.984 295.448 172.906 295.448Z" fill="url(#paint38_linear_43_1438)"/>
<path d="M172.906 295.448C170.827 295.472 169.115 293.783 169.09 291.703C169.066 289.623 170.753 287.909 172.832 287.885C174.911 287.86 176.623 289.549 176.623 291.63C176.647 293.735 174.984 295.448 172.906 295.448Z" fill="url(#paint39_linear_43_1438)"/>
<g opacity="0.6">
<path opacity="0.6" d="M369.265 254.72L81.1703 172.286L81.7083 170.401L369.803 252.836L369.265 254.72Z" fill="url(#paint40_linear_43_1438)"/>
</g>
<g opacity="0.6">
<path opacity="0.6" d="M312.698 0L368.58 253.986L370.488 253.57L314.703 0H312.698Z" fill="url(#paint41_linear_43_1438)"/>
</g>
<g opacity="0.6">
<path opacity="0.6" d="M222.332 0L80.6812 170.719L82.1974 171.967L224.875 0H222.332Z" fill="url(#paint42_linear_43_1438)"/>
</g>
<g opacity="0.6">
<path opacity="0.6" d="M0 165.481V167.439L81.3904 172.31L81.4882 170.352L0 165.481Z" fill="url(#paint43_linear_43_1438)"/>
</g>
<g opacity="0.6">
<path opacity="0.6" d="M64.0999 0L80.4611 171.429L82.4176 171.233L66.0564 0H64.0999Z" fill="url(#paint44_linear_43_1438)"/>
</g>
<g opacity="0.6">
<path opacity="0.6" d="M44.3391 410.24C61.4585 401.306 78.5779 393.963 95.6972 386.62C166.62 349.907 235.098 318.088 306.241 284.238" fill="url(#paint45_linear_43_1438)"/>
<path opacity="0.6" d="M369.974 254.671L44.7549 411.121L43.9233 409.358L369.118 252.909L369.974 254.671Z" fill="url(#paint46_linear_43_1438)"/>
</g>
<g opacity="0.6">
<path opacity="0.6" d="M44.3391 410.24C51.676 369.487 56.5672 325.431 63.8063 284.874L44.3391 410.24Z" fill="url(#paint47_linear_43_1438)"/>
<path opacity="0.6" d="M45.3174 410.386L43.3854 410.093L80.4855 171.184L82.4176 171.478L45.3174 410.386Z" fill="url(#paint48_linear_43_1438)"/>
</g>
<g opacity="0.6">
<path opacity="0.6" d="M425.759 0L368.58 253.57L370.488 254.01L427.764 0H425.759Z" fill="url(#paint49_linear_43_1438)"/>
</g>
<g opacity="0.6">
<path opacity="0.6" d="M73.222 0L80.4611 171.38L82.4176 171.282L75.1785 0H73.222Z" fill="url(#paint50_linear_43_1438)"/>
</g>
<g opacity="0.6">
<path opacity="0.6" d="M0 134.862V136.991L81.048 172.236L81.8306 170.425L0 134.862Z" fill="url(#paint51_linear_43_1438)"/>
</g>
<g opacity="0.6">
<path opacity="0.6" d="M0 384.051V386.302L43.8501 411.096L44.8283 409.383L0 384.051Z" fill="url(#paint52_linear_43_1438)"/>
</g>
<g opacity="0.6">
<path opacity="0.6" d="M0 274.203L82.1975 171.943L80.6812 170.719L0 271.07V274.203Z" fill="url(#paint53_linear_43_1438)"/>
</g>
<g opacity="0.6">
<path opacity="0.6" d="M7.80151 0L80.5344 171.722L82.3442 170.939L9.90475 0H7.80151Z" fill="url(#paint54_linear_43_1438)"/>
</g>
<path d="M84.8633 169.03C86.135 170.939 85.6459 173.509 83.7383 174.782C81.8551 176.055 79.2628 175.565 77.991 173.656C76.7193 171.747 77.2084 169.177 79.116 167.904C81.0236 166.631 83.5915 167.121 84.8633 169.03Z" fill="url(#paint55_linear_43_1438)"/>
<path d="M372.982 251.465C374.254 253.374 373.765 255.944 371.857 257.217C369.974 258.489 367.406 258 366.11 256.091C364.838 254.206 365.328 251.636 367.235 250.339C369.118 249.066 371.711 249.58 372.982 251.465Z" fill="url(#paint56_linear_43_1438)"/>
<path d="M372.982 251.465C374.254 253.374 373.765 255.944 371.857 257.217C369.974 258.489 367.406 258 366.11 256.091C364.838 254.206 365.328 251.636 367.235 250.339C369.118 249.066 371.711 249.58 372.982 251.465Z" fill="url(#paint57_linear_43_1438)"/>
<path d="M84.8633 169.03C86.135 170.939 85.6459 173.509 83.7383 174.782C81.8551 176.055 79.2628 175.565 77.991 173.656C76.7193 171.747 77.2084 169.177 79.116 167.904C81.0236 166.631 83.5915 167.121 84.8633 169.03Z" fill="url(#paint58_linear_43_1438)"/>
<path d="M84.8633 169.03C86.135 170.939 85.6459 173.509 83.7383 174.782C81.8551 176.055 79.2628 175.565 77.991 173.656C76.7193 171.747 77.2084 169.177 79.116 167.904C81.0236 166.631 83.5915 167.121 84.8633 169.03Z" fill="url(#paint59_linear_43_1438)"/>
<path d="M84.8633 169.03C86.135 170.939 85.6459 173.509 83.7383 174.782C81.8551 176.055 79.2628 175.565 77.991 173.656C76.7193 171.747 77.2084 169.177 79.116 167.904C81.0236 166.631 83.5915 167.121 84.8633 169.03Z" fill="url(#paint60_linear_43_1438)"/>
<path d="M372.982 251.465C374.254 253.374 373.765 255.944 371.857 257.217C369.974 258.489 367.406 258 366.11 256.091C364.838 254.206 365.328 251.636 367.235 250.339C369.118 249.066 371.711 249.58 372.982 251.465Z" fill="url(#paint61_linear_43_1438)"/>
<path d="M47.763 407.939C49.0348 409.848 48.5456 412.418 46.638 413.691C44.7549 414.963 42.1625 414.474 40.8908 412.565C39.6191 410.656 40.1082 408.086 42.0158 406.813C43.9234 405.54 46.4913 406.03 47.763 407.939Z" fill="url(#paint62_linear_43_1438)"/>
<path d="M84.8633 169.03C86.135 170.939 85.6459 173.509 83.7383 174.782C81.8551 176.055 79.2628 175.565 77.991 173.656C76.7193 171.747 77.2084 169.177 79.116 167.904C81.0236 166.631 83.5915 167.121 84.8633 169.03Z" fill="url(#paint63_linear_43_1438)"/>
<path d="M47.763 407.939C49.0348 409.848 48.5456 412.418 46.638 413.691C44.7549 414.963 42.1625 414.474 40.8908 412.565C39.6191 410.656 40.1082 408.086 42.0158 406.813C43.9234 405.54 46.4913 406.03 47.763 407.939Z" fill="url(#paint64_linear_43_1438)"/>
<path d="M372.982 251.465C374.254 253.374 373.765 255.944 371.857 257.217C369.974 258.489 367.406 258 366.11 256.091C364.838 254.206 365.328 251.636 367.235 250.339C369.118 249.066 371.711 249.58 372.982 251.465Z" fill="url(#paint65_linear_43_1438)"/>
<path d="M84.8633 169.03C86.135 170.939 85.6459 173.509 83.7383 174.782C81.8551 176.055 79.2628 175.565 77.991 173.656C76.7193 171.747 77.2084 169.177 79.116 167.904C81.0236 166.631 83.5915 167.121 84.8633 169.03Z" fill="url(#paint66_linear_43_1438)"/>
<path d="M84.8633 169.03C86.135 170.939 85.6459 173.509 83.7383 174.782C81.8551 176.055 79.2628 175.565 77.991 173.656C76.7193 171.747 77.2084 169.177 79.116 167.904C81.0236 166.631 83.5915 167.121 84.8633 169.03Z" fill="url(#paint67_linear_43_1438)"/>
<path d="M47.763 407.939C49.0348 409.848 48.5456 412.418 46.638 413.691C44.7549 414.963 42.1625 414.474 40.8908 412.565C39.6191 410.656 40.1082 408.086 42.0158 406.813C43.9234 405.54 46.4913 406.03 47.763 407.939Z" fill="url(#paint68_linear_43_1438)"/>
<path d="M84.8633 169.03C86.135 170.939 85.6459 173.509 83.7383 174.782C81.8551 176.055 79.2628 175.565 77.991 173.656C76.7193 171.747 77.2084 169.177 79.116 167.904C81.0236 166.631 83.5915 167.121 84.8633 169.03Z" fill="url(#paint69_linear_43_1438)"/>
<path d="M84.8633 169.03C86.135 170.939 85.6459 173.509 83.7383 174.782C81.8551 176.055 79.2628 175.565 77.991 173.656C76.7193 171.747 77.2084 169.177 79.116 167.904C81.0236 166.631 83.5915 167.121 84.8633 169.03Z" fill="url(#paint70_linear_43_1438)"/>
<g opacity="0.6">
<path opacity="0.6" d="M128.053 0L108.733 23.4234L110.249 24.6961L130.621 0H128.053Z" fill="url(#paint71_linear_43_1438)"/>
</g>
<g opacity="0.6">
<path opacity="0.6" d="M69.5046 0L108.953 24.9164L110.029 23.2276L73.2464 0H69.5046Z" fill="url(#paint72_linear_43_1438)"/>
</g>
<g opacity="0.6">
<path opacity="0.6" d="M223.212 390.708C215.508 354.802 198.389 320.536 190.367 284.825L223.212 390.708Z" fill="url(#paint73_linear_43_1438)"/>
<path opacity="0.6" d="M224.166 390.414L222.258 391.026L108.537 24.3534L110.444 23.766L224.166 390.414Z" fill="url(#paint74_linear_43_1438)"/>
</g>
<g opacity="0.6">
<path opacity="0.6" d="M245.223 284.262C235.073 318.088 232.628 357.249 223.212 390.708L245.223 284.262Z" fill="url(#paint75_linear_43_1438)"/>
<path opacity="0.6" d="M224.19 390.928L222.234 390.512L300.543 11.8708L302.499 12.2869L224.19 390.928Z" fill="url(#paint76_linear_43_1438)"/>
</g>
<g opacity="0.6">
<path opacity="0.6" d="M299.027 0L300.543 12.2134L302.499 11.9687L301.008 0H299.027Z" fill="url(#paint77_linear_43_1438)"/>
</g>
<g opacity="0.6">
<path opacity="0.6" d="M301.57 13.0702L109.564 25.0633L109.417 23.0808L301.448 11.0876L301.57 13.0702Z" fill="url(#paint78_linear_43_1438)"/>
</g>
<g opacity="0.6">
<path opacity="0.6" d="M279.29 0L301.008 12.9477L302.035 11.2344L283.179 0H279.29Z" fill="url(#paint79_linear_43_1438)"/>
</g>
<g opacity="0.6">
<path opacity="0.6" d="M98.1919 0L108.586 24.4514L110.42 23.6681L100.344 0H98.1919Z" fill="url(#paint80_linear_43_1438)"/>
</g>
<g opacity="0.6">
<path opacity="0.6" d="M0 111.806L110.102 24.8431L108.879 23.2766L0 109.26V111.806Z" fill="url(#paint81_linear_43_1438)"/>
</g>
<g opacity="0.6">
<path opacity="0.6" d="M312.38 0L300.812 11.3813L302.206 12.8009L315.241 0H312.38Z" fill="url(#paint82_linear_43_1438)"/>
</g>
<g opacity="0.6">
<path opacity="0.6" d="M494.995 0L467.383 178.82L469.364 179.114L497 0H494.995Z" fill="url(#paint83_linear_43_1438)"/>
</g>
<g opacity="0.6">
<path opacity="0.6" d="M467.677 179.677L300.812 12.7765L302.23 11.3813L469.071 178.258L467.677 179.677Z" fill="url(#paint84_linear_43_1438)"/>
</g>
<g opacity="0.6">
<path opacity="0.6" d="M343.855 286.514C303.576 322.983 262 354.802 223.212 390.708L343.855 286.514Z" fill="url(#paint85_linear_43_1438)"/>
<path opacity="0.6" d="M223.873 391.466L222.576 389.973L467.726 178.208L469.022 179.726L223.873 391.466Z" fill="url(#paint86_linear_43_1438)"/>
</g>
<g opacity="0.6">
<path opacity="0.6" d="M467.995 179.873L109.099 24.9654L109.882 23.1542L468.777 178.062L467.995 179.873Z" fill="url(#paint87_linear_43_1438)"/>
</g>
<g opacity="0.6">
<path opacity="0.6" d="M0 430.799L223.383 391.712L223.041 389.729L0 428.768V430.799Z" fill="url(#paint88_linear_43_1438)"/>
</g>
<g opacity="0.6">
<path opacity="0.6" d="M299.296 0L300.518 12.189L302.499 11.9687L301.301 0H299.296Z" fill="url(#paint89_linear_43_1438)"/>
</g>
<g opacity="0.6">
<path opacity="0.6" d="M119.078 0L108.586 23.6681L110.396 24.4758L121.254 0H119.078Z" fill="url(#paint90_linear_43_1438)"/>
</g>
<g opacity="0.6">
<path opacity="0.6" d="M0 349.956L38.5675 285.413L36.8556 284.385L0 346.088V349.956Z" fill="url(#paint91_linear_43_1438)"/>
</g>
<g opacity="0.6">
<path opacity="0.6" d="M0 274.594V276.65L37.467 285.878L37.9561 283.944L0 274.594Z" fill="url(#paint92_linear_43_1438)"/>
</g>
<g opacity="0.6">
<path opacity="0.6" d="M38.4208 285.609L37.0023 284.214L300.812 11.3813L302.23 12.7765L38.4208 285.609Z" fill="url(#paint93_linear_43_1438)"/>
</g>
<g opacity="0.6">
<path opacity="0.6" d="M222.723 391.589L37.2224 285.78L38.2007 284.042L223.701 389.851L222.723 391.589Z" fill="url(#paint94_linear_43_1438)"/>
</g>
<g opacity="0.6">
<path opacity="0.6" d="M38.6653 285.168L36.7577 284.654L108.537 23.7905L110.444 24.329L38.6653 285.168Z" fill="url(#paint95_linear_43_1438)"/>
</g>
<path d="M113.208 22.0771C114.308 24.1331 113.526 26.6786 111.472 27.78C109.417 28.8814 106.849 28.0982 105.773 26.0422C104.673 23.9862 105.455 21.4407 107.51 20.3393C109.564 19.2379 112.107 20.0211 113.208 22.0771Z" fill="url(#paint96_linear_43_1438)"/>
<path d="M113.208 22.0771C114.308 24.1331 113.526 26.6786 111.472 27.78C109.417 28.8814 106.849 28.0982 105.773 26.0422C104.673 23.9862 105.455 21.4407 107.51 20.3393C109.564 19.2379 112.107 20.0211 113.208 22.0771Z" fill="url(#paint97_linear_43_1438)"/>
<path d="M113.208 22.0771C114.308 24.1331 113.526 26.6786 111.472 27.78C109.417 28.8814 106.849 28.0982 105.773 26.0422C104.673 23.9862 105.455 21.4407 107.51 20.3393C109.564 19.2379 112.107 20.0211 113.208 22.0771Z" fill="url(#paint98_linear_43_1438)"/>
<path d="M226.93 388.725C228.03 390.781 227.248 393.327 225.193 394.428C223.139 395.529 220.595 394.746 219.495 392.69C218.394 390.634 219.177 388.089 221.231 386.987C223.31 385.91 225.854 386.669 226.93 388.725Z" fill="url(#paint99_linear_43_1438)"/>
<path d="M226.93 388.725C228.03 390.781 227.248 393.327 225.193 394.428C223.139 395.529 220.595 394.746 219.495 392.69C218.394 390.634 219.177 388.089 221.231 386.987C223.31 385.91 225.854 386.669 226.93 388.725Z" fill="url(#paint100_linear_43_1438)"/>
<path d="M305.239 10.1087C306.339 12.1647 305.532 14.7346 303.502 15.8116C301.448 16.913 298.88 16.1298 297.804 14.0738C296.703 12.0178 297.51 9.44786 299.54 8.37092C301.57 7.29398 304.138 8.02826 305.239 10.1087Z" fill="url(#paint101_linear_43_1438)"/>
<path d="M305.239 10.1087C306.339 12.1647 305.532 14.7346 303.502 15.8116C301.448 16.913 298.88 16.1298 297.804 14.0738C296.703 12.0178 297.51 9.44786 299.54 8.37092C301.57 7.29398 304.138 8.02826 305.239 10.1087Z" fill="url(#paint102_linear_43_1438)"/>
<path d="M113.208 22.0771C114.308 24.1331 113.526 26.6786 111.472 27.78C109.417 28.8814 106.849 28.0982 105.773 26.0422C104.673 23.9862 105.455 21.4407 107.51 20.3393C109.564 19.2379 112.107 20.0211 113.208 22.0771Z" fill="url(#paint103_linear_43_1438)"/>
<path d="M305.239 10.1087C306.339 12.1647 305.532 14.7346 303.502 15.8116C301.448 16.913 298.88 16.1298 297.804 14.0738C296.703 12.0178 297.51 9.44786 299.54 8.37092C301.57 7.29398 304.138 8.02826 305.239 10.1087Z" fill="url(#paint104_linear_43_1438)"/>
<path d="M305.239 10.1087C306.339 12.1647 305.532 14.7346 303.502 15.8116C301.448 16.913 298.88 16.1298 297.804 14.0738C296.703 12.0178 297.51 9.44786 299.54 8.37092C301.57 7.29398 304.138 8.02826 305.239 10.1087Z" fill="url(#paint105_linear_43_1438)"/>
<path d="M113.208 22.0771C114.308 24.1331 113.526 26.6786 111.472 27.78C109.417 28.8814 106.849 28.0982 105.773 26.0422C104.673 23.9862 105.455 21.4407 107.51 20.3393C109.564 19.2379 112.107 20.0211 113.208 22.0771Z" fill="url(#paint106_linear_43_1438)"/>
<path d="M113.208 22.0771C114.308 24.1331 113.526 26.6786 111.472 27.78C109.417 28.8814 106.849 28.0982 105.773 26.0422C104.673 23.9862 105.455 21.4407 107.51 20.3393C109.564 19.2379 112.107 20.0211 113.208 22.0771Z" fill="url(#paint107_linear_43_1438)"/>
<path d="M305.239 10.1087C306.339 12.1647 305.532 14.7346 303.502 15.8116C301.448 16.913 298.88 16.1298 297.804 14.0738C296.703 12.0178 297.51 9.44786 299.54 8.37092C301.57 7.29398 304.138 8.02826 305.239 10.1087Z" fill="url(#paint108_linear_43_1438)"/>
<path d="M472.104 176.985C473.204 179.041 472.397 181.611 470.367 182.688C468.313 183.789 465.769 183.006 464.669 180.95C463.568 178.894 464.351 176.348 466.405 175.247C468.46 174.146 471.003 174.929 472.104 176.985Z" fill="url(#paint109_linear_43_1438)"/>
<path d="M305.239 10.1087C306.339 12.1647 305.532 14.7346 303.502 15.8116C301.448 16.913 298.88 16.1298 297.804 14.0738C296.703 12.0178 297.51 9.44786 299.54 8.37092C301.57 7.29398 304.138 8.02826 305.239 10.1087Z" fill="url(#paint110_linear_43_1438)"/>
<path d="M472.104 176.985C473.204 179.041 472.397 181.611 470.367 182.688C468.313 183.789 465.769 183.006 464.669 180.95C463.568 178.894 464.351 176.348 466.405 175.247C468.46 174.146 471.003 174.929 472.104 176.985Z" fill="url(#paint111_linear_43_1438)"/>
<path d="M226.93 388.725C228.03 390.781 227.248 393.327 225.193 394.428C223.139 395.529 220.595 394.746 219.495 392.69C218.394 390.634 219.177 388.089 221.231 386.987C223.31 385.91 225.854 386.669 226.93 388.725Z" fill="url(#paint112_linear_43_1438)"/>
<path d="M472.104 176.985C473.204 179.041 472.397 181.611 470.367 182.688C468.313 183.789 465.769 183.006 464.669 180.95C463.568 178.894 464.351 176.348 466.405 175.247C468.46 174.146 471.003 174.929 472.104 176.985Z" fill="url(#paint113_linear_43_1438)"/>
<path d="M113.208 22.0771C114.308 24.1331 113.526 26.6786 111.472 27.78C109.417 28.8814 106.849 28.0982 105.773 26.0422C104.673 23.9862 105.455 21.4407 107.51 20.3393C109.564 19.2379 112.107 20.0211 113.208 22.0771Z" fill="url(#paint114_linear_43_1438)"/>
<path d="M472.104 176.985C473.204 179.041 472.397 181.611 470.367 182.688C468.313 183.789 465.769 183.006 464.669 180.95C463.568 178.894 464.351 176.348 466.405 175.247C468.46 174.146 471.003 174.929 472.104 176.985Z" fill="url(#paint115_linear_43_1438)"/>
<path d="M226.93 388.725C228.03 390.781 227.248 393.327 225.193 394.428C223.139 395.529 220.595 394.746 219.495 392.69C218.394 390.634 219.177 388.089 221.231 386.987C223.31 385.91 225.854 386.669 226.93 388.725Z" fill="url(#paint116_linear_43_1438)"/>
<path d="M305.239 10.1087C306.339 12.1647 305.532 14.7346 303.502 15.8116C301.448 16.913 298.88 16.1298 297.804 14.0738C296.703 12.0178 297.51 9.44786 299.54 8.37092C301.57 7.29398 304.138 8.02826 305.239 10.1087Z" fill="url(#paint117_linear_43_1438)"/>
<path d="M113.208 22.0771C114.308 24.1331 113.526 26.6786 111.472 27.78C109.417 28.8814 106.849 28.0982 105.773 26.0422C104.673 23.9862 105.455 21.4407 107.51 20.3393C109.564 19.2379 112.107 20.0211 113.208 22.0771Z" fill="url(#paint118_linear_43_1438)"/>
<path d="M41.4289 282.916C42.5294 284.972 41.7224 287.542 39.6925 288.619C37.6382 289.72 35.0703 288.937 33.9942 286.881C32.8936 284.825 33.7007 282.255 35.7306 281.178C37.7604 280.101 40.3528 280.86 41.4289 282.916Z" fill="url(#paint119_linear_43_1438)"/>
<path d="M41.4289 282.916C42.5294 284.972 41.7224 287.542 39.6925 288.619C37.6382 289.72 35.0703 288.937 33.9942 286.881C32.8936 284.825 33.7007 282.255 35.7306 281.178C37.7604 280.101 40.3528 280.86 41.4289 282.916Z" fill="url(#paint120_linear_43_1438)"/>
<path d="M305.239 10.1087C306.339 12.1647 305.532 14.7346 303.502 15.8116C301.448 16.913 298.88 16.1298 297.804 14.0738C296.703 12.0178 297.51 9.44786 299.54 8.37092C301.57 7.29398 304.138 8.02826 305.239 10.1087Z" fill="url(#paint121_linear_43_1438)"/>
<path d="M41.4289 282.916C42.5294 284.972 41.7224 287.542 39.6925 288.619C37.6382 289.72 35.0703 288.937 33.9942 286.881C32.8936 284.825 33.7007 282.255 35.7306 281.178C37.7604 280.101 40.3528 280.86 41.4289 282.916Z" fill="url(#paint122_linear_43_1438)"/>
<path d="M226.93 388.725C228.03 390.781 227.248 393.327 225.193 394.428C223.139 395.529 220.595 394.746 219.495 392.69C218.394 390.634 219.177 388.089 221.231 386.987C223.31 385.91 225.854 386.669 226.93 388.725Z" fill="url(#paint123_linear_43_1438)"/>
<path d="M41.4289 282.916C42.5294 284.972 41.7224 287.542 39.6925 288.619C37.6382 289.72 35.0703 288.937 33.9942 286.881C32.8936 284.825 33.7007 282.255 35.7306 281.178C37.7604 280.101 40.3528 280.86 41.4289 282.916Z" fill="url(#paint124_linear_43_1438)"/>
<path d="M113.208 22.0771C114.308 24.1331 113.526 26.6786 111.472 27.78C109.417 28.8814 106.849 28.0982 105.773 26.0422C104.673 23.9862 105.455 21.4407 107.51 20.3393C109.564 19.2379 112.107 20.0211 113.208 22.0771Z" fill="url(#paint125_linear_43_1438)"/>
<path d="M41.4289 282.916C42.5294 284.972 41.7224 287.542 39.6925 288.619C37.6382 289.72 35.0703 288.937 33.9942 286.881C32.8936 284.825 33.7007 282.255 35.7306 281.178C37.7604 280.101 40.3528 280.86 41.4289 282.916Z" fill="url(#paint126_linear_43_1438)"/>
<defs>
<linearGradient id="paint0_linear_43_1438" x1="370.353" y1="1.14095e-07" x2="480.976" y2="57.4228" gradientUnits="userSpaceOnUse">
<stop stop-color="#1470D6"/>
<stop offset="1" stop-color="#CF1FBD"/>
</linearGradient>
<linearGradient id="paint1_linear_43_1438" x1="370.904" y1="1.14095e-07" x2="481.009" y2="56.6919" gradientUnits="userSpaceOnUse">
<stop stop-color="#1470D6"/>
<stop offset="1" stop-color="#CF1FBD"/>
</linearGradient>
<linearGradient id="paint2_linear_43_1438" x1="370.904" y1="1.14095e-07" x2="481.009" y2="56.6919" gradientUnits="userSpaceOnUse">
<stop stop-color="#1470D6"/>
<stop offset="1" stop-color="#CF1FBD"/>
</linearGradient>
<linearGradient id="paint3_linear_43_1438" x1="393.03" y1="1.13997e-07" x2="476.738" y2="29.0435" gradientUnits="userSpaceOnUse">
<stop stop-color="#1470D6"/>
<stop offset="1" stop-color="#CF1FBD"/>
</linearGradient>
<linearGradient id="paint4_linear_43_1438" x1="175.047" y1="1.35153e-07" x2="333.663" y2="182.941" gradientUnits="userSpaceOnUse">
<stop stop-color="#1470D6"/>
<stop offset="1" stop-color="#CF1FBD"/>
</linearGradient>
<linearGradient id="paint5_linear_43_1438" x1="177.293" y1="141.152" x2="182.43" y2="193.415" gradientUnits="userSpaceOnUse">
<stop stop-color="#1470D6"/>
<stop offset="1" stop-color="#CF1FBD"/>
</linearGradient>
<linearGradient id="paint6_linear_43_1438" x1="129.848" y1="1.348e-07" x2="211.892" y2="22.6666" gradientUnits="userSpaceOnUse">
<stop stop-color="#1470D6"/>
<stop offset="1" stop-color="#CF1FBD"/>
</linearGradient>
<linearGradient id="paint7_linear_43_1438" x1="172.463" y1="1.34898e-07" x2="290.786" y2="52.331" gradientUnits="userSpaceOnUse">
<stop stop-color="#1470D6"/>
<stop offset="1" stop-color="#CF1FBD"/>
</linearGradient>
<linearGradient id="paint8_linear_43_1438" x1="172.453" y1="1.34898e-07" x2="290.19" y2="51.6905" gradientUnits="userSpaceOnUse">
<stop stop-color="#1470D6"/>
<stop offset="1" stop-color="#CF1FBD"/>
</linearGradient>
<linearGradient id="paint9_linear_43_1438" x1="172.453" y1="1.34898e-07" x2="290.19" y2="51.6905" gradientUnits="userSpaceOnUse">
<stop stop-color="#1470D6"/>
<stop offset="1" stop-color="#CF1FBD"/>
</linearGradient>
<linearGradient id="paint10_linear_43_1438" x1="63.5898" y1="1.35016e-07" x2="214.116" y2="105.622" gradientUnits="userSpaceOnUse">
<stop stop-color="#1470D6"/>
<stop offset="1" stop-color="#CF1FBD"/>
</linearGradient>
<linearGradient id="paint11_linear_43_1438" x1="3.60197" y1="167.292" x2="95.8983" y2="320.84" gradientUnits="userSpaceOnUse">
<stop stop-color="#1470D6"/>
<stop offset="1" stop-color="#CF1FBD"/>
</linearGradient>
<linearGradient id="paint12_linear_43_1438" x1="3.5943" y1="167.17" x2="8.41606" y2="207.789" gradientUnits="userSpaceOnUse">
<stop stop-color="#1470D6"/>
<stop offset="1" stop-color="#CF1FBD"/>
</linearGradient>
<linearGradient id="paint13_linear_43_1438" x1="2.01547" y1="8.11744e-08" x2="98.2475" y2="97.2838" gradientUnits="userSpaceOnUse">
<stop stop-color="#1470D6"/>
<stop offset="1" stop-color="#CF1FBD"/>
</linearGradient>
<linearGradient id="paint14_linear_43_1438" x1="3.61987" y1="230.587" x2="39.1807" y2="336.242" gradientUnits="userSpaceOnUse">
<stop stop-color="#1470D6"/>
<stop offset="1" stop-color="#CF1FBD"/>
</linearGradient>
<linearGradient id="paint15_linear_43_1438" x1="3.61629" y1="290.798" x2="8.51681" y2="331.869" gradientUnits="userSpaceOnUse">
<stop stop-color="#1470D6"/>
<stop offset="1" stop-color="#CF1FBD"/>
</linearGradient>
<linearGradient id="paint16_linear_43_1438" x1="170.984" y1="168.051" x2="176.707" y2="168.191" gradientUnits="userSpaceOnUse">
<stop stop-color="#1470D6"/>
<stop offset="1" stop-color="#CF1FBD"/>
</linearGradient>
<linearGradient id="paint17_linear_43_1438" x1="177.971" y1="141.25" x2="297.518" y2="364.444" gradientUnits="userSpaceOnUse">
<stop stop-color="#1470D6"/>
<stop offset="1" stop-color="#CF1FBD"/>
</linearGradient>
<linearGradient id="paint18_linear_43_1438" x1="127.26" y1="2.33778e-07" x2="220.29" y2="16.0792" gradientUnits="userSpaceOnUse">
<stop stop-color="#1470D6"/>
<stop offset="1" stop-color="#CF1FBD"/>
</linearGradient>
<linearGradient id="paint19_linear_43_1438" x1="434.036" y1="138.239" x2="441.207" y2="145.852" gradientUnits="userSpaceOnUse">
<stop stop-color="#1470D6"/>
<stop offset="1" stop-color="#CF1FBD"/>
</linearGradient>
<linearGradient id="paint20_linear_43_1438" x1="434.036" y1="138.239" x2="441.207" y2="145.852" gradientUnits="userSpaceOnUse">
<stop stop-color="#1470D6"/>
<stop offset="1" stop-color="#CF1FBD"/>
</linearGradient>
<linearGradient id="paint21_linear_43_1438" x1="434.036" y1="138.239" x2="441.207" y2="145.852" gradientUnits="userSpaceOnUse">
<stop stop-color="#1470D6"/>
<stop offset="1" stop-color="#CF1FBD"/>
</linearGradient>
<linearGradient id="paint22_linear_43_1438" x1="434.036" y1="138.239" x2="441.207" y2="145.852" gradientUnits="userSpaceOnUse">
<stop stop-color="#1470D6"/>
<stop offset="1" stop-color="#CF1FBD"/>
</linearGradient>
<linearGradient id="paint23_linear_43_1438" x1="168.196" y1="164.257" x2="175.368" y2="171.847" gradientUnits="userSpaceOnUse">
<stop stop-color="#1470D6"/>
<stop offset="1" stop-color="#CF1FBD"/>
</linearGradient>
<linearGradient id="paint24_linear_43_1438" x1="434.036" y1="138.239" x2="441.207" y2="145.852" gradientUnits="userSpaceOnUse">
<stop stop-color="#1470D6"/>
<stop offset="1" stop-color="#CF1FBD"/>
</linearGradient>
<linearGradient id="paint25_linear_43_1438" x1="168.196" y1="164.257" x2="175.368" y2="171.847" gradientUnits="userSpaceOnUse">
<stop stop-color="#1470D6"/>
<stop offset="1" stop-color="#CF1FBD"/>
</linearGradient>
<linearGradient id="paint26_linear_43_1438" x1="168.196" y1="164.257" x2="175.368" y2="171.847" gradientUnits="userSpaceOnUse">
<stop stop-color="#1470D6"/>
<stop offset="1" stop-color="#CF1FBD"/>
</linearGradient>
<linearGradient id="paint27_linear_43_1438" x1="168.196" y1="164.257" x2="175.368" y2="171.847" gradientUnits="userSpaceOnUse">
<stop stop-color="#1470D6"/>
<stop offset="1" stop-color="#CF1FBD"/>
</linearGradient>
<linearGradient id="paint28_linear_43_1438" x1="168.196" y1="164.257" x2="175.368" y2="171.847" gradientUnits="userSpaceOnUse">
<stop stop-color="#1470D6"/>
<stop offset="1" stop-color="#CF1FBD"/>
</linearGradient>
<linearGradient id="paint29_linear_43_1438" x1="168.196" y1="164.257" x2="175.368" y2="171.847" gradientUnits="userSpaceOnUse">
<stop stop-color="#1470D6"/>
<stop offset="1" stop-color="#CF1FBD"/>
</linearGradient>
<linearGradient id="paint30_linear_43_1438" x1="168.196" y1="164.257" x2="175.368" y2="171.847" gradientUnits="userSpaceOnUse">
<stop stop-color="#1470D6"/>
<stop offset="1" stop-color="#CF1FBD"/>
</linearGradient>
<linearGradient id="paint31_linear_43_1438" x1="168.196" y1="164.257" x2="175.368" y2="171.847" gradientUnits="userSpaceOnUse">
<stop stop-color="#1470D6"/>
<stop offset="1" stop-color="#CF1FBD"/>
</linearGradient>
<linearGradient id="paint32_linear_43_1438" x1="168.196" y1="164.257" x2="175.368" y2="171.847" gradientUnits="userSpaceOnUse">
<stop stop-color="#1470D6"/>
<stop offset="1" stop-color="#CF1FBD"/>
</linearGradient>
<linearGradient id="paint33_linear_43_1438" x1="169.248" y1="287.885" x2="176.42" y2="295.474" gradientUnits="userSpaceOnUse">
<stop stop-color="#1470D6"/>
<stop offset="1" stop-color="#CF1FBD"/>
</linearGradient>
<linearGradient id="paint34_linear_43_1438" x1="169.248" y1="287.885" x2="176.42" y2="295.474" gradientUnits="userSpaceOnUse">
<stop stop-color="#1470D6"/>
<stop offset="1" stop-color="#CF1FBD"/>
</linearGradient>
<linearGradient id="paint35_linear_43_1438" x1="168.196" y1="164.257" x2="175.368" y2="171.847" gradientUnits="userSpaceOnUse">
<stop stop-color="#1470D6"/>
<stop offset="1" stop-color="#CF1FBD"/>
</linearGradient>
<linearGradient id="paint36_linear_43_1438" x1="169.248" y1="287.885" x2="176.42" y2="295.474" gradientUnits="userSpaceOnUse">
<stop stop-color="#1470D6"/>
<stop offset="1" stop-color="#CF1FBD"/>
</linearGradient>
<linearGradient id="paint37_linear_43_1438" x1="434.036" y1="138.239" x2="441.207" y2="145.852" gradientUnits="userSpaceOnUse">
<stop stop-color="#1470D6"/>
<stop offset="1" stop-color="#CF1FBD"/>
</linearGradient>
<linearGradient id="paint38_linear_43_1438" x1="169.248" y1="287.885" x2="176.42" y2="295.474" gradientUnits="userSpaceOnUse">
<stop stop-color="#1470D6"/>
<stop offset="1" stop-color="#CF1FBD"/>
</linearGradient>
<linearGradient id="paint39_linear_43_1438" x1="169.248" y1="287.885" x2="176.42" y2="295.474" gradientUnits="userSpaceOnUse">
<stop stop-color="#1470D6"/>
<stop offset="1" stop-color="#CF1FBD"/>
</linearGradient>
<linearGradient id="paint40_linear_43_1438" x1="87.2044" y1="170.401" x2="128.144" y2="319.309" gradientUnits="userSpaceOnUse">
<stop stop-color="#1470D6"/>
<stop offset="1" stop-color="#CF1FBD"/>
</linearGradient>
<linearGradient id="paint41_linear_43_1438" x1="313.906" y1="2.03465e-07" x2="424.103" y2="26.6421" gradientUnits="userSpaceOnUse">
<stop stop-color="#1470D6"/>
<stop offset="1" stop-color="#CF1FBD"/>
</linearGradient>
<linearGradient id="paint42_linear_43_1438" x1="83.6957" y1="1.37761e-07" x2="245.938" y2="144.55" gradientUnits="userSpaceOnUse">
<stop stop-color="#1470D6"/>
<stop offset="1" stop-color="#CF1FBD"/>
</linearGradient>
<linearGradient id="paint43_linear_43_1438" x1="1.70359" y1="165.481" x2="2.72026" y2="178.372" gradientUnits="userSpaceOnUse">
<stop stop-color="#1470D6"/>
<stop offset="1" stop-color="#CF1FBD"/>
</linearGradient>
<linearGradient id="paint44_linear_43_1438" x1="64.4828" y1="1.3733e-07" x2="100.983" y2="4.14418" gradientUnits="userSpaceOnUse">
<stop stop-color="#1470D6"/>
<stop offset="1" stop-color="#CF1FBD"/>
</linearGradient>
<linearGradient id="paint45_linear_43_1438" x1="49.8144" y1="284.238" x2="139.745" y2="482.858" gradientUnits="userSpaceOnUse">
<stop stop-color="#1470D6"/>
<stop offset="1" stop-color="#CF1FBD"/>
</linearGradient>
<linearGradient id="paint46_linear_43_1438" x1="50.7397" y1="252.909" x2="164.297" y2="501.573" gradientUnits="userSpaceOnUse">
<stop stop-color="#1470D6"/>
<stop offset="1" stop-color="#CF1FBD"/>
</linearGradient>
<linearGradient id="paint47_linear_43_1438" x1="44.7461" y1="284.874" x2="82.9957" y2="291.185" gradientUnits="userSpaceOnUse">
<stop stop-color="#1470D6"/>
<stop offset="1" stop-color="#CF1FBD"/>
</linearGradient>
<linearGradient id="paint48_linear_43_1438" x1="44.2014" y1="171.184" x2="120.682" y2="184.445" gradientUnits="userSpaceOnUse">
<stop stop-color="#1470D6"/>
<stop offset="1" stop-color="#CF1FBD"/>
</linearGradient>
<linearGradient id="paint49_linear_43_1438" x1="369.817" y1="2.03485e-07" x2="482.371" y2="27.8654" gradientUnits="userSpaceOnUse">
<stop stop-color="#1470D6"/>
<stop offset="1" stop-color="#CF1FBD"/>
</linearGradient>
<linearGradient id="paint50_linear_43_1438" x1="73.4143" y1="1.37291e-07" x2="91.9137" y2="1.0547" gradientUnits="userSpaceOnUse">
<stop stop-color="#1470D6"/>
<stop offset="1" stop-color="#CF1FBD"/>
</linearGradient>
<linearGradient id="paint51_linear_43_1438" x1="1.71074" y1="134.862" x2="27.4675" y2="194.783" gradientUnits="userSpaceOnUse">
<stop stop-color="#1470D6"/>
<stop offset="1" stop-color="#CF1FBD"/>
</linearGradient>
<linearGradient id="paint52_linear_43_1438" x1="0.937177" y1="384.051" x2="22.9954" y2="422.899" gradientUnits="userSpaceOnUse">
<stop stop-color="#1470D6"/>
<stop offset="1" stop-color="#CF1FBD"/>
</linearGradient>
<linearGradient id="paint53_linear_43_1438" x1="1.71841" y1="170.719" x2="98.6048" y2="252.49" gradientUnits="userSpaceOnUse">
<stop stop-color="#1470D6"/>
<stop offset="1" stop-color="#CF1FBD"/>
</linearGradient>
<linearGradient id="paint54_linear_43_1438" x1="9.3599" y1="1.37565e-07" x2="133.418" y2="57.2209" gradientUnits="userSpaceOnUse">
<stop stop-color="#1470D6"/>
<stop offset="1" stop-color="#CF1FBD"/>
</linearGradient>
<linearGradient id="paint55_linear_43_1438" x1="77.4583" y1="167.198" x2="85.3182" y2="175.543" gradientUnits="userSpaceOnUse">
<stop stop-color="#1470D6"/>
<stop offset="1" stop-color="#CF1FBD"/>
</linearGradient>
<linearGradient id="paint56_linear_43_1438" x1="365.577" y1="249.639" x2="373.431" y2="257.983" gradientUnits="userSpaceOnUse">
<stop stop-color="#1470D6"/>
<stop offset="1" stop-color="#CF1FBD"/>
</linearGradient>
<linearGradient id="paint57_linear_43_1438" x1="365.577" y1="249.639" x2="373.431" y2="257.983" gradientUnits="userSpaceOnUse">
<stop stop-color="#1470D6"/>
<stop offset="1" stop-color="#CF1FBD"/>
</linearGradient>
<linearGradient id="paint58_linear_43_1438" x1="77.4583" y1="167.198" x2="85.3182" y2="175.543" gradientUnits="userSpaceOnUse">
<stop stop-color="#1470D6"/>
<stop offset="1" stop-color="#CF1FBD"/>
</linearGradient>
<linearGradient id="paint59_linear_43_1438" x1="77.4583" y1="167.198" x2="85.3182" y2="175.543" gradientUnits="userSpaceOnUse">
<stop stop-color="#1470D6"/>
<stop offset="1" stop-color="#CF1FBD"/>
</linearGradient>
<linearGradient id="paint60_linear_43_1438" x1="77.4583" y1="167.198" x2="85.3182" y2="175.543" gradientUnits="userSpaceOnUse">
<stop stop-color="#1470D6"/>
<stop offset="1" stop-color="#CF1FBD"/>
</linearGradient>
<linearGradient id="paint61_linear_43_1438" x1="365.577" y1="249.639" x2="373.431" y2="257.983" gradientUnits="userSpaceOnUse">
<stop stop-color="#1470D6"/>
<stop offset="1" stop-color="#CF1FBD"/>
</linearGradient>
<linearGradient id="paint62_linear_43_1438" x1="40.3581" y1="406.106" x2="48.218" y2="414.451" gradientUnits="userSpaceOnUse">
<stop stop-color="#1470D6"/>
<stop offset="1" stop-color="#CF1FBD"/>
</linearGradient>
<linearGradient id="paint63_linear_43_1438" x1="77.4583" y1="167.198" x2="85.3182" y2="175.543" gradientUnits="userSpaceOnUse">
<stop stop-color="#1470D6"/>
<stop offset="1" stop-color="#CF1FBD"/>
</linearGradient>
<linearGradient id="paint64_linear_43_1438" x1="40.3581" y1="406.106" x2="48.218" y2="414.451" gradientUnits="userSpaceOnUse">
<stop stop-color="#1470D6"/>
<stop offset="1" stop-color="#CF1FBD"/>
</linearGradient>
<linearGradient id="paint65_linear_43_1438" x1="365.577" y1="249.639" x2="373.431" y2="257.983" gradientUnits="userSpaceOnUse">
<stop stop-color="#1470D6"/>
<stop offset="1" stop-color="#CF1FBD"/>
</linearGradient>
<linearGradient id="paint66_linear_43_1438" x1="77.4583" y1="167.198" x2="85.3182" y2="175.543" gradientUnits="userSpaceOnUse">
<stop stop-color="#1470D6"/>
<stop offset="1" stop-color="#CF1FBD"/>
</linearGradient>
<linearGradient id="paint67_linear_43_1438" x1="77.4583" y1="167.198" x2="85.3182" y2="175.543" gradientUnits="userSpaceOnUse">
<stop stop-color="#1470D6"/>
<stop offset="1" stop-color="#CF1FBD"/>
</linearGradient>
<linearGradient id="paint68_linear_43_1438" x1="40.3581" y1="406.106" x2="48.218" y2="414.451" gradientUnits="userSpaceOnUse">
<stop stop-color="#1470D6"/>
<stop offset="1" stop-color="#CF1FBD"/>
</linearGradient>
<linearGradient id="paint69_linear_43_1438" x1="77.4583" y1="167.198" x2="85.3182" y2="175.543" gradientUnits="userSpaceOnUse">
<stop stop-color="#1470D6"/>
<stop offset="1" stop-color="#CF1FBD"/>
</linearGradient>
<linearGradient id="paint70_linear_43_1438" x1="77.4583" y1="167.198" x2="85.3182" y2="175.543" gradientUnits="userSpaceOnUse">
<stop stop-color="#1470D6"/>
<stop offset="1" stop-color="#CF1FBD"/>
</linearGradient>
<linearGradient id="paint71_linear_43_1438" x1="109.19" y1="1.97838e-08" x2="132.603" y2="22.0491" gradientUnits="userSpaceOnUse">
<stop stop-color="#1470D6"/>
<stop offset="1" stop-color="#CF1FBD"/>
</linearGradient>
<linearGradient id="paint72_linear_43_1438" x1="70.3518" y1="1.99603e-08" x2="90.8688" y2="35.4562" gradientUnits="userSpaceOnUse">
<stop stop-color="#1470D6"/>
<stop offset="1" stop-color="#CF1FBD"/>
</linearGradient>
<linearGradient id="paint73_linear_43_1438" x1="191.054" y1="284.825" x2="250.849" y2="304.534" gradientUnits="userSpaceOnUse">
<stop stop-color="#1470D6"/>
<stop offset="1" stop-color="#CF1FBD"/>
</linearGradient>
<linearGradient id="paint74_linear_43_1438" x1="110.954" y1="23.766" x2="320.841" y2="93.9812" gradientUnits="userSpaceOnUse">
<stop stop-color="#1470D6"/>
<stop offset="1" stop-color="#CF1FBD"/>
</linearGradient>
<linearGradient id="paint75_linear_43_1438" x1="223.672" y1="284.262" x2="266.051" y2="293.574" gradientUnits="userSpaceOnUse">
<stop stop-color="#1470D6"/>
<stop offset="1" stop-color="#CF1FBD"/>
</linearGradient>
<linearGradient id="paint76_linear_43_1438" x1="223.912" y1="11.8708" x2="378.107" y2="46.5642" gradientUnits="userSpaceOnUse">
<stop stop-color="#1470D6"/>
<stop offset="1" stop-color="#CF1FBD"/>
</linearGradient>
<linearGradient id="paint77_linear_43_1438" x1="299.099" y1="9.78406e-09" x2="305.522" y2="1.94057" gradientUnits="userSpaceOnUse">
<stop stop-color="#1470D6"/>
<stop offset="1" stop-color="#CF1FBD"/>
</linearGradient>
<linearGradient id="paint78_linear_43_1438" x1="113.434" y1="11.0876" x2="115.243" y2="37.5106" gradientUnits="userSpaceOnUse">
<stop stop-color="#1470D6"/>
<stop offset="1" stop-color="#CF1FBD"/>
</linearGradient>
<linearGradient id="paint79_linear_43_1438" x1="279.766" y1="1.03723e-08" x2="290.004" y2="19.1091" gradientUnits="userSpaceOnUse">
<stop stop-color="#1470D6"/>
<stop offset="1" stop-color="#CF1FBD"/>
</linearGradient>
<linearGradient id="paint80_linear_43_1438" x1="98.4475" y1="1.95877e-08" x2="117.693" y2="10.2269" gradientUnits="userSpaceOnUse">
<stop stop-color="#1470D6"/>
<stop offset="1" stop-color="#CF1FBD"/>
</linearGradient>
<linearGradient id="paint81_linear_43_1438" x1="2.30178" y1="23.2766" x2="83.2178" y2="130.206" gradientUnits="userSpaceOnUse">
<stop stop-color="#1470D6"/>
<stop offset="1" stop-color="#CF1FBD"/>
</linearGradient>
<linearGradient id="paint82_linear_43_1438" x1="301.114" y1="1.02546e-08" x2="313.076" y2="14.3275" gradientUnits="userSpaceOnUse">
<stop stop-color="#1470D6"/>
<stop offset="1" stop-color="#CF1FBD"/>
</linearGradient>
<linearGradient id="paint83_linear_43_1438" x1="468.003" y1="1.43487e-07" x2="525.988" y2="10.1877" gradientUnits="userSpaceOnUse">
<stop stop-color="#1470D6"/>
<stop offset="1" stop-color="#CF1FBD"/>
</linearGradient>
<linearGradient id="paint84_linear_43_1438" x1="304.329" y1="11.3813" x2="463.876" y2="180.872" gradientUnits="userSpaceOnUse">
<stop stop-color="#1470D6"/>
<stop offset="1" stop-color="#CF1FBD"/>
</linearGradient>
<linearGradient id="paint85_linear_43_1438" x1="225.734" y1="286.514" x2="322.604" y2="405.693" gradientUnits="userSpaceOnUse">
<stop stop-color="#1470D6"/>
<stop offset="1" stop-color="#CF1FBD"/>
</linearGradient>
<linearGradient id="paint86_linear_43_1438" x1="227.729" y1="178.208" x2="426.074" y2="421.76" gradientUnits="userSpaceOnUse">
<stop stop-color="#1470D6"/>
<stop offset="1" stop-color="#CF1FBD"/>
</linearGradient>
<linearGradient id="paint87_linear_43_1438" x1="116.619" y1="23.1542" x2="221.118" y2="277.989" gradientUnits="userSpaceOnUse">
<stop stop-color="#1470D6"/>
<stop offset="1" stop-color="#CF1FBD"/>
</linearGradient>
<linearGradient id="paint88_linear_43_1438" x1="4.67004" y1="389.729" x2="17.7764" y2="465.474" gradientUnits="userSpaceOnUse">
<stop stop-color="#1470D6"/>
<stop offset="1" stop-color="#CF1FBD"/>
</linearGradient>
<linearGradient id="paint89_linear_43_1438" x1="299.363" y1="9.76446e-09" x2="305.361" y2="1.67526" gradientUnits="userSpaceOnUse">
<stop stop-color="#1470D6"/>
<stop offset="1" stop-color="#CF1FBD"/>
</linearGradient>
<linearGradient id="paint90_linear_43_1438" x1="108.851" y1="1.96073e-08" x2="128.482" y2="10.7964" gradientUnits="userSpaceOnUse">
<stop stop-color="#1470D6"/>
<stop offset="1" stop-color="#CF1FBD"/>
</linearGradient>
<linearGradient id="paint91_linear_43_1438" x1="0.806289" y1="284.385" x2="56.7834" y2="319.369" gradientUnits="userSpaceOnUse">
<stop stop-color="#1470D6"/>
<stop offset="1" stop-color="#CF1FBD"/>
</linearGradient>
<linearGradient id="paint92_linear_43_1438" x1="0.793507" y1="274.594" x2="6.3545" y2="294.471" gradientUnits="userSpaceOnUse">
<stop stop-color="#1470D6"/>
<stop offset="1" stop-color="#CF1FBD"/>
</linearGradient>
<linearGradient id="paint93_linear_43_1438" x1="42.5472" y1="11.3813" x2="302.896" y2="278.939" gradientUnits="userSpaceOnUse">
<stop stop-color="#1470D6"/>
<stop offset="1" stop-color="#CF1FBD"/>
</linearGradient>
<linearGradient id="paint94_linear_43_1438" x1="41.1209" y1="284.042" x2="126.769" y2="441.839" gradientUnits="userSpaceOnUse">
<stop stop-color="#1470D6"/>
<stop offset="1" stop-color="#CF1FBD"/>
</linearGradient>
<linearGradient id="paint95_linear_43_1438" x1="38.2982" y1="23.7905" x2="174.775" y2="64.6725" gradientUnits="userSpaceOnUse">
<stop stop-color="#1470D6"/>
<stop offset="1" stop-color="#CF1FBD"/>
</linearGradient>
<linearGradient id="paint96_linear_43_1438" x1="105.451" y1="19.8401" x2="113.451" y2="28.3345" gradientUnits="userSpaceOnUse">
<stop stop-color="#1470D6"/>
<stop offset="1" stop-color="#CF1FBD"/>
</linearGradient>
<linearGradient id="paint97_linear_43_1438" x1="105.451" y1="19.8401" x2="113.451" y2="28.3345" gradientUnits="userSpaceOnUse">
<stop stop-color="#1470D6"/>
<stop offset="1" stop-color="#CF1FBD"/>
</linearGradient>
<linearGradient id="paint98_linear_43_1438" x1="105.451" y1="19.8401" x2="113.451" y2="28.3345" gradientUnits="userSpaceOnUse">
<stop stop-color="#1470D6"/>
<stop offset="1" stop-color="#CF1FBD"/>
</linearGradient>
<linearGradient id="paint99_linear_43_1438" x1="219.172" y1="386.499" x2="227.162" y2="394.993" gradientUnits="userSpaceOnUse">
<stop stop-color="#1470D6"/>
<stop offset="1" stop-color="#CF1FBD"/>
</linearGradient>
<linearGradient id="paint100_linear_43_1438" x1="219.172" y1="386.499" x2="227.162" y2="394.993" gradientUnits="userSpaceOnUse">
<stop stop-color="#1470D6"/>
<stop offset="1" stop-color="#CF1FBD"/>
</linearGradient>
<linearGradient id="paint101_linear_43_1438" x1="297.486" y1="7.87769" x2="305.481" y2="16.3626" gradientUnits="userSpaceOnUse">
<stop stop-color="#1470D6"/>
<stop offset="1" stop-color="#CF1FBD"/>
</linearGradient>
<linearGradient id="paint102_linear_43_1438" x1="297.486" y1="7.87769" x2="305.481" y2="16.3626" gradientUnits="userSpaceOnUse">
<stop stop-color="#1470D6"/>
<stop offset="1" stop-color="#CF1FBD"/>
</linearGradient>
<linearGradient id="paint103_linear_43_1438" x1="105.451" y1="19.8401" x2="113.451" y2="28.3345" gradientUnits="userSpaceOnUse">
<stop stop-color="#1470D6"/>
<stop offset="1" stop-color="#CF1FBD"/>
</linearGradient>
<linearGradient id="paint104_linear_43_1438" x1="297.486" y1="7.87769" x2="305.481" y2="16.3626" gradientUnits="userSpaceOnUse">
<stop stop-color="#1470D6"/>
<stop offset="1" stop-color="#CF1FBD"/>
</linearGradient>
<linearGradient id="paint105_linear_43_1438" x1="297.486" y1="7.87769" x2="305.481" y2="16.3626" gradientUnits="userSpaceOnUse">
<stop stop-color="#1470D6"/>
<stop offset="1" stop-color="#CF1FBD"/>
</linearGradient>
<linearGradient id="paint106_linear_43_1438" x1="105.451" y1="19.8401" x2="113.451" y2="28.3345" gradientUnits="userSpaceOnUse">
<stop stop-color="#1470D6"/>
<stop offset="1" stop-color="#CF1FBD"/>
</linearGradient>
<linearGradient id="paint107_linear_43_1438" x1="105.451" y1="19.8401" x2="113.451" y2="28.3345" gradientUnits="userSpaceOnUse">
<stop stop-color="#1470D6"/>
<stop offset="1" stop-color="#CF1FBD"/>
</linearGradient>
<linearGradient id="paint108_linear_43_1438" x1="297.486" y1="7.87769" x2="305.481" y2="16.3626" gradientUnits="userSpaceOnUse">
<stop stop-color="#1470D6"/>
<stop offset="1" stop-color="#CF1FBD"/>
</linearGradient>
<linearGradient id="paint109_linear_43_1438" x1="464.346" y1="174.748" x2="472.347" y2="183.238" gradientUnits="userSpaceOnUse">
<stop stop-color="#1470D6"/>
<stop offset="1" stop-color="#CF1FBD"/>
</linearGradient>
<linearGradient id="paint110_linear_43_1438" x1="297.486" y1="7.87769" x2="305.481" y2="16.3626" gradientUnits="userSpaceOnUse">
<stop stop-color="#1470D6"/>
<stop offset="1" stop-color="#CF1FBD"/>
</linearGradient>
<linearGradient id="paint111_linear_43_1438" x1="464.346" y1="174.748" x2="472.347" y2="183.238" gradientUnits="userSpaceOnUse">
<stop stop-color="#1470D6"/>
<stop offset="1" stop-color="#CF1FBD"/>
</linearGradient>
<linearGradient id="paint112_linear_43_1438" x1="219.172" y1="386.499" x2="227.162" y2="394.993" gradientUnits="userSpaceOnUse">
<stop stop-color="#1470D6"/>
<stop offset="1" stop-color="#CF1FBD"/>
</linearGradient>
<linearGradient id="paint113_linear_43_1438" x1="464.346" y1="174.748" x2="472.347" y2="183.238" gradientUnits="userSpaceOnUse">
<stop stop-color="#1470D6"/>
<stop offset="1" stop-color="#CF1FBD"/>
</linearGradient>
<linearGradient id="paint114_linear_43_1438" x1="105.451" y1="19.8401" x2="113.451" y2="28.3345" gradientUnits="userSpaceOnUse">
<stop stop-color="#1470D6"/>
<stop offset="1" stop-color="#CF1FBD"/>
</linearGradient>
<linearGradient id="paint115_linear_43_1438" x1="464.346" y1="174.748" x2="472.347" y2="183.238" gradientUnits="userSpaceOnUse">
<stop stop-color="#1470D6"/>
<stop offset="1" stop-color="#CF1FBD"/>
</linearGradient>
<linearGradient id="paint116_linear_43_1438" x1="219.172" y1="386.499" x2="227.162" y2="394.993" gradientUnits="userSpaceOnUse">
<stop stop-color="#1470D6"/>
<stop offset="1" stop-color="#CF1FBD"/>
</linearGradient>
<linearGradient id="paint117_linear_43_1438" x1="297.486" y1="7.87769" x2="305.481" y2="16.3626" gradientUnits="userSpaceOnUse">
<stop stop-color="#1470D6"/>
<stop offset="1" stop-color="#CF1FBD"/>
</linearGradient>
<linearGradient id="paint118_linear_43_1438" x1="105.451" y1="19.8401" x2="113.451" y2="28.3345" gradientUnits="userSpaceOnUse">
<stop stop-color="#1470D6"/>
<stop offset="1" stop-color="#CF1FBD"/>
</linearGradient>
<linearGradient id="paint119_linear_43_1438" x1="33.6762" y1="280.69" x2="41.6665" y2="289.175" gradientUnits="userSpaceOnUse">
<stop stop-color="#1470D6"/>
<stop offset="1" stop-color="#CF1FBD"/>
</linearGradient>
<linearGradient id="paint120_linear_43_1438" x1="33.6762" y1="280.69" x2="41.6665" y2="289.175" gradientUnits="userSpaceOnUse">
<stop stop-color="#1470D6"/>
<stop offset="1" stop-color="#CF1FBD"/>
</linearGradient>
<linearGradient id="paint121_linear_43_1438" x1="297.486" y1="7.87769" x2="305.481" y2="16.3626" gradientUnits="userSpaceOnUse">
<stop stop-color="#1470D6"/>
<stop offset="1" stop-color="#CF1FBD"/>
</linearGradient>
<linearGradient id="paint122_linear_43_1438" x1="33.6762" y1="280.69" x2="41.6665" y2="289.175" gradientUnits="userSpaceOnUse">
<stop stop-color="#1470D6"/>
<stop offset="1" stop-color="#CF1FBD"/>
</linearGradient>
<linearGradient id="paint123_linear_43_1438" x1="219.172" y1="386.499" x2="227.162" y2="394.993" gradientUnits="userSpaceOnUse">
<stop stop-color="#1470D6"/>
<stop offset="1" stop-color="#CF1FBD"/>
</linearGradient>
<linearGradient id="paint124_linear_43_1438" x1="33.6762" y1="280.69" x2="41.6665" y2="289.175" gradientUnits="userSpaceOnUse">
<stop stop-color="#1470D6"/>
<stop offset="1" stop-color="#CF1FBD"/>
</linearGradient>
<linearGradient id="paint125_linear_43_1438" x1="105.451" y1="19.8401" x2="113.451" y2="28.3345" gradientUnits="userSpaceOnUse">
<stop stop-color="#1470D6"/>
<stop offset="1" stop-color="#CF1FBD"/>
</linearGradient>
<linearGradient id="paint126_linear_43_1438" x1="33.6762" y1="280.69" x2="41.6665" y2="289.175" gradientUnits="userSpaceOnUse">
<stop stop-color="#1470D6"/>
<stop offset="1" stop-color="#CF1FBD"/>
</linearGradient>
</defs>
</svg>
