<svg width="497" height="431" viewBox="0 0 497 431" fill="none" xmlns="http://www.w3.org/2000/svg">
<g opacity="0.6">
<path opacity="0.6" d="M128.102 430.799L60.1379 288.374L58.5238 289.158L126.121 430.799H128.102Z" fill="url(#paint0_linear_43_1656)"/>
</g>
<g opacity="0.6">
<path opacity="0.6" d="M127.539 430.799L60.1379 288.374L58.5239 289.158L125.583 430.799H127.539Z" fill="url(#paint1_linear_43_1656)"/>
</g>
<g opacity="0.6">
<path opacity="0.6" d="M127.539 430.799L60.1379 288.374L58.5239 289.158L125.583 430.799H127.539Z" fill="url(#paint2_linear_43_1656)"/>
</g>
<g opacity="0.6">
<path opacity="0.6" d="M104.942 430.799L60.1869 288.497L58.4749 289.035L103.083 430.799H104.942Z" fill="url(#paint3_linear_43_1656)"/>
</g>
<g opacity="0.6">
<path opacity="0.6" d="M145.295 430.799L325.782 263.409L324.583 262.087L142.653 430.799H145.295Z" fill="url(#paint4_linear_43_1656)"/>
</g>
<g opacity="0.6">
<path opacity="0.6" d="M325.268 263.629L59.4287 289.647L59.2575 287.885L325.097 261.867L325.268 263.629Z" fill="url(#paint5_linear_43_1656)"/>
</g>
<g opacity="0.6">
<path opacity="0.6" d="M368.067 430.799L326.051 262.528L324.314 262.969L366.232 430.799H368.067Z" fill="url(#paint6_linear_43_1656)"/>
</g>
<g opacity="0.6">
<path opacity="0.6" d="M257.842 430.799L326.002 263.066L324.363 262.406L255.91 430.799H257.842Z" fill="url(#paint7_linear_43_1656)"/>
</g>
<g opacity="0.6">
<path opacity="0.6" d="M258.356 430.799L326.002 263.066L324.363 262.406L256.424 430.799H258.356Z" fill="url(#paint8_linear_43_1656)"/>
</g>
<g opacity="0.6">
<path opacity="0.6" d="M258.356 430.799L326.002 263.066L324.363 262.406L256.424 430.799H258.356Z" fill="url(#paint9_linear_43_1656)"/>
</g>
<g opacity="0.6">
<path opacity="0.6" d="M435.737 430.799L325.929 262.259L324.437 263.238L433.609 430.799H435.737Z" fill="url(#paint10_linear_43_1656)"/>
</g>
<g opacity="0.6">
<path opacity="0.6" d="M497 153.464L324.706 261.989L325.659 263.507L497 155.568V153.464Z" fill="url(#paint11_linear_43_1656)"/>
</g>
<g opacity="0.6">
<path opacity="0.6" d="M497 241.944L325.073 261.867L325.293 263.629L497 243.731V241.944Z" fill="url(#paint12_linear_43_1656)"/>
</g>
<g opacity="0.6">
<path opacity="0.6" d="M497 329.469L400.593 430.799H403.039L497 332.039V329.469Z" fill="url(#paint13_linear_43_1656)"/>
</g>
<g opacity="0.6">
<path opacity="0.6" d="M497 200.212V198.328L324.437 138.289L323.85 139.953L497 200.212Z" fill="url(#paint14_linear_43_1656)"/>
</g>
<g opacity="0.6">
<path opacity="0.6" d="M497 118.071L324.021 138.239L324.241 140.002L497 119.883V118.071Z" fill="url(#paint15_linear_43_1656)"/>
</g>
<g opacity="0.6">
<path opacity="0.6" d="M325.024 139.121L326.075 262.748H324.29L323.238 139.121H325.024Z" fill="url(#paint16_linear_43_1656)"/>
</g>
<g opacity="0.6">
<path opacity="0.6" d="M324.583 139.904L59.7711 289.549L58.8907 287.983L323.703 138.338L324.583 139.904Z" fill="url(#paint17_linear_43_1656)"/>
</g>
<g opacity="0.6">
<path opacity="0.6" d="M370.732 430.799L325.024 138.974L323.263 139.268L368.923 430.799H370.732Z" fill="url(#paint18_linear_43_1656)"/>
</g>
<path d="M59.3064 284.997C61.3852 284.972 63.0971 286.661 63.1216 288.742C63.146 290.822 61.4585 292.535 59.3798 292.56C57.301 292.584 55.589 290.895 55.5646 288.815C55.5401 286.71 57.2276 285.021 59.3064 284.997Z" fill="url(#paint19_linear_43_1656)"/>
<path d="M59.3064 284.997C61.3852 284.972 63.0971 286.661 63.1216 288.742C63.146 290.822 61.4585 292.535 59.3798 292.56C57.301 292.584 55.589 290.895 55.5646 288.815C55.5401 286.71 57.2276 285.021 59.3064 284.997Z" fill="url(#paint20_linear_43_1656)"/>
<path d="M59.3064 284.997C61.3852 284.972 63.0971 286.661 63.1216 288.742C63.146 290.822 61.4585 292.535 59.3798 292.56C57.301 292.584 55.589 290.895 55.5646 288.815C55.5401 286.71 57.2276 285.021 59.3064 284.997Z" fill="url(#paint21_linear_43_1656)"/>
<path d="M59.3064 284.997C61.3852 284.972 63.0971 286.661 63.1216 288.742C63.146 290.822 61.4585 292.535 59.3798 292.56C57.301 292.584 55.589 290.895 55.5646 288.815C55.5401 286.71 57.2276 285.021 59.3064 284.997Z" fill="url(#paint22_linear_43_1656)"/>
<path d="M325.146 258.979C327.225 258.954 328.937 260.643 328.961 262.724C328.986 264.804 327.298 266.517 325.219 266.542C323.141 266.566 321.429 264.878 321.429 262.797C321.404 260.692 323.067 258.979 325.146 258.979Z" fill="url(#paint23_linear_43_1656)"/>
<path d="M59.3064 284.997C61.3852 284.972 63.0971 286.661 63.1216 288.742C63.146 290.822 61.4585 292.535 59.3798 292.56C57.301 292.584 55.589 290.895 55.5646 288.815C55.5401 286.71 57.2276 285.021 59.3064 284.997Z" fill="url(#paint24_linear_43_1656)"/>
<path d="M325.146 258.979C327.225 258.954 328.937 260.643 328.961 262.724C328.986 264.804 327.298 266.517 325.219 266.542C323.141 266.566 321.429 264.878 321.429 262.797C321.404 260.692 323.067 258.979 325.146 258.979Z" fill="url(#paint25_linear_43_1656)"/>
<path d="M325.146 258.979C327.225 258.954 328.937 260.643 328.961 262.724C328.986 264.804 327.298 266.517 325.219 266.542C323.141 266.566 321.429 264.878 321.429 262.797C321.404 260.692 323.067 258.979 325.146 258.979Z" fill="url(#paint26_linear_43_1656)"/>
<path d="M325.146 258.979C327.225 258.954 328.937 260.643 328.961 262.724C328.986 264.804 327.298 266.517 325.219 266.542C323.141 266.566 321.429 264.878 321.429 262.797C321.404 260.692 323.067 258.979 325.146 258.979Z" fill="url(#paint27_linear_43_1656)"/>
<path d="M325.146 258.979C327.225 258.954 328.937 260.643 328.961 262.724C328.986 264.804 327.298 266.517 325.219 266.542C323.141 266.566 321.429 264.878 321.429 262.797C321.404 260.692 323.067 258.979 325.146 258.979Z" fill="url(#paint28_linear_43_1656)"/>
<path d="M325.146 258.979C327.225 258.954 328.937 260.643 328.961 262.724C328.986 264.804 327.298 266.517 325.219 266.542C323.141 266.566 321.429 264.878 321.429 262.797C321.404 260.692 323.067 258.979 325.146 258.979Z" fill="url(#paint29_linear_43_1656)"/>
<path d="M325.146 258.979C327.225 258.954 328.937 260.643 328.961 262.724C328.986 264.804 327.298 266.517 325.219 266.542C323.141 266.566 321.429 264.878 321.429 262.797C321.404 260.692 323.067 258.979 325.146 258.979Z" fill="url(#paint30_linear_43_1656)"/>
<path d="M325.146 258.979C327.225 258.954 328.937 260.643 328.961 262.724C328.986 264.804 327.298 266.517 325.219 266.542C323.141 266.566 321.429 264.878 321.429 262.797C321.404 260.692 323.067 258.979 325.146 258.979Z" fill="url(#paint31_linear_43_1656)"/>
<path d="M325.146 258.979C327.225 258.954 328.937 260.643 328.961 262.724C328.986 264.804 327.298 266.517 325.219 266.542C323.141 266.566 321.429 264.878 321.429 262.797C321.404 260.692 323.067 258.979 325.146 258.979Z" fill="url(#paint32_linear_43_1656)"/>
<path d="M324.094 135.351C326.173 135.327 327.885 137.016 327.909 139.096C327.934 141.177 326.246 142.89 324.168 142.915C322.089 142.939 320.377 141.25 320.377 139.17C320.352 137.065 322.016 135.351 324.094 135.351Z" fill="url(#paint33_linear_43_1656)"/>
<path d="M324.094 135.351C326.173 135.327 327.885 137.016 327.909 139.096C327.934 141.177 326.246 142.89 324.168 142.915C322.089 142.939 320.377 141.25 320.377 139.17C320.352 137.065 322.016 135.351 324.094 135.351Z" fill="url(#paint34_linear_43_1656)"/>
<path d="M325.146 258.979C327.225 258.954 328.937 260.643 328.961 262.724C328.986 264.804 327.298 266.517 325.219 266.542C323.141 266.566 321.429 264.878 321.429 262.797C321.404 260.692 323.067 258.979 325.146 258.979Z" fill="url(#paint35_linear_43_1656)"/>
<path d="M324.094 135.351C326.173 135.327 327.885 137.016 327.909 139.096C327.934 141.177 326.246 142.89 324.168 142.915C322.089 142.939 320.377 141.25 320.377 139.17C320.352 137.065 322.016 135.351 324.094 135.351Z" fill="url(#paint36_linear_43_1656)"/>
<path d="M59.3064 284.997C61.3852 284.972 63.0971 286.661 63.1216 288.742C63.146 290.822 61.4585 292.535 59.3798 292.56C57.301 292.584 55.589 290.895 55.5646 288.815C55.5401 286.71 57.2276 285.021 59.3064 284.997Z" fill="url(#paint37_linear_43_1656)"/>
<path d="M324.094 135.351C326.173 135.327 327.885 137.016 327.909 139.096C327.934 141.177 326.246 142.89 324.168 142.915C322.089 142.939 320.377 141.25 320.377 139.17C320.352 137.065 322.016 135.351 324.094 135.351Z" fill="url(#paint38_linear_43_1656)"/>
<path d="M324.094 135.351C326.173 135.327 327.885 137.016 327.909 139.096C327.934 141.177 326.246 142.89 324.168 142.915C322.089 142.939 320.377 141.25 320.377 139.17C320.352 137.065 322.016 135.351 324.094 135.351Z" fill="url(#paint39_linear_43_1656)"/>
<g opacity="0.6">
<path opacity="0.6" d="M127.735 176.079L415.83 258.514L415.292 260.398L127.197 177.964L127.735 176.079Z" fill="url(#paint40_linear_43_1656)"/>
</g>
<g opacity="0.6">
<path opacity="0.6" d="M184.302 430.799L128.42 176.814L126.512 177.23L182.297 430.799H184.302Z" fill="url(#paint41_linear_43_1656)"/>
</g>
<g opacity="0.6">
<path opacity="0.6" d="M274.668 430.799L416.319 260.08L414.803 258.832L272.125 430.799H274.668Z" fill="url(#paint42_linear_43_1656)"/>
</g>
<g opacity="0.6">
<path opacity="0.6" d="M497 265.318V263.36L415.61 258.489L415.512 260.447L497 265.318Z" fill="url(#paint43_linear_43_1656)"/>
</g>
<g opacity="0.6">
<path opacity="0.6" d="M432.9 430.799L416.539 259.371L414.582 259.566L430.944 430.799H432.9Z" fill="url(#paint44_linear_43_1656)"/>
</g>
<g opacity="0.6">
<path opacity="0.6" d="M452.661 20.5597C435.541 29.4933 418.422 36.8361 401.303 44.1788C330.38 80.8926 261.902 112.711 190.759 146.561" fill="url(#paint45_linear_43_1656)"/>
<path opacity="0.6" d="M127.026 176.128L452.245 19.6786L453.077 21.4408L127.882 177.89L127.026 176.128Z" fill="url(#paint46_linear_43_1656)"/>
</g>
<g opacity="0.6">
<path opacity="0.6" d="M452.661 20.5598C445.324 61.3121 440.433 105.369 433.194 145.925L452.661 20.5598Z" fill="url(#paint47_linear_43_1656)"/>
<path opacity="0.6" d="M451.683 20.4129L453.615 20.7066L416.514 259.615L414.582 259.322L451.683 20.4129Z" fill="url(#paint48_linear_43_1656)"/>
</g>
<g opacity="0.6">
<path opacity="0.6" d="M71.2411 430.799L128.42 177.23L126.512 176.789L69.2356 430.799H71.2411Z" fill="url(#paint49_linear_43_1656)"/>
</g>
<g opacity="0.6">
<path opacity="0.6" d="M423.778 430.799L416.539 259.42L414.582 259.517L421.821 430.799H423.778Z" fill="url(#paint50_linear_43_1656)"/>
</g>
<g opacity="0.6">
<path opacity="0.6" d="M497 295.938V293.808L415.952 258.563L415.169 260.374L497 295.938Z" fill="url(#paint51_linear_43_1656)"/>
</g>
<g opacity="0.6">
<path opacity="0.6" d="M497 46.7488V44.497L453.15 19.703L452.172 21.4163L497 46.7488Z" fill="url(#paint52_linear_43_1656)"/>
</g>
<g opacity="0.6">
<path opacity="0.6" d="M497 156.596L414.803 258.857L416.319 260.08L497 159.729V156.596Z" fill="url(#paint53_linear_43_1656)"/>
</g>
<g opacity="0.6">
<path opacity="0.6" d="M489.198 430.799L416.466 259.077L414.656 259.86L487.095 430.799H489.198Z" fill="url(#paint54_linear_43_1656)"/>
</g>
<path d="M412.137 261.769C410.865 259.86 411.354 257.29 413.262 256.017C415.145 254.745 417.737 255.234 419.009 257.143C420.281 259.052 419.792 261.622 417.884 262.895C415.976 264.168 413.409 263.678 412.137 261.769Z" fill="url(#paint55_linear_43_1656)"/>
<path d="M124.018 179.334C122.746 177.425 123.235 174.855 125.143 173.583C127.026 172.31 129.594 172.799 130.89 174.709C132.162 176.593 131.672 179.163 129.765 180.46C127.882 181.733 125.289 181.219 124.018 179.334Z" fill="url(#paint56_linear_43_1656)"/>
<path d="M124.018 179.334C122.746 177.425 123.235 174.855 125.143 173.583C127.026 172.31 129.594 172.799 130.89 174.709C132.162 176.593 131.672 179.163 129.765 180.46C127.882 181.733 125.289 181.219 124.018 179.334Z" fill="url(#paint57_linear_43_1656)"/>
<path d="M412.137 261.769C410.865 259.86 411.354 257.29 413.262 256.017C415.145 254.745 417.737 255.234 419.009 257.143C420.281 259.052 419.792 261.622 417.884 262.895C415.976 264.168 413.409 263.678 412.137 261.769Z" fill="url(#paint58_linear_43_1656)"/>
<path d="M412.137 261.769C410.865 259.86 411.354 257.29 413.262 256.017C415.145 254.745 417.737 255.234 419.009 257.143C420.281 259.052 419.792 261.622 417.884 262.895C415.976 264.168 413.409 263.678 412.137 261.769Z" fill="url(#paint59_linear_43_1656)"/>
<path d="M412.137 261.769C410.865 259.86 411.354 257.29 413.262 256.017C415.145 254.745 417.737 255.234 419.009 257.143C420.281 259.052 419.792 261.622 417.884 262.895C415.976 264.168 413.409 263.678 412.137 261.769Z" fill="url(#paint60_linear_43_1656)"/>
<path d="M124.018 179.334C122.746 177.425 123.235 174.855 125.143 173.583C127.026 172.31 129.594 172.799 130.89 174.709C132.162 176.593 131.672 179.163 129.765 180.46C127.882 181.733 125.289 181.219 124.018 179.334Z" fill="url(#paint61_linear_43_1656)"/>
<path d="M449.237 22.8605C447.965 20.9514 448.454 18.3814 450.362 17.1087C452.245 15.8359 454.837 16.3255 456.109 18.2346C457.381 20.1437 456.892 22.7137 454.984 23.9864C453.077 25.2592 450.509 24.7697 449.237 22.8605Z" fill="url(#paint62_linear_43_1656)"/>
<path d="M412.137 261.769C410.865 259.86 411.354 257.29 413.262 256.017C415.145 254.745 417.737 255.234 419.009 257.143C420.281 259.052 419.792 261.622 417.884 262.895C415.976 264.168 413.409 263.678 412.137 261.769Z" fill="url(#paint63_linear_43_1656)"/>
<path d="M449.237 22.8605C447.965 20.9514 448.454 18.3814 450.362 17.1087C452.245 15.8359 454.837 16.3255 456.109 18.2346C457.381 20.1437 456.892 22.7137 454.984 23.9864C453.077 25.2592 450.509 24.7697 449.237 22.8605Z" fill="url(#paint64_linear_43_1656)"/>
<path d="M124.018 179.334C122.746 177.425 123.235 174.855 125.143 173.583C127.026 172.31 129.594 172.799 130.89 174.709C132.162 176.593 131.672 179.163 129.765 180.46C127.882 181.733 125.289 181.219 124.018 179.334Z" fill="url(#paint65_linear_43_1656)"/>
<path d="M412.137 261.769C410.865 259.86 411.354 257.29 413.262 256.017C415.145 254.745 417.737 255.234 419.009 257.143C420.281 259.052 419.792 261.622 417.884 262.895C415.976 264.168 413.409 263.678 412.137 261.769Z" fill="url(#paint66_linear_43_1656)"/>
<path d="M412.137 261.769C410.865 259.86 411.354 257.29 413.262 256.017C415.145 254.745 417.737 255.234 419.009 257.143C420.281 259.052 419.792 261.622 417.884 262.895C415.976 264.168 413.409 263.678 412.137 261.769Z" fill="url(#paint67_linear_43_1656)"/>
<path d="M449.237 22.8605C447.965 20.9514 448.454 18.3814 450.362 17.1087C452.245 15.8359 454.837 16.3255 456.109 18.2346C457.381 20.1437 456.892 22.7137 454.984 23.9864C453.077 25.2592 450.509 24.7697 449.237 22.8605Z" fill="url(#paint68_linear_43_1656)"/>
<path d="M412.137 261.769C410.865 259.86 411.354 257.29 413.262 256.017C415.145 254.745 417.737 255.234 419.009 257.143C420.281 259.052 419.792 261.622 417.884 262.895C415.976 264.168 413.409 263.678 412.137 261.769Z" fill="url(#paint69_linear_43_1656)"/>
<path d="M412.137 261.769C410.865 259.86 411.354 257.29 413.262 256.017C415.145 254.745 417.737 255.234 419.009 257.143C420.281 259.052 419.792 261.622 417.884 262.895C415.976 264.168 413.409 263.678 412.137 261.769Z" fill="url(#paint70_linear_43_1656)"/>
<g opacity="0.6">
<path opacity="0.6" d="M368.947 430.799L388.268 407.376L386.751 406.103L366.379 430.799H368.947Z" fill="url(#paint71_linear_43_1656)"/>
</g>
<g opacity="0.6">
<path opacity="0.6" d="M427.495 430.799L388.047 405.883L386.971 407.572L423.754 430.799H427.495Z" fill="url(#paint72_linear_43_1656)"/>
</g>
<g opacity="0.6">
<path opacity="0.6" d="M273.788 40.0914C281.491 75.9974 298.611 110.264 306.633 145.974L273.788 40.0914Z" fill="url(#paint73_linear_43_1656)"/>
<path opacity="0.6" d="M272.834 40.3852L274.742 39.7733L388.463 406.446L386.556 407.033L272.834 40.3852Z" fill="url(#paint74_linear_43_1656)"/>
</g>
<g opacity="0.6">
<path opacity="0.6" d="M251.777 146.537C261.927 112.711 264.372 73.5499 273.788 40.0914L251.777 146.537Z" fill="url(#paint75_linear_43_1656)"/>
<path opacity="0.6" d="M272.81 39.8712L274.766 40.2873L196.457 418.928L194.501 418.512L272.81 39.8712Z" fill="url(#paint76_linear_43_1656)"/>
</g>
<g opacity="0.6">
<path opacity="0.6" d="M197.973 430.799L196.457 418.586L194.501 418.831L195.992 430.799H197.973Z" fill="url(#paint77_linear_43_1656)"/>
</g>
<g opacity="0.6">
<path opacity="0.6" d="M195.43 417.729L387.436 405.736L387.583 407.719L195.552 419.712L195.43 417.729Z" fill="url(#paint78_linear_43_1656)"/>
</g>
<g opacity="0.6">
<path opacity="0.6" d="M217.71 430.799L195.992 417.852L194.965 419.565L213.821 430.799H217.71Z" fill="url(#paint79_linear_43_1656)"/>
</g>
<g opacity="0.6">
<path opacity="0.6" d="M398.808 430.799L388.414 406.348L386.58 407.131L396.656 430.799H398.808Z" fill="url(#paint80_linear_43_1656)"/>
</g>
<g opacity="0.6">
<path opacity="0.6" d="M497 318.994L386.898 405.956L388.121 407.523L497 321.539V318.994Z" fill="url(#paint81_linear_43_1656)"/>
</g>
<g opacity="0.6">
<path opacity="0.6" d="M184.62 430.799L196.188 419.418L194.794 417.998L181.759 430.799H184.62Z" fill="url(#paint82_linear_43_1656)"/>
</g>
<g opacity="0.6">
<path opacity="0.6" d="M2.00543 430.799L29.6165 251.979L27.6356 251.685L0 430.799H2.00543Z" fill="url(#paint83_linear_43_1656)"/>
</g>
<g opacity="0.6">
<path opacity="0.6" d="M29.3231 251.122L196.188 418.023L194.77 419.418L27.9291 252.542L29.3231 251.122Z" fill="url(#paint84_linear_43_1656)"/>
</g>
<g opacity="0.6">
<path opacity="0.6" d="M153.145 144.285C193.425 107.816 235 75.9975 273.788 40.0915L153.145 144.285Z" fill="url(#paint85_linear_43_1656)"/>
<path opacity="0.6" d="M273.127 39.3329L274.424 40.8259L29.2741 252.591L27.978 251.073L273.127 39.3329Z" fill="url(#paint86_linear_43_1656)"/>
</g>
<g opacity="0.6">
<path opacity="0.6" d="M29.0051 250.926L387.901 405.834L387.118 407.645L28.2225 252.737L29.0051 250.926Z" fill="url(#paint87_linear_43_1656)"/>
</g>
<g opacity="0.6">
<path opacity="0.6" d="M497 -0.000148773L273.617 39.0878L273.959 41.0703L497 2.03135V-0.000148773Z" fill="url(#paint88_linear_43_1656)"/>
</g>
<g opacity="0.6">
<path opacity="0.6" d="M197.704 430.799L196.482 418.61L194.501 418.831L195.699 430.799H197.704Z" fill="url(#paint89_linear_43_1656)"/>
</g>
<g opacity="0.6">
<path opacity="0.6" d="M377.922 430.799L388.414 407.131L386.604 406.323L375.746 430.799H377.922Z" fill="url(#paint90_linear_43_1656)"/>
</g>
<g opacity="0.6">
<path opacity="0.6" d="M497 80.8438L458.432 145.387L460.144 146.415L497 84.711V80.8438Z" fill="url(#paint91_linear_43_1656)"/>
</g>
<g opacity="0.6">
<path opacity="0.6" d="M497 156.205V154.149L459.533 144.921L459.044 146.855L497 156.205Z" fill="url(#paint92_linear_43_1656)"/>
</g>
<g opacity="0.6">
<path opacity="0.6" d="M458.579 145.191L459.998 146.586L196.188 419.418L194.77 418.023L458.579 145.191Z" fill="url(#paint93_linear_43_1656)"/>
</g>
<g opacity="0.6">
<path opacity="0.6" d="M274.277 39.2105L459.778 145.02L458.799 146.757L273.299 40.9483L274.277 39.2105Z" fill="url(#paint94_linear_43_1656)"/>
</g>
<g opacity="0.6">
<path opacity="0.6" d="M458.335 145.631L460.242 146.145L388.463 407.009L386.556 406.47L458.335 145.631Z" fill="url(#paint95_linear_43_1656)"/>
</g>
<path d="M383.792 408.722C382.691 406.666 383.474 404.121 385.528 403.019C387.583 401.918 390.151 402.701 391.227 404.757C392.327 406.813 391.545 409.359 389.49 410.46C387.436 411.561 384.893 410.778 383.792 408.722Z" fill="url(#paint96_linear_43_1656)"/>
<path d="M383.792 408.722C382.691 406.666 383.474 404.121 385.528 403.019C387.583 401.918 390.151 402.701 391.227 404.757C392.327 406.813 391.545 409.359 389.49 410.46C387.436 411.561 384.893 410.778 383.792 408.722Z" fill="url(#paint97_linear_43_1656)"/>
<path d="M383.792 408.722C382.691 406.666 383.474 404.121 385.528 403.019C387.583 401.918 390.151 402.701 391.227 404.757C392.327 406.813 391.545 409.359 389.49 410.46C387.436 411.561 384.893 410.778 383.792 408.722Z" fill="url(#paint98_linear_43_1656)"/>
<path d="M270.07 42.0741C268.97 40.0181 269.752 37.4727 271.807 36.3713C273.861 35.2699 276.405 36.0531 277.505 38.109C278.606 40.165 277.823 42.7105 275.769 43.8119C273.69 44.8888 271.146 44.1301 270.07 42.0741Z" fill="url(#paint99_linear_43_1656)"/>
<path d="M270.07 42.0741C268.97 40.0181 269.752 37.4727 271.807 36.3713C273.861 35.2699 276.405 36.0531 277.505 38.109C278.606 40.165 277.823 42.7105 275.769 43.8119C273.69 44.8888 271.146 44.1301 270.07 42.0741Z" fill="url(#paint100_linear_43_1656)"/>
<path d="M191.762 420.691C190.661 418.635 191.468 416.065 193.498 414.988C195.552 413.886 198.12 414.67 199.196 416.726C200.297 418.781 199.49 421.351 197.46 422.428C195.43 423.505 192.862 422.771 191.762 420.691Z" fill="url(#paint101_linear_43_1656)"/>
<path d="M191.762 420.691C190.661 418.635 191.468 416.065 193.498 414.988C195.552 413.886 198.12 414.67 199.196 416.726C200.297 418.781 199.49 421.351 197.46 422.428C195.43 423.505 192.862 422.771 191.762 420.691Z" fill="url(#paint102_linear_43_1656)"/>
<path d="M383.792 408.722C382.691 406.666 383.474 404.121 385.528 403.019C387.583 401.918 390.151 402.701 391.227 404.757C392.327 406.813 391.545 409.359 389.49 410.46C387.436 411.561 384.893 410.778 383.792 408.722Z" fill="url(#paint103_linear_43_1656)"/>
<path d="M191.762 420.691C190.661 418.635 191.468 416.065 193.498 414.988C195.552 413.886 198.12 414.67 199.196 416.726C200.297 418.781 199.49 421.351 197.46 422.428C195.43 423.505 192.862 422.771 191.762 420.691Z" fill="url(#paint104_linear_43_1656)"/>
<path d="M191.762 420.691C190.661 418.635 191.468 416.065 193.498 414.988C195.552 413.886 198.12 414.67 199.196 416.726C200.297 418.781 199.49 421.351 197.46 422.428C195.43 423.505 192.862 422.771 191.762 420.691Z" fill="url(#paint105_linear_43_1656)"/>
<path d="M383.792 408.722C382.691 406.666 383.474 404.121 385.528 403.019C387.583 401.918 390.151 402.701 391.227 404.757C392.327 406.813 391.545 409.359 389.49 410.46C387.436 411.561 384.893 410.778 383.792 408.722Z" fill="url(#paint106_linear_43_1656)"/>
<path d="M383.792 408.722C382.691 406.666 383.474 404.121 385.528 403.019C387.583 401.918 390.151 402.701 391.227 404.757C392.327 406.813 391.545 409.359 389.49 410.46C387.436 411.561 384.893 410.778 383.792 408.722Z" fill="url(#paint107_linear_43_1656)"/>
<path d="M191.762 420.691C190.661 418.635 191.468 416.065 193.498 414.988C195.552 413.886 198.12 414.67 199.196 416.726C200.297 418.781 199.49 421.351 197.46 422.428C195.43 423.505 192.862 422.771 191.762 420.691Z" fill="url(#paint108_linear_43_1656)"/>
<path d="M24.8965 253.815C23.796 251.759 24.603 249.189 26.6329 248.112C28.6872 247.01 31.2306 247.793 32.3312 249.849C33.4317 251.905 32.6491 254.451 30.5948 255.552C28.5404 256.654 25.997 255.87 24.8965 253.815Z" fill="url(#paint109_linear_43_1656)"/>
<path d="M191.762 420.691C190.661 418.635 191.468 416.065 193.498 414.988C195.552 413.886 198.12 414.67 199.196 416.726C200.297 418.781 199.49 421.351 197.46 422.428C195.43 423.505 192.862 422.771 191.762 420.691Z" fill="url(#paint110_linear_43_1656)"/>
<path d="M24.8965 253.815C23.796 251.759 24.603 249.189 26.6329 248.112C28.6872 247.01 31.2306 247.793 32.3312 249.849C33.4317 251.905 32.6491 254.451 30.5948 255.552C28.5404 256.654 25.997 255.87 24.8965 253.815Z" fill="url(#paint111_linear_43_1656)"/>
<path d="M270.07 42.0741C268.97 40.0181 269.752 37.4727 271.807 36.3713C273.861 35.2699 276.405 36.0531 277.505 38.109C278.606 40.165 277.823 42.7105 275.769 43.8119C273.69 44.8888 271.146 44.1301 270.07 42.0741Z" fill="url(#paint112_linear_43_1656)"/>
<path d="M24.8965 253.815C23.796 251.759 24.603 249.189 26.6329 248.112C28.6872 247.01 31.2306 247.793 32.3312 249.849C33.4317 251.905 32.6491 254.451 30.5948 255.552C28.5404 256.654 25.997 255.87 24.8965 253.815Z" fill="url(#paint113_linear_43_1656)"/>
<path d="M383.792 408.722C382.691 406.666 383.474 404.121 385.528 403.019C387.583 401.918 390.151 402.701 391.227 404.757C392.327 406.813 391.545 409.359 389.49 410.46C387.436 411.561 384.893 410.778 383.792 408.722Z" fill="url(#paint114_linear_43_1656)"/>
<path d="M24.8965 253.815C23.796 251.759 24.603 249.189 26.6329 248.112C28.6872 247.01 31.2306 247.793 32.3312 249.849C33.4317 251.905 32.6491 254.451 30.5948 255.552C28.5404 256.654 25.997 255.87 24.8965 253.815Z" fill="url(#paint115_linear_43_1656)"/>
<path d="M270.07 42.0741C268.97 40.0181 269.752 37.4727 271.807 36.3713C273.861 35.2699 276.405 36.0531 277.505 38.109C278.606 40.165 277.823 42.7105 275.769 43.8119C273.69 44.8888 271.146 44.1301 270.07 42.0741Z" fill="url(#paint116_linear_43_1656)"/>
<path d="M191.762 420.691C190.661 418.635 191.468 416.065 193.498 414.988C195.552 413.886 198.12 414.67 199.196 416.726C200.297 418.781 199.49 421.351 197.46 422.428C195.43 423.505 192.862 422.771 191.762 420.691Z" fill="url(#paint117_linear_43_1656)"/>
<path d="M383.792 408.722C382.691 406.666 383.474 404.121 385.528 403.019C387.583 401.918 390.151 402.701 391.227 404.757C392.327 406.813 391.545 409.359 389.49 410.46C387.436 411.561 384.893 410.778 383.792 408.722Z" fill="url(#paint118_linear_43_1656)"/>
<path d="M455.571 147.883C454.471 145.827 455.278 143.257 457.307 142.18C459.362 141.079 461.93 141.862 463.006 143.918C464.106 145.974 463.299 148.544 461.269 149.621C459.24 150.698 456.647 149.939 455.571 147.883Z" fill="url(#paint119_linear_43_1656)"/>
<path d="M455.571 147.883C454.471 145.827 455.278 143.257 457.307 142.18C459.362 141.079 461.93 141.862 463.006 143.918C464.106 145.974 463.299 148.544 461.269 149.621C459.24 150.698 456.647 149.939 455.571 147.883Z" fill="url(#paint120_linear_43_1656)"/>
<path d="M191.762 420.691C190.661 418.635 191.468 416.065 193.498 414.988C195.552 413.886 198.12 414.67 199.196 416.726C200.297 418.781 199.49 421.351 197.46 422.428C195.43 423.505 192.862 422.771 191.762 420.691Z" fill="url(#paint121_linear_43_1656)"/>
<path d="M455.571 147.883C454.471 145.827 455.278 143.257 457.307 142.18C459.362 141.079 461.93 141.862 463.006 143.918C464.106 145.974 463.299 148.544 461.269 149.621C459.24 150.698 456.647 149.939 455.571 147.883Z" fill="url(#paint122_linear_43_1656)"/>
<path d="M270.07 42.0741C268.97 40.0181 269.752 37.4727 271.807 36.3713C273.861 35.2699 276.405 36.0531 277.505 38.109C278.606 40.165 277.823 42.7105 275.769 43.8119C273.69 44.8888 271.146 44.1301 270.07 42.0741Z" fill="url(#paint123_linear_43_1656)"/>
<path d="M455.571 147.883C454.471 145.827 455.278 143.257 457.307 142.18C459.362 141.079 461.93 141.862 463.006 143.918C464.106 145.974 463.299 148.544 461.269 149.621C459.24 150.698 456.647 149.939 455.571 147.883Z" fill="url(#paint124_linear_43_1656)"/>
<path d="M383.792 408.722C382.691 406.666 383.474 404.121 385.528 403.019C387.583 401.918 390.151 402.701 391.227 404.757C392.327 406.813 391.545 409.359 389.49 410.46C387.436 411.561 384.893 410.778 383.792 408.722Z" fill="url(#paint125_linear_43_1656)"/>
<path d="M455.571 147.883C454.471 145.827 455.278 143.257 457.307 142.18C459.362 141.079 461.93 141.862 463.006 143.918C464.106 145.974 463.299 148.544 461.269 149.621C459.24 150.698 456.647 149.939 455.571 147.883Z" fill="url(#paint126_linear_43_1656)"/>
<defs>
<linearGradient id="paint0_linear_43_1656" x1="126.647" y1="430.799" x2="16.024" y2="373.376" gradientUnits="userSpaceOnUse">
<stop stop-color="#1470D6"/>
<stop offset="1" stop-color="#CF1FBD"/>
</linearGradient>
<linearGradient id="paint1_linear_43_1656" x1="126.097" y1="430.799" x2="15.9913" y2="374.107" gradientUnits="userSpaceOnUse">
<stop stop-color="#1470D6"/>
<stop offset="1" stop-color="#CF1FBD"/>
</linearGradient>
<linearGradient id="paint2_linear_43_1656" x1="126.097" y1="430.799" x2="15.9913" y2="374.107" gradientUnits="userSpaceOnUse">
<stop stop-color="#1470D6"/>
<stop offset="1" stop-color="#CF1FBD"/>
</linearGradient>
<linearGradient id="paint3_linear_43_1656" x1="103.97" y1="430.799" x2="20.2625" y2="401.756" gradientUnits="userSpaceOnUse">
<stop stop-color="#1470D6"/>
<stop offset="1" stop-color="#CF1FBD"/>
</linearGradient>
<linearGradient id="paint4_linear_43_1656" x1="321.953" y1="430.799" x2="163.337" y2="247.859" gradientUnits="userSpaceOnUse">
<stop stop-color="#1470D6"/>
<stop offset="1" stop-color="#CF1FBD"/>
</linearGradient>
<linearGradient id="paint5_linear_43_1656" x1="319.707" y1="289.647" x2="314.57" y2="237.384" gradientUnits="userSpaceOnUse">
<stop stop-color="#1470D6"/>
<stop offset="1" stop-color="#CF1FBD"/>
</linearGradient>
<linearGradient id="paint6_linear_43_1656" x1="367.152" y1="430.799" x2="285.108" y2="408.133" gradientUnits="userSpaceOnUse">
<stop stop-color="#1470D6"/>
<stop offset="1" stop-color="#CF1FBD"/>
</linearGradient>
<linearGradient id="paint7_linear_43_1656" x1="324.537" y1="430.799" x2="206.214" y2="378.468" gradientUnits="userSpaceOnUse">
<stop stop-color="#1470D6"/>
<stop offset="1" stop-color="#CF1FBD"/>
</linearGradient>
<linearGradient id="paint8_linear_43_1656" x1="324.547" y1="430.799" x2="206.811" y2="379.109" gradientUnits="userSpaceOnUse">
<stop stop-color="#1470D6"/>
<stop offset="1" stop-color="#CF1FBD"/>
</linearGradient>
<linearGradient id="paint9_linear_43_1656" x1="324.547" y1="430.799" x2="206.811" y2="379.109" gradientUnits="userSpaceOnUse">
<stop stop-color="#1470D6"/>
<stop offset="1" stop-color="#CF1FBD"/>
</linearGradient>
<linearGradient id="paint10_linear_43_1656" x1="433.41" y1="430.799" x2="282.885" y2="325.177" gradientUnits="userSpaceOnUse">
<stop stop-color="#1470D6"/>
<stop offset="1" stop-color="#CF1FBD"/>
</linearGradient>
<linearGradient id="paint11_linear_43_1656" x1="493.398" y1="263.507" x2="401.102" y2="109.959" gradientUnits="userSpaceOnUse">
<stop stop-color="#1470D6"/>
<stop offset="1" stop-color="#CF1FBD"/>
</linearGradient>
<linearGradient id="paint12_linear_43_1656" x1="493.406" y1="263.629" x2="488.584" y2="223.01" gradientUnits="userSpaceOnUse">
<stop stop-color="#1470D6"/>
<stop offset="1" stop-color="#CF1FBD"/>
</linearGradient>
<linearGradient id="paint13_linear_43_1656" x1="494.985" y1="430.799" x2="398.752" y2="333.516" gradientUnits="userSpaceOnUse">
<stop stop-color="#1470D6"/>
<stop offset="1" stop-color="#CF1FBD"/>
</linearGradient>
<linearGradient id="paint14_linear_43_1656" x1="493.38" y1="200.212" x2="457.819" y2="94.5575" gradientUnits="userSpaceOnUse">
<stop stop-color="#1470D6"/>
<stop offset="1" stop-color="#CF1FBD"/>
</linearGradient>
<linearGradient id="paint15_linear_43_1656" x1="493.384" y1="140.002" x2="488.483" y2="98.93" gradientUnits="userSpaceOnUse">
<stop stop-color="#1470D6"/>
<stop offset="1" stop-color="#CF1FBD"/>
</linearGradient>
<linearGradient id="paint16_linear_43_1656" x1="326.016" y1="262.748" x2="320.294" y2="262.609" gradientUnits="userSpaceOnUse">
<stop stop-color="#1470D6"/>
<stop offset="1" stop-color="#CF1FBD"/>
</linearGradient>
<linearGradient id="paint17_linear_43_1656" x1="319.029" y1="289.549" x2="199.482" y2="66.355" gradientUnits="userSpaceOnUse">
<stop stop-color="#1470D6"/>
<stop offset="1" stop-color="#CF1FBD"/>
</linearGradient>
<linearGradient id="paint18_linear_43_1656" x1="369.74" y1="430.799" x2="276.71" y2="414.72" gradientUnits="userSpaceOnUse">
<stop stop-color="#1470D6"/>
<stop offset="1" stop-color="#CF1FBD"/>
</linearGradient>
<linearGradient id="paint19_linear_43_1656" x1="62.9638" y1="292.56" x2="55.7932" y2="284.947" gradientUnits="userSpaceOnUse">
<stop stop-color="#1470D6"/>
<stop offset="1" stop-color="#CF1FBD"/>
</linearGradient>
<linearGradient id="paint20_linear_43_1656" x1="62.9638" y1="292.56" x2="55.7932" y2="284.947" gradientUnits="userSpaceOnUse">
<stop stop-color="#1470D6"/>
<stop offset="1" stop-color="#CF1FBD"/>
</linearGradient>
<linearGradient id="paint21_linear_43_1656" x1="62.9638" y1="292.56" x2="55.7932" y2="284.947" gradientUnits="userSpaceOnUse">
<stop stop-color="#1470D6"/>
<stop offset="1" stop-color="#CF1FBD"/>
</linearGradient>
<linearGradient id="paint22_linear_43_1656" x1="62.9638" y1="292.56" x2="55.7932" y2="284.947" gradientUnits="userSpaceOnUse">
<stop stop-color="#1470D6"/>
<stop offset="1" stop-color="#CF1FBD"/>
</linearGradient>
<linearGradient id="paint23_linear_43_1656" x1="328.804" y1="266.542" x2="321.632" y2="258.952" gradientUnits="userSpaceOnUse">
<stop stop-color="#1470D6"/>
<stop offset="1" stop-color="#CF1FBD"/>
</linearGradient>
<linearGradient id="paint24_linear_43_1656" x1="62.9638" y1="292.56" x2="55.7932" y2="284.947" gradientUnits="userSpaceOnUse">
<stop stop-color="#1470D6"/>
<stop offset="1" stop-color="#CF1FBD"/>
</linearGradient>
<linearGradient id="paint25_linear_43_1656" x1="328.804" y1="266.542" x2="321.632" y2="258.952" gradientUnits="userSpaceOnUse">
<stop stop-color="#1470D6"/>
<stop offset="1" stop-color="#CF1FBD"/>
</linearGradient>
<linearGradient id="paint26_linear_43_1656" x1="328.804" y1="266.542" x2="321.632" y2="258.952" gradientUnits="userSpaceOnUse">
<stop stop-color="#1470D6"/>
<stop offset="1" stop-color="#CF1FBD"/>
</linearGradient>
<linearGradient id="paint27_linear_43_1656" x1="328.804" y1="266.542" x2="321.632" y2="258.952" gradientUnits="userSpaceOnUse">
<stop stop-color="#1470D6"/>
<stop offset="1" stop-color="#CF1FBD"/>
</linearGradient>
<linearGradient id="paint28_linear_43_1656" x1="328.804" y1="266.542" x2="321.632" y2="258.952" gradientUnits="userSpaceOnUse">
<stop stop-color="#1470D6"/>
<stop offset="1" stop-color="#CF1FBD"/>
</linearGradient>
<linearGradient id="paint29_linear_43_1656" x1="328.804" y1="266.542" x2="321.632" y2="258.952" gradientUnits="userSpaceOnUse">
<stop stop-color="#1470D6"/>
<stop offset="1" stop-color="#CF1FBD"/>
</linearGradient>
<linearGradient id="paint30_linear_43_1656" x1="328.804" y1="266.542" x2="321.632" y2="258.952" gradientUnits="userSpaceOnUse">
<stop stop-color="#1470D6"/>
<stop offset="1" stop-color="#CF1FBD"/>
</linearGradient>
<linearGradient id="paint31_linear_43_1656" x1="328.804" y1="266.542" x2="321.632" y2="258.952" gradientUnits="userSpaceOnUse">
<stop stop-color="#1470D6"/>
<stop offset="1" stop-color="#CF1FBD"/>
</linearGradient>
<linearGradient id="paint32_linear_43_1656" x1="328.804" y1="266.542" x2="321.632" y2="258.952" gradientUnits="userSpaceOnUse">
<stop stop-color="#1470D6"/>
<stop offset="1" stop-color="#CF1FBD"/>
</linearGradient>
<linearGradient id="paint33_linear_43_1656" x1="327.752" y1="142.915" x2="320.58" y2="135.325" gradientUnits="userSpaceOnUse">
<stop stop-color="#1470D6"/>
<stop offset="1" stop-color="#CF1FBD"/>
</linearGradient>
<linearGradient id="paint34_linear_43_1656" x1="327.752" y1="142.915" x2="320.58" y2="135.325" gradientUnits="userSpaceOnUse">
<stop stop-color="#1470D6"/>
<stop offset="1" stop-color="#CF1FBD"/>
</linearGradient>
<linearGradient id="paint35_linear_43_1656" x1="328.804" y1="266.542" x2="321.632" y2="258.952" gradientUnits="userSpaceOnUse">
<stop stop-color="#1470D6"/>
<stop offset="1" stop-color="#CF1FBD"/>
</linearGradient>
<linearGradient id="paint36_linear_43_1656" x1="327.752" y1="142.915" x2="320.58" y2="135.325" gradientUnits="userSpaceOnUse">
<stop stop-color="#1470D6"/>
<stop offset="1" stop-color="#CF1FBD"/>
</linearGradient>
<linearGradient id="paint37_linear_43_1656" x1="62.9638" y1="292.56" x2="55.7932" y2="284.947" gradientUnits="userSpaceOnUse">
<stop stop-color="#1470D6"/>
<stop offset="1" stop-color="#CF1FBD"/>
</linearGradient>
<linearGradient id="paint38_linear_43_1656" x1="327.752" y1="142.915" x2="320.58" y2="135.325" gradientUnits="userSpaceOnUse">
<stop stop-color="#1470D6"/>
<stop offset="1" stop-color="#CF1FBD"/>
</linearGradient>
<linearGradient id="paint39_linear_43_1656" x1="327.752" y1="142.915" x2="320.58" y2="135.325" gradientUnits="userSpaceOnUse">
<stop stop-color="#1470D6"/>
<stop offset="1" stop-color="#CF1FBD"/>
</linearGradient>
<linearGradient id="paint40_linear_43_1656" x1="409.796" y1="260.398" x2="368.856" y2="111.49" gradientUnits="userSpaceOnUse">
<stop stop-color="#1470D6"/>
<stop offset="1" stop-color="#CF1FBD"/>
</linearGradient>
<linearGradient id="paint41_linear_43_1656" x1="183.094" y1="430.799" x2="72.8965" y2="404.157" gradientUnits="userSpaceOnUse">
<stop stop-color="#1470D6"/>
<stop offset="1" stop-color="#CF1FBD"/>
</linearGradient>
<linearGradient id="paint42_linear_43_1656" x1="413.304" y1="430.799" x2="251.062" y2="286.249" gradientUnits="userSpaceOnUse">
<stop stop-color="#1470D6"/>
<stop offset="1" stop-color="#CF1FBD"/>
</linearGradient>
<linearGradient id="paint43_linear_43_1656" x1="495.296" y1="265.318" x2="494.28" y2="252.427" gradientUnits="userSpaceOnUse">
<stop stop-color="#1470D6"/>
<stop offset="1" stop-color="#CF1FBD"/>
</linearGradient>
<linearGradient id="paint44_linear_43_1656" x1="432.517" y1="430.799" x2="396.017" y2="426.655" gradientUnits="userSpaceOnUse">
<stop stop-color="#1470D6"/>
<stop offset="1" stop-color="#CF1FBD"/>
</linearGradient>
<linearGradient id="paint45_linear_43_1656" x1="447.186" y1="146.561" x2="357.255" y2="-52.059" gradientUnits="userSpaceOnUse">
<stop stop-color="#1470D6"/>
<stop offset="1" stop-color="#CF1FBD"/>
</linearGradient>
<linearGradient id="paint46_linear_43_1656" x1="446.26" y1="177.89" x2="332.703" y2="-70.7736" gradientUnits="userSpaceOnUse">
<stop stop-color="#1470D6"/>
<stop offset="1" stop-color="#CF1FBD"/>
</linearGradient>
<linearGradient id="paint47_linear_43_1656" x1="452.254" y1="145.925" x2="414.004" y2="139.614" gradientUnits="userSpaceOnUse">
<stop stop-color="#1470D6"/>
<stop offset="1" stop-color="#CF1FBD"/>
</linearGradient>
<linearGradient id="paint48_linear_43_1656" x1="452.799" y1="259.615" x2="376.318" y2="246.355" gradientUnits="userSpaceOnUse">
<stop stop-color="#1470D6"/>
<stop offset="1" stop-color="#CF1FBD"/>
</linearGradient>
<linearGradient id="paint49_linear_43_1656" x1="127.182" y1="430.799" x2="14.6289" y2="402.934" gradientUnits="userSpaceOnUse">
<stop stop-color="#1470D6"/>
<stop offset="1" stop-color="#CF1FBD"/>
</linearGradient>
<linearGradient id="paint50_linear_43_1656" x1="423.586" y1="430.799" x2="405.086" y2="429.745" gradientUnits="userSpaceOnUse">
<stop stop-color="#1470D6"/>
<stop offset="1" stop-color="#CF1FBD"/>
</linearGradient>
<linearGradient id="paint51_linear_43_1656" x1="495.289" y1="295.937" x2="469.533" y2="236.016" gradientUnits="userSpaceOnUse">
<stop stop-color="#1470D6"/>
<stop offset="1" stop-color="#CF1FBD"/>
</linearGradient>
<linearGradient id="paint52_linear_43_1656" x1="496.063" y1="46.7488" x2="474.005" y2="7.90017" gradientUnits="userSpaceOnUse">
<stop stop-color="#1470D6"/>
<stop offset="1" stop-color="#CF1FBD"/>
</linearGradient>
<linearGradient id="paint53_linear_43_1656" x1="495.282" y1="260.08" x2="398.395" y2="178.309" gradientUnits="userSpaceOnUse">
<stop stop-color="#1470D6"/>
<stop offset="1" stop-color="#CF1FBD"/>
</linearGradient>
<linearGradient id="paint54_linear_43_1656" x1="487.64" y1="430.799" x2="363.582" y2="373.578" gradientUnits="userSpaceOnUse">
<stop stop-color="#1470D6"/>
<stop offset="1" stop-color="#CF1FBD"/>
</linearGradient>
<linearGradient id="paint55_linear_43_1656" x1="419.542" y1="263.602" x2="411.682" y2="255.257" gradientUnits="userSpaceOnUse">
<stop stop-color="#1470D6"/>
<stop offset="1" stop-color="#CF1FBD"/>
</linearGradient>
<linearGradient id="paint56_linear_43_1656" x1="131.423" y1="181.16" x2="123.569" y2="172.816" gradientUnits="userSpaceOnUse">
<stop stop-color="#1470D6"/>
<stop offset="1" stop-color="#CF1FBD"/>
</linearGradient>
<linearGradient id="paint57_linear_43_1656" x1="131.423" y1="181.16" x2="123.569" y2="172.816" gradientUnits="userSpaceOnUse">
<stop stop-color="#1470D6"/>
<stop offset="1" stop-color="#CF1FBD"/>
</linearGradient>
<linearGradient id="paint58_linear_43_1656" x1="419.542" y1="263.602" x2="411.682" y2="255.257" gradientUnits="userSpaceOnUse">
<stop stop-color="#1470D6"/>
<stop offset="1" stop-color="#CF1FBD"/>
</linearGradient>
<linearGradient id="paint59_linear_43_1656" x1="419.542" y1="263.602" x2="411.682" y2="255.257" gradientUnits="userSpaceOnUse">
<stop stop-color="#1470D6"/>
<stop offset="1" stop-color="#CF1FBD"/>
</linearGradient>
<linearGradient id="paint60_linear_43_1656" x1="419.542" y1="263.602" x2="411.682" y2="255.257" gradientUnits="userSpaceOnUse">
<stop stop-color="#1470D6"/>
<stop offset="1" stop-color="#CF1FBD"/>
</linearGradient>
<linearGradient id="paint61_linear_43_1656" x1="131.423" y1="181.16" x2="123.569" y2="172.816" gradientUnits="userSpaceOnUse">
<stop stop-color="#1470D6"/>
<stop offset="1" stop-color="#CF1FBD"/>
</linearGradient>
<linearGradient id="paint62_linear_43_1656" x1="456.642" y1="24.6929" x2="448.782" y2="16.348" gradientUnits="userSpaceOnUse">
<stop stop-color="#1470D6"/>
<stop offset="1" stop-color="#CF1FBD"/>
</linearGradient>
<linearGradient id="paint63_linear_43_1656" x1="419.542" y1="263.602" x2="411.682" y2="255.257" gradientUnits="userSpaceOnUse">
<stop stop-color="#1470D6"/>
<stop offset="1" stop-color="#CF1FBD"/>
</linearGradient>
<linearGradient id="paint64_linear_43_1656" x1="456.642" y1="24.6929" x2="448.782" y2="16.348" gradientUnits="userSpaceOnUse">
<stop stop-color="#1470D6"/>
<stop offset="1" stop-color="#CF1FBD"/>
</linearGradient>
<linearGradient id="paint65_linear_43_1656" x1="131.423" y1="181.16" x2="123.569" y2="172.816" gradientUnits="userSpaceOnUse">
<stop stop-color="#1470D6"/>
<stop offset="1" stop-color="#CF1FBD"/>
</linearGradient>
<linearGradient id="paint66_linear_43_1656" x1="419.542" y1="263.602" x2="411.682" y2="255.257" gradientUnits="userSpaceOnUse">
<stop stop-color="#1470D6"/>
<stop offset="1" stop-color="#CF1FBD"/>
</linearGradient>
<linearGradient id="paint67_linear_43_1656" x1="419.542" y1="263.602" x2="411.682" y2="255.257" gradientUnits="userSpaceOnUse">
<stop stop-color="#1470D6"/>
<stop offset="1" stop-color="#CF1FBD"/>
</linearGradient>
<linearGradient id="paint68_linear_43_1656" x1="456.642" y1="24.6929" x2="448.782" y2="16.348" gradientUnits="userSpaceOnUse">
<stop stop-color="#1470D6"/>
<stop offset="1" stop-color="#CF1FBD"/>
</linearGradient>
<linearGradient id="paint69_linear_43_1656" x1="419.542" y1="263.602" x2="411.682" y2="255.257" gradientUnits="userSpaceOnUse">
<stop stop-color="#1470D6"/>
<stop offset="1" stop-color="#CF1FBD"/>
</linearGradient>
<linearGradient id="paint70_linear_43_1656" x1="419.542" y1="263.602" x2="411.682" y2="255.257" gradientUnits="userSpaceOnUse">
<stop stop-color="#1470D6"/>
<stop offset="1" stop-color="#CF1FBD"/>
</linearGradient>
<linearGradient id="paint71_linear_43_1656" x1="387.81" y1="430.799" x2="364.397" y2="408.75" gradientUnits="userSpaceOnUse">
<stop stop-color="#1470D6"/>
<stop offset="1" stop-color="#CF1FBD"/>
</linearGradient>
<linearGradient id="paint72_linear_43_1656" x1="426.648" y1="430.799" x2="406.131" y2="395.343" gradientUnits="userSpaceOnUse">
<stop stop-color="#1470D6"/>
<stop offset="1" stop-color="#CF1FBD"/>
</linearGradient>
<linearGradient id="paint73_linear_43_1656" x1="305.946" y1="145.974" x2="246.151" y2="126.265" gradientUnits="userSpaceOnUse">
<stop stop-color="#1470D6"/>
<stop offset="1" stop-color="#CF1FBD"/>
</linearGradient>
<linearGradient id="paint74_linear_43_1656" x1="386.046" y1="407.033" x2="176.159" y2="336.818" gradientUnits="userSpaceOnUse">
<stop stop-color="#1470D6"/>
<stop offset="1" stop-color="#CF1FBD"/>
</linearGradient>
<linearGradient id="paint75_linear_43_1656" x1="273.328" y1="146.537" x2="230.949" y2="137.226" gradientUnits="userSpaceOnUse">
<stop stop-color="#1470D6"/>
<stop offset="1" stop-color="#CF1FBD"/>
</linearGradient>
<linearGradient id="paint76_linear_43_1656" x1="273.088" y1="418.928" x2="118.893" y2="384.235" gradientUnits="userSpaceOnUse">
<stop stop-color="#1470D6"/>
<stop offset="1" stop-color="#CF1FBD"/>
</linearGradient>
<linearGradient id="paint77_linear_43_1656" x1="197.901" y1="430.799" x2="191.478" y2="428.859" gradientUnits="userSpaceOnUse">
<stop stop-color="#1470D6"/>
<stop offset="1" stop-color="#CF1FBD"/>
</linearGradient>
<linearGradient id="paint78_linear_43_1656" x1="383.566" y1="419.712" x2="381.757" y2="393.289" gradientUnits="userSpaceOnUse">
<stop stop-color="#1470D6"/>
<stop offset="1" stop-color="#CF1FBD"/>
</linearGradient>
<linearGradient id="paint79_linear_43_1656" x1="217.234" y1="430.799" x2="206.996" y2="411.69" gradientUnits="userSpaceOnUse">
<stop stop-color="#1470D6"/>
<stop offset="1" stop-color="#CF1FBD"/>
</linearGradient>
<linearGradient id="paint80_linear_43_1656" x1="398.552" y1="430.799" x2="379.307" y2="420.572" gradientUnits="userSpaceOnUse">
<stop stop-color="#1470D6"/>
<stop offset="1" stop-color="#CF1FBD"/>
</linearGradient>
<linearGradient id="paint81_linear_43_1656" x1="494.698" y1="407.523" x2="413.782" y2="300.594" gradientUnits="userSpaceOnUse">
<stop stop-color="#1470D6"/>
<stop offset="1" stop-color="#CF1FBD"/>
</linearGradient>
<linearGradient id="paint82_linear_43_1656" x1="195.886" y1="430.799" x2="183.924" y2="416.472" gradientUnits="userSpaceOnUse">
<stop stop-color="#1470D6"/>
<stop offset="1" stop-color="#CF1FBD"/>
</linearGradient>
<linearGradient id="paint83_linear_43_1656" x1="28.9974" y1="430.799" x2="-28.9883" y2="420.612" gradientUnits="userSpaceOnUse">
<stop stop-color="#1470D6"/>
<stop offset="1" stop-color="#CF1FBD"/>
</linearGradient>
<linearGradient id="paint84_linear_43_1656" x1="192.671" y1="419.418" x2="33.1239" y2="249.928" gradientUnits="userSpaceOnUse">
<stop stop-color="#1470D6"/>
<stop offset="1" stop-color="#CF1FBD"/>
</linearGradient>
<linearGradient id="paint85_linear_43_1656" x1="271.266" y1="144.285" x2="174.396" y2="25.1064" gradientUnits="userSpaceOnUse">
<stop stop-color="#1470D6"/>
<stop offset="1" stop-color="#CF1FBD"/>
</linearGradient>
<linearGradient id="paint86_linear_43_1656" x1="269.271" y1="252.591" x2="70.9259" y2="9.03952" gradientUnits="userSpaceOnUse">
<stop stop-color="#1470D6"/>
<stop offset="1" stop-color="#CF1FBD"/>
</linearGradient>
<linearGradient id="paint87_linear_43_1656" x1="380.381" y1="407.645" x2="275.882" y2="152.811" gradientUnits="userSpaceOnUse">
<stop stop-color="#1470D6"/>
<stop offset="1" stop-color="#CF1FBD"/>
</linearGradient>
<linearGradient id="paint88_linear_43_1656" x1="492.33" y1="41.0703" x2="479.224" y2="-34.6749" gradientUnits="userSpaceOnUse">
<stop stop-color="#1470D6"/>
<stop offset="1" stop-color="#CF1FBD"/>
</linearGradient>
<linearGradient id="paint89_linear_43_1656" x1="197.637" y1="430.799" x2="191.639" y2="429.124" gradientUnits="userSpaceOnUse">
<stop stop-color="#1470D6"/>
<stop offset="1" stop-color="#CF1FBD"/>
</linearGradient>
<linearGradient id="paint90_linear_43_1656" x1="388.149" y1="430.799" x2="368.518" y2="420.003" gradientUnits="userSpaceOnUse">
<stop stop-color="#1470D6"/>
<stop offset="1" stop-color="#CF1FBD"/>
</linearGradient>
<linearGradient id="paint91_linear_43_1656" x1="496.194" y1="146.415" x2="440.217" y2="111.43" gradientUnits="userSpaceOnUse">
<stop stop-color="#1470D6"/>
<stop offset="1" stop-color="#CF1FBD"/>
</linearGradient>
<linearGradient id="paint92_linear_43_1656" x1="496.206" y1="156.205" x2="490.645" y2="136.328" gradientUnits="userSpaceOnUse">
<stop stop-color="#1470D6"/>
<stop offset="1" stop-color="#CF1FBD"/>
</linearGradient>
<linearGradient id="paint93_linear_43_1656" x1="454.453" y1="419.418" x2="194.104" y2="151.861" gradientUnits="userSpaceOnUse">
<stop stop-color="#1470D6"/>
<stop offset="1" stop-color="#CF1FBD"/>
</linearGradient>
<linearGradient id="paint94_linear_43_1656" x1="455.879" y1="146.757" x2="370.231" y2="-11.04" gradientUnits="userSpaceOnUse">
<stop stop-color="#1470D6"/>
<stop offset="1" stop-color="#CF1FBD"/>
</linearGradient>
<linearGradient id="paint95_linear_43_1656" x1="458.702" y1="407.009" x2="322.225" y2="366.127" gradientUnits="userSpaceOnUse">
<stop stop-color="#1470D6"/>
<stop offset="1" stop-color="#CF1FBD"/>
</linearGradient>
<linearGradient id="paint96_linear_43_1656" x1="391.549" y1="410.959" x2="383.549" y2="402.465" gradientUnits="userSpaceOnUse">
<stop stop-color="#1470D6"/>
<stop offset="1" stop-color="#CF1FBD"/>
</linearGradient>
<linearGradient id="paint97_linear_43_1656" x1="391.549" y1="410.959" x2="383.549" y2="402.465" gradientUnits="userSpaceOnUse">
<stop stop-color="#1470D6"/>
<stop offset="1" stop-color="#CF1FBD"/>
</linearGradient>
<linearGradient id="paint98_linear_43_1656" x1="391.549" y1="410.959" x2="383.549" y2="402.465" gradientUnits="userSpaceOnUse">
<stop stop-color="#1470D6"/>
<stop offset="1" stop-color="#CF1FBD"/>
</linearGradient>
<linearGradient id="paint99_linear_43_1656" x1="277.828" y1="44.3003" x2="269.838" y2="35.8066" gradientUnits="userSpaceOnUse">
<stop stop-color="#1470D6"/>
<stop offset="1" stop-color="#CF1FBD"/>
</linearGradient>
<linearGradient id="paint100_linear_43_1656" x1="277.828" y1="44.3003" x2="269.838" y2="35.8066" gradientUnits="userSpaceOnUse">
<stop stop-color="#1470D6"/>
<stop offset="1" stop-color="#CF1FBD"/>
</linearGradient>
<linearGradient id="paint101_linear_43_1656" x1="199.514" y1="422.922" x2="191.519" y2="414.437" gradientUnits="userSpaceOnUse">
<stop stop-color="#1470D6"/>
<stop offset="1" stop-color="#CF1FBD"/>
</linearGradient>
<linearGradient id="paint102_linear_43_1656" x1="199.514" y1="422.922" x2="191.519" y2="414.437" gradientUnits="userSpaceOnUse">
<stop stop-color="#1470D6"/>
<stop offset="1" stop-color="#CF1FBD"/>
</linearGradient>
<linearGradient id="paint103_linear_43_1656" x1="391.549" y1="410.959" x2="383.549" y2="402.465" gradientUnits="userSpaceOnUse">
<stop stop-color="#1470D6"/>
<stop offset="1" stop-color="#CF1FBD"/>
</linearGradient>
<linearGradient id="paint104_linear_43_1656" x1="199.514" y1="422.922" x2="191.519" y2="414.437" gradientUnits="userSpaceOnUse">
<stop stop-color="#1470D6"/>
<stop offset="1" stop-color="#CF1FBD"/>
</linearGradient>
<linearGradient id="paint105_linear_43_1656" x1="199.514" y1="422.922" x2="191.519" y2="414.437" gradientUnits="userSpaceOnUse">
<stop stop-color="#1470D6"/>
<stop offset="1" stop-color="#CF1FBD"/>
</linearGradient>
<linearGradient id="paint106_linear_43_1656" x1="391.549" y1="410.959" x2="383.549" y2="402.465" gradientUnits="userSpaceOnUse">
<stop stop-color="#1470D6"/>
<stop offset="1" stop-color="#CF1FBD"/>
</linearGradient>
<linearGradient id="paint107_linear_43_1656" x1="391.549" y1="410.959" x2="383.549" y2="402.465" gradientUnits="userSpaceOnUse">
<stop stop-color="#1470D6"/>
<stop offset="1" stop-color="#CF1FBD"/>
</linearGradient>
<linearGradient id="paint108_linear_43_1656" x1="199.514" y1="422.922" x2="191.519" y2="414.437" gradientUnits="userSpaceOnUse">
<stop stop-color="#1470D6"/>
<stop offset="1" stop-color="#CF1FBD"/>
</linearGradient>
<linearGradient id="paint109_linear_43_1656" x1="32.6538" y1="256.052" x2="24.6529" y2="247.562" gradientUnits="userSpaceOnUse">
<stop stop-color="#1470D6"/>
<stop offset="1" stop-color="#CF1FBD"/>
</linearGradient>
<linearGradient id="paint110_linear_43_1656" x1="199.514" y1="422.922" x2="191.519" y2="414.437" gradientUnits="userSpaceOnUse">
<stop stop-color="#1470D6"/>
<stop offset="1" stop-color="#CF1FBD"/>
</linearGradient>
<linearGradient id="paint111_linear_43_1656" x1="32.6538" y1="256.052" x2="24.6529" y2="247.562" gradientUnits="userSpaceOnUse">
<stop stop-color="#1470D6"/>
<stop offset="1" stop-color="#CF1FBD"/>
</linearGradient>
<linearGradient id="paint112_linear_43_1656" x1="277.828" y1="44.3003" x2="269.838" y2="35.8066" gradientUnits="userSpaceOnUse">
<stop stop-color="#1470D6"/>
<stop offset="1" stop-color="#CF1FBD"/>
</linearGradient>
<linearGradient id="paint113_linear_43_1656" x1="32.6538" y1="256.052" x2="24.6529" y2="247.562" gradientUnits="userSpaceOnUse">
<stop stop-color="#1470D6"/>
<stop offset="1" stop-color="#CF1FBD"/>
</linearGradient>
<linearGradient id="paint114_linear_43_1656" x1="391.549" y1="410.959" x2="383.549" y2="402.465" gradientUnits="userSpaceOnUse">
<stop stop-color="#1470D6"/>
<stop offset="1" stop-color="#CF1FBD"/>
</linearGradient>
<linearGradient id="paint115_linear_43_1656" x1="32.6538" y1="256.052" x2="24.6529" y2="247.562" gradientUnits="userSpaceOnUse">
<stop stop-color="#1470D6"/>
<stop offset="1" stop-color="#CF1FBD"/>
</linearGradient>
<linearGradient id="paint116_linear_43_1656" x1="277.828" y1="44.3003" x2="269.838" y2="35.8066" gradientUnits="userSpaceOnUse">
<stop stop-color="#1470D6"/>
<stop offset="1" stop-color="#CF1FBD"/>
</linearGradient>
<linearGradient id="paint117_linear_43_1656" x1="199.514" y1="422.922" x2="191.519" y2="414.437" gradientUnits="userSpaceOnUse">
<stop stop-color="#1470D6"/>
<stop offset="1" stop-color="#CF1FBD"/>
</linearGradient>
<linearGradient id="paint118_linear_43_1656" x1="391.549" y1="410.959" x2="383.549" y2="402.465" gradientUnits="userSpaceOnUse">
<stop stop-color="#1470D6"/>
<stop offset="1" stop-color="#CF1FBD"/>
</linearGradient>
<linearGradient id="paint119_linear_43_1656" x1="463.324" y1="150.109" x2="455.333" y2="141.625" gradientUnits="userSpaceOnUse">
<stop stop-color="#1470D6"/>
<stop offset="1" stop-color="#CF1FBD"/>
</linearGradient>
<linearGradient id="paint120_linear_43_1656" x1="463.324" y1="150.109" x2="455.333" y2="141.625" gradientUnits="userSpaceOnUse">
<stop stop-color="#1470D6"/>
<stop offset="1" stop-color="#CF1FBD"/>
</linearGradient>
<linearGradient id="paint121_linear_43_1656" x1="199.514" y1="422.922" x2="191.519" y2="414.437" gradientUnits="userSpaceOnUse">
<stop stop-color="#1470D6"/>
<stop offset="1" stop-color="#CF1FBD"/>
</linearGradient>
<linearGradient id="paint122_linear_43_1656" x1="463.324" y1="150.109" x2="455.333" y2="141.625" gradientUnits="userSpaceOnUse">
<stop stop-color="#1470D6"/>
<stop offset="1" stop-color="#CF1FBD"/>
</linearGradient>
<linearGradient id="paint123_linear_43_1656" x1="277.828" y1="44.3003" x2="269.838" y2="35.8066" gradientUnits="userSpaceOnUse">
<stop stop-color="#1470D6"/>
<stop offset="1" stop-color="#CF1FBD"/>
</linearGradient>
<linearGradient id="paint124_linear_43_1656" x1="463.324" y1="150.109" x2="455.333" y2="141.625" gradientUnits="userSpaceOnUse">
<stop stop-color="#1470D6"/>
<stop offset="1" stop-color="#CF1FBD"/>
</linearGradient>
<linearGradient id="paint125_linear_43_1656" x1="391.549" y1="410.959" x2="383.549" y2="402.465" gradientUnits="userSpaceOnUse">
<stop stop-color="#1470D6"/>
<stop offset="1" stop-color="#CF1FBD"/>
</linearGradient>
<linearGradient id="paint126_linear_43_1656" x1="463.324" y1="150.109" x2="455.333" y2="141.625" gradientUnits="userSpaceOnUse">
<stop stop-color="#1470D6"/>
<stop offset="1" stop-color="#CF1FBD"/>
</linearGradient>
</defs>
</svg>
