<svg width="48" height="48" viewBox="0 0 48 48" fill="none" xmlns="http://www.w3.org/2000/svg">
<path d="M40.1446 35.214C40.1446 35.214 40.1446 35.2352 40.1235 35.214C39.5554 35.788 38.7805 36.1103 37.973 36.1081H37.6321L37.4405 36.0654C36.8662 35.9688 36.3289 35.7179 35.8863 35.3388C35.4433 34.9601 35.1125 34.4677 34.9284 33.9152L34.7795 33.4682C34.2471 33.3193 33.715 33.1916 33.1615 33.085L33.1611 33.0847C33.4362 32.3168 33.6709 31.5352 33.8639 30.7425L33.6382 30.0612H33.6508L32.6929 27.1871C32.6123 27.2216 32.5247 27.2365 32.4375 27.2298C32.2979 27.2324 32.1594 27.2031 32.0328 27.1444C31.7766 27.0304 31.572 26.8258 31.458 26.5697C31.3444 26.312 31.3444 26.0183 31.458 25.7606C31.572 25.5044 31.7766 25.2999 32.0328 25.1859L31.1387 22.5245C30.9557 21.9598 30.9304 21.356 31.0656 20.7783C31.2007 20.2006 31.4911 19.6704 31.905 19.2457C31.9626 19.1881 32.0328 19.1436 32.0944 19.0901C32.3654 18.8517 32.6751 18.6609 33.01 18.5257L33.0527 18.5131C33.3542 18.3995 33.6716 18.3342 33.9935 18.3193C34.0489 18.3193 34.1042 18.3022 34.1595 18.3022H34.1599C34.5074 18.3052 34.8519 18.3627 35.1816 18.4726L46.5087 22.2412V20.1333C46.5087 19.5686 46.2844 19.0269 45.8853 18.6278C45.4858 18.2286 44.9445 18.004 44.3797 18.004H43.2042C42.4639 15.6225 41.284 13.4004 39.7252 11.453L39.7059 11.4296H39.7063C37.1816 8.24763 33.7546 5.90267 29.8744 4.70229C25.9941 3.50191 21.8416 3.50191 17.9609 4.70229C14.081 5.90267 10.6536 8.24773 8.12896 11.4296V11.4422C6.56217 13.3929 5.37699 15.6211 4.63513 18.0106H3.45965C2.8953 18.0106 2.35356 18.2349 1.95445 18.634C1.55495 19.0335 1.33069 19.5749 1.33069 20.1396V27.9321C1.33069 28.4969 1.55495 29.0382 1.95445 29.4377C2.35358 29.8369 2.89529 30.0611 3.45965 30.0611H4.63513C5.36842 32.4218 6.5365 34.6243 8.07992 36.5549C10.546 39.6964 13.8898 42.034 17.6866 43.2711C21.4833 44.5082 25.5627 44.5888 29.4062 43.5032C33.2494 42.4171 36.6831 40.2136 39.2714 37.1724H39.2925C39.7396 36.6533 40.1521 36.1056 40.5274 35.5332L40.6551 35.3416C40.5389 35.2532 40.432 35.1533 40.3358 35.0434C40.2775 35.1058 40.2133 35.163 40.1442 35.2139L40.1446 35.214ZM31.8241 30.0617V30.0613C31.6043 30.9591 31.3254 31.8409 30.9894 32.7015C29.0031 32.3833 26.997 32.2054 24.9853 32.1691V30.0612L31.8241 30.0617ZM24.666 26.9102C24.3708 27.2236 23.9104 27.3175 23.5161 27.1445C23.1188 26.9811 22.8585 26.595 22.8563 26.165V21.9067V21.9071C22.8563 21.3189 23.3327 20.8422 23.9208 20.8422C24.5089 20.8422 24.9852 21.319 24.9852 21.9071V23.589L25.3045 23.2908C25.4987 23.0866 25.7683 22.9711 26.0497 22.9711C26.3315 22.9711 26.6011 23.0866 26.7949 23.2908L27.1142 23.589L27.1146 21.9071C27.1146 21.3189 27.5909 20.8422 28.179 20.8422C28.7668 20.8422 29.2435 21.319 29.2435 21.9071V26.1654V26.165C29.2412 26.5949 28.981 26.9811 28.5833 27.1445C28.4567 27.2032 28.3186 27.2325 28.179 27.2299C27.8964 27.2336 27.6258 27.1174 27.4338 26.9102L26.05 25.5476L24.666 26.9102ZM24.9853 6.94791C27.0908 8.7011 28.8222 10.8605 30.0761 13.2969C28.3886 13.5316 26.6888 13.6686 24.9853 13.7076V6.94791ZM22.8564 6.94791V13.7075C21.1537 13.6686 19.4547 13.5319 17.7679 13.2988C19.0203 10.8612 20.7509 8.70036 22.8564 6.94565V6.94791ZM22.8564 15.89V18.0189L16.0028 18.0193C16.2264 17.1174 16.5063 16.2304 16.8416 15.3642C18.8332 15.6682 20.8422 15.842 22.8564 15.8836L22.8564 15.89ZM15 27.1448C14.6023 26.9814 14.3421 26.5953 14.3398 26.1653V21.907V21.9074C14.3398 21.3192 14.8166 20.8425 15.4043 20.8425C15.9924 20.8425 16.4691 21.3193 16.4691 21.9074V23.5893L16.7884 23.2911C16.9826 23.0869 17.2518 22.9714 17.5336 22.9714C17.8154 22.9714 18.0846 23.0869 18.2788 23.2911L18.5981 23.5893V21.9074C18.5981 21.3192 19.0748 20.8425 19.6625 20.8425C20.2507 20.8425 20.727 21.3193 20.727 21.9074V26.1657V26.1653C20.7251 26.5953 20.4645 26.9814 20.0672 27.1448C19.9406 27.2035 19.8021 27.2328 19.6625 27.2302C19.3803 27.2339 19.1093 27.1177 18.9174 26.9105L17.5335 25.5479L16.1497 26.9105H16.1493C15.8556 27.2265 15.3938 27.3204 14.9998 27.1448L15 27.1448ZM22.8564 30.0617V32.1695C20.8377 32.2059 18.8246 32.3837 16.8307 32.7019C16.5003 31.8398 16.2237 30.9583 16.0028 30.0617L22.8564 30.0617ZM22.8564 34.2984V41.1353C20.7349 39.3672 18.9961 37.1852 17.7463 34.7224C19.4391 34.4737 21.1459 34.3322 22.8564 34.2988V34.2984ZM24.9853 41.1264V34.2988C26.6966 34.3214 28.4041 34.464 30.0954 34.7247C28.8463 37.1848 27.1076 39.3635 24.9853 41.1267V41.1264ZM24.9853 18.0113V15.882C26.9995 15.8378 29.0089 15.6611 31.0001 15.354C31.3358 16.2206 31.6157 17.1072 31.8389 18.0091L24.9853 18.0113ZM34.002 18.0113C33.7751 16.9776 33.4811 15.9599 33.1228 14.9645C34.9688 14.5847 36.7855 14.0734 38.5585 13.4337C39.5746 14.8353 40.3815 16.3773 40.9536 18.0113H34.002ZM37.0977 11.673V11.6726C35.5224 12.2066 33.9128 12.6335 32.2796 12.9502C31.11 10.4637 29.4901 8.21484 27.5018 6.31793C31.175 7.0735 34.5262 8.94329 37.098 11.6726L37.0977 11.673ZM20.3377 6.31612C18.3509 8.21454 16.7291 10.4619 15.5536 12.9462C13.9234 12.6291 12.3163 12.2025 10.7439 11.6686C13.3147 8.93967 16.6652 7.07062 20.3373 6.31621L20.3377 6.31612ZM9.28341 13.4337C11.0492 14.0716 12.8585 14.581 14.6979 14.9582C14.3378 15.9558 14.0426 16.9754 13.8142 18.0113H6.88827C7.46042 16.3773 8.26725 14.8353 9.28342 13.4337H9.28341ZM6.48354 27.1446C6.08626 26.9812 5.82562 26.5951 5.82376 26.1651V21.9068V21.9072C5.82376 21.3191 6.30012 20.8423 6.88822 20.8423C7.47597 20.8423 7.95268 21.3191 7.95268 21.9072V23.5891L8.27199 23.2909C8.46618 23.0867 8.73536 22.9713 9.01716 22.9713C9.29896 22.9713 9.56815 23.0867 9.76233 23.2909L10.0816 23.5891V21.9072C10.0816 21.3191 10.5584 20.8423 11.1465 20.8423C11.7342 20.8423 12.2109 21.3191 12.2109 21.9072V26.1655V26.1651C12.2087 26.5951 11.9484 26.9812 11.5508 27.1446C11.4242 27.2033 11.2857 27.2326 11.1465 27.23C10.8639 27.2337 10.5932 27.1175 10.4013 26.9103L9.01746 25.5477L7.63364 26.9103H7.63327C7.3392 27.2263 6.87733 27.3202 6.48336 27.1446L6.48354 27.1446ZM13.8142 30.0615C14.0411 31.0866 14.3318 32.0965 14.6849 33.0849C12.8459 33.4573 11.0381 33.9701 9.27706 34.618C8.27904 33.2212 7.49004 31.6863 6.93495 30.0615H13.8142ZM10.6992 36.3637C12.2779 35.8231 13.893 35.3961 15.5323 35.0865C16.7077 37.5852 18.3347 39.8452 20.3315 41.7526C16.639 41.0003 13.2722 39.1171 10.6992 36.3637ZM27.4973 41.7716L27.4976 41.7719C29.5063 39.8647 31.1385 37.5968 32.3095 35.0865C33.951 35.3962 35.5669 35.8302 37.1426 36.3853C34.5815 39.1599 31.2031 41.0464 27.4979 41.7719L27.4973 41.7716ZM46.6383 29.9759L46.6387 29.9763C46.6673 30.2878 46.5492 30.5945 46.3194 30.8065L43.4664 33.6595C43.2544 33.8897 42.9473 34.0074 42.6358 33.9792C42.3202 33.9532 42.0321 33.7898 41.8483 33.5318L41.8056 33.4679L40.89 32.1904L40.3364 31.424L39.804 32.1904L38.8461 33.5318C38.6404 33.8084 38.3178 33.9736 37.9732 33.9792C37.9157 33.9825 37.8577 33.9755 37.8028 33.9577C37.4074 33.9072 37.0762 33.6339 36.9514 33.2552L36.5894 32.1907L35.8869 30.0618L33.1617 21.8434H33.1613C33.0377 21.4624 33.1383 21.0447 33.4212 20.7614C33.7041 20.4785 34.1222 20.3783 34.5028 20.5019L45.9144 24.2916C46.1702 24.3815 46.383 24.5638 46.5107 24.8025C46.5683 24.9079 46.6047 25.0238 46.6173 25.1433C46.6589 25.3691 46.621 25.6022 46.5107 25.8035C46.4402 25.9513 46.3295 26.0767 46.1914 26.1651L44.0836 27.6766L46.1914 29.1881V29.1884C46.3188 29.2805 46.4272 29.396 46.5107 29.5293C46.5757 29.6711 46.6188 29.8218 46.6384 29.9763L46.6383 29.9759Z" fill="white"/>
</svg>
