<svg width="48" height="48" viewBox="0 0 48 48" fill="none" xmlns="http://www.w3.org/2000/svg">
<path d="M30.7786 9.80206V4.26666C29.0247 4.79255 27.4732 6.87322 26.4613 9.80206H30.7786Z" fill="white"/>
<path d="M25.2517 16.7356H30.7788V11.5436H25.9499C25.5571 13.1302 25.3112 14.8885 25.2517 16.7356H25.2517Z" fill="white"/>
<path d="M36.8364 9.80206C35.8245 6.87322 34.2736 4.79223 32.5204 4.26666V9.80206H36.8364Z" fill="white"/>
<path d="M25.9496 23.6689H30.7785V18.4772H25.2514C25.3109 20.3239 25.5568 22.0823 25.9496 23.6689H25.9496Z" fill="white"/>
<path d="M38.6826 9.80205H42.9242C41.2365 7.36928 38.7826 5.50916 35.9105 4.5705C37.0537 5.85682 38.0061 7.65172 38.6826 9.80205Z" fill="white"/>
<path d="M39.1526 11.5432C39.5154 13.1423 39.7375 14.89 39.7913 16.7352H45.3336C45.2163 14.8804 44.7327 13.1263 43.9509 11.5432H39.1526Z" fill="white"/>
<path d="M39.1526 23.6689H43.9509C44.7331 22.0859 45.2167 20.332 45.3336 18.4769H39.791C39.7375 20.3222 39.5155 22.0704 39.1527 23.6689H39.1526Z" fill="white"/>
<path d="M30.7786 30.9459V25.4102H26.4613C27.4732 28.3382 29.025 30.4197 30.7786 30.9459Z" fill="white"/>
<path d="M19.347 11.5432C18.566 13.1262 18.0815 14.8804 17.9657 16.7352H23.5082C23.5612 14.8903 23.7829 13.1424 24.1463 11.5432H19.347Z" fill="white"/>
<path d="M24.6147 25.4106H20.374C22.0614 27.8431 24.5148 29.7032 27.3874 30.6419C26.2445 29.3562 25.2922 27.5609 24.6147 25.4106Z" fill="white"/>
<path d="M23.5084 18.4774H17.9659C18.0822 20.3324 18.5668 22.0863 19.3471 23.6694H24.1462C23.7831 22.0706 23.5614 20.3223 23.5084 18.4774H23.5084Z" fill="white"/>
<path d="M38.6826 25.4106C38.0061 27.561 37.0537 29.3559 35.9105 30.6419C38.7825 29.7038 41.2364 27.8431 42.9242 25.4106H38.6826Z" fill="white"/>
<path d="M38.0471 18.4774H32.5206V23.6694H37.3492C37.7418 22.0825 37.9876 20.3241 38.0471 18.4774H38.0471Z" fill="white"/>
<path d="M32.5203 25.4106V30.946C34.2735 30.4192 35.8241 28.3386 36.8363 25.4106H32.5203Z" fill="white"/>
<path d="M37.3484 11.5432H32.5202V16.7352H38.0473C37.9871 14.8882 37.7413 13.1299 37.3484 11.5432H37.3484Z" fill="white"/>
<path d="M24.6147 9.80205C25.2921 7.65172 26.2445 5.85682 27.3871 4.5705C24.5148 5.50916 22.0612 7.36928 20.3737 9.80205H24.6147Z" fill="white"/>
<path d="M36.3054 32.2206V33.3726L6.47912 33.3724V11.8432H17.4361C17.9974 10.4605 18.7542 9.17828 19.6729 8.0307L6.12704 8.031C4.22404 8.031 2.66663 9.58871 2.66663 11.4917V35.0689C2.66663 36.9733 4.22404 38.5308 6.12704 38.5308H17.1427V40.8434L9.72186 40.8431V43.6755H33.0636V40.8431H25.6428V38.5308H36.6576C38.5615 38.5308 40.119 36.9734 40.119 35.0689V30.3903C38.9505 31.1663 37.6704 31.7858 36.3065 32.2201L36.3054 32.2206Z" fill="white"/>
</svg>
