<svg width="1920" height="994" viewBox="0 0 1920 994" fill="none" xmlns="http://www.w3.org/2000/svg">
<path d="M1920 985L1768.39 890.823C1710.79 855.044 1637.98 854.669 1580.01 889.851L1475.81 953.099C1425.29 983.766 1363.06 988.117 1308.76 964.78V964.78C1200.45 918.229 1163.86 782.852 1233.97 688.078L1248.78 668.065C1314.13 579.725 1284.17 453.815 1186.03 404.382L1176.11 399.384C1107.22 364.686 1024.01 375.89 967.935 428.855C929.363 465.291 892.508 500.755 863.776 528.606C827.558 563.713 777.167 580.213 727.256 572.92L668.472 564.329C524.637 543.309 463.828 369.216 563.297 263.213V263.213C619.222 203.614 608.417 108.097 540.591 62.4963L517.995 47.3044C457.014 6.30625 375.672 13.5201 322.859 64.6101L273.975 111.899C227.371 156.982 153.366 156.836 106.94 111.57L-0.000244141 7.30163" stroke="#3E2854" stroke-width="20"/>
</svg>
