<svg width="120" height="120" viewBox="0 0 120 120" fill="none" xmlns="http://www.w3.org/2000/svg">
<circle cx="60" cy="60" r="60" fill="#6B7280"/>
<path d="M43.9365 75.2537C43.9365 76.8076 45.2049 78.076 46.7654 78.076H49.9994V86.0713C49.9994 88.0967 51.6264 89.7502 53.6252 89.7502C55.6307 89.7502 57.251 88.1033 57.251 86.0713V78.0693H62.8955V86.0646C62.8955 88.09 64.5224 89.7435 66.5213 89.7435C68.5267 89.7435 70.147 88.0967 70.147 86.0646V78.0693H73.381C74.9416 78.0693 76.2099 76.801 76.2099 75.2471V49.0033H43.9365V75.2537ZM67.6502 35.4033L70.6318 31.0869C70.8045 30.8346 70.7646 30.4959 70.5322 30.3299C70.2998 30.1705 69.9678 30.2502 69.7951 30.5026L66.7006 34.9916C64.6619 34.1881 62.3908 33.7432 60.0068 33.7432C57.6228 33.7432 55.3517 34.1881 53.3131 34.9916L50.2185 30.5092C50.0459 30.2568 49.7139 30.1705 49.4814 30.3365C49.249 30.4959 49.2092 30.8279 49.3818 31.0936L52.3635 35.41C47.6221 37.6147 44.3018 41.7916 43.8768 46.6725H76.1502C75.7119 41.785 72.3849 37.608 67.6502 35.4033ZM53.1935 42.21C52.8402 42.21 52.4949 42.1052 52.2011 41.9089C51.9074 41.7126 51.6784 41.4336 51.5432 41.1072C51.408 40.7808 51.3726 40.4217 51.4415 40.0751C51.5105 39.7286 51.6806 39.4103 51.9304 39.1605C52.1802 38.9107 52.4985 38.7406 52.845 38.6716C53.1916 38.6027 53.5507 38.6381 53.8771 38.7733C54.2036 38.9085 54.4825 39.1374 54.6788 39.4312C54.8751 39.725 54.9799 40.0703 54.9799 40.4236C54.9786 40.897 54.79 41.3507 54.4553 41.6854C54.1206 42.0201 53.6669 42.2087 53.1935 42.21ZM67.0326 42.21C66.6793 42.21 66.3339 42.1052 66.0402 41.9089C65.7464 41.7126 65.5175 41.4336 65.3822 41.1072C65.247 40.7808 65.2117 40.4217 65.2806 40.0751C65.3495 39.7286 65.5197 39.4103 65.7695 39.1605C66.0193 38.9107 66.3376 38.7406 66.6841 38.6716C67.0306 38.6027 67.3898 38.6381 67.7162 38.7733C68.0426 38.9085 68.3216 39.1374 68.5179 39.4312C68.7142 39.725 68.8189 40.0703 68.8189 40.4236C68.8177 40.897 68.6291 41.3507 68.2944 41.6854C67.9596 42.0201 67.506 42.2087 67.0326 42.21ZM81.8677 48.8971C79.8623 48.8971 78.242 50.544 78.242 52.576V66.9463C78.242 68.9717 79.8689 70.6252 81.8677 70.6252C83.8732 70.6252 85.4935 68.9783 85.4935 66.9463V52.5693C85.5002 50.5373 83.8799 48.8971 81.8677 48.8971ZM38.1326 48.8971C36.1271 48.8971 34.5068 50.544 34.5068 52.576V66.9463C34.5068 68.9717 36.1338 70.6252 38.1326 70.6252C40.1381 70.6252 41.7584 68.9783 41.7584 66.9463V52.5693C41.7584 50.5373 40.1314 48.8971 38.1326 48.8971Z" fill="#7CB342"/>
</svg>
