<svg width="120" height="120" viewBox="0 0 120 120" fill="none" xmlns="http://www.w3.org/2000/svg">
<circle cx="60" cy="60" r="60" fill="#6B7280"/>
<path d="M59.9441 26.0094C59.9441 26.0094 79.9509 25.1151 90.5581 45.1468H58.2417C58.2417 45.1468 52.1429 44.951 46.9332 52.3209C45.4367 55.4142 43.8281 58.6007 45.6332 64.8805C43.0328 60.492 31.8274 41.0567 31.8274 41.0567C31.8274 41.0567 39.7311 26.8013 59.9438 26.0094H59.9441Z" fill="#EF3F36"/>
<path d="M89.5196 76.862C89.5196 76.862 80.2875 94.5737 57.5774 93.698C60.3835 88.8623 73.7401 65.8211 73.7401 65.8211C73.7401 65.8211 76.9672 60.6595 73.1603 52.4791C71.2239 49.6374 69.2503 46.6652 62.8902 45.0811C68.0066 45.0348 90.5019 45.0811 90.5019 45.0811C90.5019 45.0811 98.9291 59.0291 89.5196 76.862Z" fill="#FCD900"/>
<path d="M30.5086 77.0017C30.5086 77.0017 19.7239 60.1842 31.846 41.0283C34.6428 45.864 47.9994 68.9052 47.9994 68.9052C47.9994 68.9052 50.8804 74.2719 59.8878 75.0728C63.3207 74.8214 66.8936 74.6071 71.4584 69.9207C68.9418 74.3557 57.652 93.7352 57.652 93.7352C57.652 93.7352 41.3022 94.0334 30.5083 77.0017H30.5086Z" fill="#61BC5B"/>
<path d="M57.5681 93.866L62.1138 74.971C62.1138 74.971 67.1086 74.5794 71.2991 70.0049C68.6986 74.5611 57.5681 93.866 57.5681 93.866Z" fill="#5AB055"/>
<path d="M44.7166 60.1473C44.7166 51.818 51.498 45.063 59.8598 45.063C68.2217 45.063 75.0031 51.818 75.0031 60.1473C75.0031 68.477 68.2217 75.2317 59.8598 75.2317C51.498 75.2224 44.7166 68.477 44.7166 60.1473Z" fill="white"/>
<path d="M47.251 60.1473C47.251 53.2155 52.8913 47.5879 59.8597 47.5879C66.8185 47.5879 72.4681 53.2062 72.4681 60.1473C72.4681 67.0793 66.8281 72.7069 59.8597 72.7069C52.9006 72.7069 47.251 67.0793 47.251 60.1473Z" fill="url(#paint0_linear_120_11687)"/>
<path d="M90.4923 45.0906L71.7758 50.5597C71.7758 50.5597 68.9512 46.4321 62.8809 45.0906C68.1469 45.0625 90.4923 45.0906 90.4923 45.0906Z" fill="#EACA05"/>
<path d="M45.2686 64.1909C42.6399 59.6535 31.8274 41.0566 31.8274 41.0566L45.6893 54.7154C45.6893 54.7154 44.2674 57.6317 44.8008 61.8056L45.2683 64.1909H45.2686Z" fill="#DF3A32"/>
<defs>
<linearGradient id="paint0_linear_120_11687" x1="59.859" y1="47.7652" x2="59.859" y2="71.9508" gradientUnits="userSpaceOnUse">
<stop stop-color="#86BBE5"/>
<stop offset="1" stop-color="#1072BA"/>
</linearGradient>
</defs>
</svg>
