<svg width="120" height="120" viewBox="0 0 120 120" fill="none" xmlns="http://www.w3.org/2000/svg">
<circle cx="60" cy="60" r="60" fill="#6B7280"/>
<path d="M80.9314 32.3125C79.2314 34.237 78.4345 38.548 80.161 42.9359C81.8876 47.3238 84.5439 46.3744 86.1907 50.8393C88.3689 56.7412 87.3595 64.6702 87.3595 64.6702C87.3595 64.6702 89.9892 72.0091 91.822 64.2083C95.886 49.5563 80.9314 35.9306 80.9314 32.3125Z" fill="url(#paint0_radial_120_11700)"/>
<path d="M60.1067 93.1534C77.6114 93.1534 91.7692 79.3994 91.7692 62.4122C91.7692 45.4251 77.5848 31.6968 60.1067 31.6968C42.6286 31.6968 28.4707 45.4507 28.4707 62.4122C28.4442 79.3994 42.6286 93.1534 60.1067 93.1534Z" fill="url(#paint1_radial_120_11700)"/>
<path d="M83.8268 81.375C83.1361 81.8368 82.419 82.2474 81.6752 82.6323C82.658 81.221 83.5877 79.784 84.4111 78.2957C85.0752 77.5772 85.7127 76.8844 86.2174 76.1146C86.4565 75.7297 86.7486 75.2934 87.0408 74.7546C88.8205 71.6497 90.7861 66.6459 90.8393 61.5138V61.1289C90.8393 59.8459 90.7065 58.5372 90.4408 57.2799C90.4674 57.3825 90.4674 57.4851 90.494 57.5878C90.4674 57.5108 90.4674 57.4338 90.4408 57.3568C90.4674 57.4851 90.494 57.6391 90.5205 57.7674C90.8924 60.744 90.6268 63.6436 89.3252 65.7991C89.2986 65.8248 89.2721 65.8504 89.2721 65.9017C89.9361 62.6429 90.1752 59.0504 89.4315 55.458C89.4315 55.458 89.1393 53.7131 86.908 48.4014C85.633 45.3478 83.3486 42.8331 81.3565 41.0112C79.6033 38.907 77.983 37.4957 77.1064 36.5976C75.2736 34.7244 74.5033 33.3131 74.1846 32.4149C73.9189 32.2866 70.3861 28.9764 70.1205 28.8481C68.5799 31.1576 63.7721 38.3425 66.0565 45.0398C67.0924 48.0934 69.7221 51.2497 72.4846 53.0202C72.6174 53.1485 74.1315 54.7395 74.8486 58.3319C75.5924 62.0527 75.194 64.9266 73.6799 69.2119C71.8736 72.9583 67.2518 76.6791 62.9221 77.064C53.6783 77.8851 50.2783 72.5734 50.2783 72.5734C53.5721 73.8565 57.2377 73.5742 59.4689 72.2655C61.7002 70.9312 63.0549 69.9304 64.1705 70.3153C65.2596 70.7002 66.1096 69.5712 65.3393 68.3908C64.1174 66.5689 61.8861 65.6451 59.6814 66.0044C57.4502 66.3636 55.3783 68.0829 52.4564 66.4149C52.2705 66.3123 52.0846 66.184 51.8986 66.0557C51.7127 65.9274 52.5361 66.2353 52.3236 66.107C51.7658 65.7991 50.7299 65.1576 50.4908 64.9266C50.4377 64.8753 50.9424 65.0806 50.8893 65.0293C48.1533 62.8482 48.4986 61.3599 48.5783 60.4361C48.658 59.6919 49.1361 58.7425 49.9861 58.3576C50.3846 58.5629 50.6502 58.7425 50.6502 58.7425C50.6502 58.7425 50.4643 58.4089 50.3846 58.2293C50.4111 58.2036 50.4377 58.2293 50.4908 58.2036C50.8361 58.3576 51.5533 58.7682 51.9518 58.9991C52.4564 59.3327 52.6158 59.6406 52.6158 59.6406C52.6158 59.6406 52.7486 59.5636 52.6424 59.2814C52.6158 59.1531 52.4564 58.7682 51.9518 58.3832H51.9783C52.2705 58.5372 52.5627 58.7425 52.8283 58.9478C52.9611 58.4602 53.2268 57.947 53.1736 57.0233C53.1471 56.3817 53.1471 56.2021 53.0408 55.9455C52.9346 55.7402 53.0939 55.6376 53.2799 55.8685C53.2533 55.6889 53.2002 55.5093 53.1205 55.3553V55.3297C53.3596 54.5599 57.9814 52.5327 58.3268 52.3017C58.8846 51.9168 59.3361 51.4293 59.6814 50.8648C59.9471 50.4799 60.133 49.9153 60.1861 49.0685C60.2127 48.4527 59.9205 48.0421 55.2189 47.5802C53.9439 47.4519 53.1736 46.5538 52.7486 45.7327C52.6689 45.5531 52.5893 45.3991 52.5096 45.2195C52.4299 45.0399 52.3768 44.8346 52.3236 44.6293C53.0939 42.4995 54.3689 40.7032 56.2814 39.3432C56.3877 39.2406 55.8564 39.3689 55.9627 39.2663C56.0955 39.1636 56.8658 38.8557 57.0252 38.7787C57.2111 38.7017 56.2549 38.2912 55.4049 38.3938C54.5549 38.4964 54.3689 38.5991 53.8908 38.7787C54.0768 38.5991 54.6877 38.3425 54.5549 38.3681C53.6252 38.4964 52.483 39.0353 51.5002 39.6255C51.5002 39.5229 51.5268 39.4202 51.5533 39.3176C51.1018 39.4972 49.9596 40.267 49.6408 40.9085C49.6674 40.7802 49.6674 40.6519 49.6674 40.5236C49.3221 40.8059 49.0033 41.1138 48.7377 41.4731L48.5783 41.5244C45.9221 40.498 43.558 40.421 41.5924 40.8829C41.1674 40.4723 40.9549 40.7802 39.9455 38.6761C39.8658 38.5478 39.9986 38.8044 39.9455 38.6761C39.7861 38.2655 40.0518 39.2149 39.9455 38.6761C38.2986 39.9591 36.1205 41.3961 35.058 42.3968C35.058 42.4482 36.2799 42.0632 35.058 42.3968C34.633 42.5251 34.6596 42.7561 34.6064 44.9885C34.5799 45.1681 34.6064 45.3478 34.5799 45.5017C33.7299 46.5282 33.1721 47.4006 32.9596 47.8625C31.8705 49.6587 30.6752 52.4814 29.533 56.9206C30.0377 55.7146 30.6486 54.5599 31.3658 53.4565C30.4096 55.8172 29.4799 59.538 29.2939 65.2346C29.533 64.0542 29.8252 62.8995 30.1971 61.7448C29.958 66.4919 30.808 71.2134 32.6674 75.6014C33.3314 77.1667 34.4205 79.5531 36.3064 82.1704C42.2033 88.1493 50.4908 91.8701 59.6814 91.8701C69.2705 91.8701 77.9033 87.8157 83.8268 81.375Z" fill="url(#paint2_linear_120_11700)"/>
<path d="M76.7076 85.7116C88.3154 84.4029 93.4685 72.8557 86.8544 72.6248C80.9044 72.4452 71.2091 86.3274 76.7076 85.7116Z" fill="url(#paint3_radial_120_11700)"/>
<path d="M87.7047 70.2639C95.7 65.7734 93.6016 56.0737 93.6016 56.0737C93.6016 56.0737 90.5204 59.5379 88.4219 65.0549C86.3766 70.5205 82.8969 72.9839 87.7047 70.2639Z" fill="url(#paint4_radial_120_11700)"/>
<path d="M62.3371 91.4594C73.4934 94.8979 83.0559 86.4043 77.159 83.5817C71.7934 81.0413 57.0512 89.8428 62.3371 91.4594Z" fill="url(#paint5_radial_120_11700)"/>
<path d="M88.5545 74.3957C88.8201 74.0365 89.192 72.8561 89.5107 72.3172C91.4764 69.238 91.5029 66.8002 91.5029 66.7489C92.6982 61.0266 92.592 58.6659 91.8482 54.3549C91.2639 50.8651 88.6873 45.8614 86.456 43.4749C84.1717 40.9859 85.7654 41.807 83.5607 39.9851C81.6217 37.9066 79.7092 35.8281 78.6998 35.007C71.2623 29.0025 71.4217 27.7195 71.5811 27.5142L71.4748 27.6168C71.3951 27.2832 71.3154 27.001 71.3154 27.001C71.3154 27.001 67.2248 30.9014 66.3748 37.4448C65.817 41.7044 67.4639 46.1693 69.881 49.0176C71.1295 50.5059 72.5373 51.8402 74.0779 53.0206C75.8842 55.5353 76.8936 58.6402 76.8936 61.9761C76.8936 70.3414 69.8811 77.09 61.2217 77.09C60.0529 77.09 58.8576 76.9617 57.7154 76.7051C53.6248 75.961 51.2873 73.9595 50.092 72.5995C49.4279 71.8297 49.1357 71.2651 49.1357 71.2651C52.8014 72.5225 56.8389 72.2659 59.3092 70.9572C61.7795 69.6229 63.2935 68.6478 64.5154 69.0327C65.7107 69.4176 66.667 68.2885 65.817 67.1338C64.967 65.9791 62.7889 64.3112 59.5482 64.7731C57.0779 65.1323 54.7936 66.8259 51.5529 65.1836C51.3404 65.081 51.1279 64.9527 50.942 64.85C50.7295 64.7217 51.6326 65.0297 51.4201 64.9014C50.7826 64.5934 49.667 63.9519 49.3748 63.721C49.3217 63.6697 49.8529 63.8749 49.8264 63.8236C46.7982 61.6682 47.1701 60.2055 47.2498 59.2817C47.3295 58.5376 47.8873 57.6138 48.817 57.2289C49.2686 57.4342 49.5342 57.6138 49.5342 57.6138C49.5342 57.6138 49.3482 57.2802 49.242 57.1006C49.2686 57.0749 49.3217 57.1006 49.3482 57.0749C49.7201 57.2289 50.5436 57.6138 50.9686 57.8704C51.5264 58.204 51.7123 58.5119 51.7123 58.5119C51.7123 58.5119 51.8717 58.4349 51.7389 58.1527C51.6857 58.0244 51.5264 57.6395 50.9686 57.2546H50.9951C51.3139 57.4085 51.6326 57.6138 51.9248 57.8191C52.0842 57.3315 52.3498 56.8183 52.2967 55.8946C52.2701 55.2531 52.2701 55.0734 52.1373 54.8425C52.0311 54.6372 52.1904 54.5346 52.4029 54.7655C52.3764 54.5859 52.2967 54.4319 52.217 54.2523V54.2266C52.4826 53.4568 57.6092 51.4553 57.9811 51.2244C58.592 50.8651 59.0967 50.3776 59.4951 49.8131C59.7873 49.4282 59.9998 48.8636 60.0529 48.0168C60.0795 47.6319 59.9467 47.3497 58.592 47.0417C57.7686 46.8621 56.5201 46.7081 54.5545 46.5285C53.1467 46.4002 52.2967 45.5278 51.8186 44.7066C51.7389 44.527 51.6326 44.3731 51.5529 44.2191C51.4732 44.0395 51.3936 43.8342 51.3404 43.6546C52.1904 41.4991 53.7311 39.6772 55.7232 38.4198C55.8295 38.3172 55.2717 38.4455 55.3779 38.3429C55.5107 38.2402 56.3873 37.9323 56.5467 37.8553C56.7592 37.7783 55.6967 37.3934 54.7404 37.4704C53.7842 37.5731 53.5982 37.65 53.067 37.8553C53.2795 37.6757 53.9436 37.4448 53.7842 37.4448C52.8279 37.5474 51.5529 38.0606 50.4639 38.6508C50.4639 38.5481 50.4904 38.4455 50.517 38.3429C50.0123 38.5225 48.7639 39.2923 48.392 39.9338C48.4186 39.8055 48.4186 39.6772 48.4186 39.5746C48.0467 39.8568 47.6748 40.1648 47.3826 40.524L47.3561 40.5497C44.4076 39.5232 41.8045 39.4463 39.6264 39.9081C39.1482 39.4976 38.3779 38.8561 37.2889 36.7776C37.2092 36.6493 37.1826 37.0342 37.1295 36.9059C36.7045 35.9564 36.4389 34.3912 36.492 33.3134C36.492 33.3134 35.6154 33.6983 34.8982 35.3149C34.7654 35.5972 34.6857 35.7768 34.5795 35.9308C34.5264 35.9821 34.6592 35.3919 34.6592 35.4432C34.5264 35.6485 34.2076 35.9308 34.0748 36.3157C33.9686 36.598 33.8357 36.7519 33.7561 37.0855L33.7295 37.1112C33.7295 37.0085 33.7561 36.7006 33.7295 36.7519C33.3842 37.4191 33.092 38.1119 32.8529 38.8048C32.4545 40.0365 32.0029 41.73 31.9232 43.9368C31.8967 44.0908 31.9232 44.2961 31.8967 44.45C30.967 45.4764 30.3295 46.3489 30.0904 46.7851C28.8951 48.5814 27.567 51.3527 26.292 55.7663C26.8498 54.5602 27.5404 53.4055 28.3373 52.3278C27.2748 54.6629 26.2389 58.358 26.0264 64.0033C26.292 62.8229 26.6107 61.6682 27.0092 60.5391C26.8232 64.3112 27.2748 69.007 29.7451 74.2931C31.2061 77.398 34.5795 83.7104 42.8404 88.6372C42.8404 88.6372 45.6561 90.6644 50.4639 92.1783C50.8092 92.3066 51.1811 92.4349 51.5529 92.5376C51.4467 92.4863 51.3139 92.4349 51.2076 92.4093C54.4217 93.3331 57.742 93.8206 61.1154 93.8206C73.5998 93.8206 77.292 88.9708 77.292 88.9708L77.2654 88.9965C77.4514 88.8425 77.6107 88.6629 77.7701 88.5089C75.8045 90.3051 71.2889 90.4334 69.6154 90.3051C72.4842 89.484 74.3701 88.7912 78.0357 87.4568C78.4607 87.3029 78.9123 87.1232 79.3639 86.918L79.4967 86.841C79.5764 86.7897 79.6826 86.764 79.7623 86.7127C81.542 85.8916 83.242 84.8908 84.7826 83.6848C88.4748 80.8365 89.2717 78.0651 89.6967 76.2432C89.6435 76.4229 89.4576 76.8334 89.3248 77.09C88.3685 79.0402 86.2701 80.2719 83.9857 81.2983C85.0748 79.9127 86.0842 78.4757 87.0139 76.9874C87.7576 76.2689 87.9701 75.1399 88.5545 74.3957Z" fill="url(#paint6_radial_120_11700)"/>
<path d="M84.0652 81.1955C85.5793 79.6045 86.9074 77.757 87.9434 75.6785C90.573 70.3411 94.6371 61.437 91.4496 52.1736C88.9262 44.8347 85.4465 40.8317 81.0371 36.9057C73.8652 30.5419 71.873 27.6936 71.873 26C71.873 26 63.5855 34.9042 67.1715 44.2189C70.7574 53.5336 78.1152 53.1743 82.9762 62.874C88.7137 74.2928 78.3543 86.7638 69.7746 90.2536C70.3059 90.1509 88.8199 86.0966 89.8027 75.8581C89.7496 76.0377 89.3246 78.886 84.0652 81.1955Z" fill="url(#paint7_radial_120_11700)"/>
<path d="M60.0528 48.0168C60.0793 47.401 59.7606 47.0161 54.5809 46.5285C52.4559 46.3489 51.6325 44.45 51.3934 43.6289C50.6497 45.5278 50.3309 47.5293 50.4903 49.9414C50.5965 51.5323 51.7122 53.2259 52.2169 54.201C52.2169 54.201 52.3231 54.047 52.3762 53.9957C53.359 52.9949 57.5028 51.481 57.9012 51.2757C58.3528 51.0191 59.9997 49.8644 60.0528 48.0168Z" fill="url(#paint8_linear_120_11700)"/>
<path d="M37.2893 36.7771C37.2096 36.6488 37.183 37.0337 37.1299 36.9054C36.7049 35.956 36.4393 34.4164 36.519 33.313C36.519 33.313 35.6424 33.6979 34.9252 35.3145C34.7924 35.5968 34.7127 35.7764 34.6065 35.9303C34.5533 35.9817 34.6862 35.3915 34.6862 35.4428C34.5533 35.6481 34.2346 35.9303 34.1018 36.2896C33.9955 36.5719 33.8627 36.7515 33.783 37.1107C33.7565 37.2134 33.8096 36.6745 33.783 36.7515C32.083 39.9077 31.7643 44.6805 31.9502 44.4753C35.5627 40.7545 39.6799 39.882 39.6799 39.882C39.1752 39.5741 38.219 38.6503 37.2893 36.7771Z" fill="url(#paint9_linear_120_11700)"/>
<path d="M50.9417 75.6272C45.9746 73.5744 40.3167 70.6747 40.5292 64.1057C40.8214 55.4581 48.8964 57.1517 48.8964 57.1517C48.6042 57.2287 47.7808 57.7932 47.4886 58.3834C47.1964 59.1276 46.6386 60.8212 48.3121 62.5917C50.9683 65.3631 42.8667 69.1608 55.3511 76.3457C55.6699 76.4997 52.4292 76.243 50.9417 75.6272Z" fill="url(#paint10_linear_120_11700)"/>
<path d="M49.1893 71.3162C52.7221 72.4966 56.8127 72.2913 59.2831 70.9827C60.9299 70.0845 63.0549 68.6732 64.3299 69.0325C63.2143 68.5962 62.3643 68.391 61.3284 68.3653C61.1424 68.3653 60.9565 68.3653 60.7705 68.3396C60.3987 68.3396 60.0268 68.3653 59.6549 68.391C59.0174 68.4423 58.3268 68.8272 57.6893 68.7759C57.6627 68.7759 58.3002 68.5193 58.2471 68.5193C57.9018 68.5962 57.5299 68.5962 57.1581 68.6476C56.919 68.6732 56.7065 68.6989 56.4409 68.7245C49.0831 69.3147 42.894 64.8755 42.894 64.8755C42.3627 66.5691 45.2581 69.9819 49.1893 71.3162Z" fill="url(#paint11_linear_120_11700)"/>
<path d="M84.0388 81.2467C91.4763 74.1901 95.2217 65.6452 93.6279 56.0225C93.6279 56.0225 94.2654 60.9493 91.8482 65.9787C93.017 61.052 93.1498 54.9448 90.0685 48.6067C85.9779 40.1644 79.231 35.6995 76.6545 33.852C72.7498 31.0293 71.1295 28.181 71.1029 27.5908C69.9342 29.9003 66.4013 37.8037 70.731 44.6037C74.7685 50.9931 81.1435 52.8663 85.5795 58.7169C93.8138 69.5199 84.0388 81.2467 84.0388 81.2467Z" fill="url(#paint12_linear_120_11700)"/>
<path d="M82.9769 62.8998C80.3738 57.7164 77.1332 55.4582 74.0785 53.0205C74.4238 53.5081 74.5301 53.662 74.716 53.9956C77.4254 56.7669 81.3832 63.5413 78.5144 72.0605C73.0691 88.0726 51.341 80.5284 49.0566 78.4243C49.9863 87.6877 66.0301 92.1269 76.4957 86.1224C82.4191 80.6311 87.2269 71.3933 82.9769 62.8998Z" fill="url(#paint13_linear_120_11700)"/>
<defs>
<radialGradient id="paint0_radial_120_11700" cx="0" cy="0" r="1" gradientUnits="userSpaceOnUse" gradientTransform="translate(92.7362 46.9474) rotate(2.18361) scale(24.46 34.8318)">
<stop offset="0.1" stop-color="#FFEA00"/>
<stop offset="0.17" stop-color="#FFDE00"/>
<stop offset="0.28" stop-color="#FFBF00"/>
<stop offset="0.43" stop-color="#FF8E00"/>
<stop offset="0.77" stop-color="#FF272D"/>
<stop offset="0.87" stop-color="#E0255A"/>
<stop offset="0.95" stop-color="#CC2477"/>
<stop offset="1" stop-color="#C42482"/>
</radialGradient>
<radialGradient id="paint1_radial_120_11700" cx="0" cy="0" r="1" gradientUnits="userSpaceOnUse" gradientTransform="translate(70.5215 36.4891) scale(69.418 67.0604)">
<stop stop-color="#00CCDA"/>
<stop offset="0.22" stop-color="#0083FF"/>
<stop offset="0.26" stop-color="#007AF9"/>
<stop offset="0.33" stop-color="#005FE7"/>
<stop offset="0.44" stop-color="#2639AD"/>
<stop offset="0.52" stop-color="#401E84"/>
<stop offset="0.57" stop-color="#4A1475"/>
</radialGradient>
<linearGradient id="paint2_linear_120_11700" x1="64.5804" y1="76.2393" x2="51.7643" y2="32.8419" gradientUnits="userSpaceOnUse">
<stop stop-color="#000F43" stop-opacity="0.4"/>
<stop offset="0.48" stop-color="#001962" stop-opacity="0.17"/>
<stop offset="1" stop-color="#002079" stop-opacity="0"/>
</linearGradient>
<radialGradient id="paint3_radial_120_11700" cx="0" cy="0" r="1" gradientUnits="userSpaceOnUse" gradientTransform="translate(94.8778 71.1152) rotate(5.42781) scale(23.3284 22.5506)">
<stop stop-color="#FFEA00"/>
<stop offset="0.5" stop-color="#FF272D"/>
<stop offset="1" stop-color="#C42482"/>
</radialGradient>
<radialGradient id="paint4_radial_120_11700" cx="0" cy="0" r="1" gradientUnits="userSpaceOnUse" gradientTransform="translate(94.967 49.4033) rotate(5.42781) scale(38.9561 37.6572)">
<stop stop-color="#FFE900"/>
<stop offset="0.16" stop-color="#FFAF0E"/>
<stop offset="0.32" stop-color="#FF7A1B"/>
<stop offset="0.47" stop-color="#FF4E26"/>
<stop offset="0.62" stop-color="#FF2C2E"/>
<stop offset="0.76" stop-color="#FF1434"/>
<stop offset="0.89" stop-color="#FF0538"/>
<stop offset="1" stop-color="#FF0039"/>
</radialGradient>
<radialGradient id="paint5_radial_120_11700" cx="0" cy="0" r="1" gradientUnits="userSpaceOnUse" gradientTransform="translate(96.9163 84.6535) rotate(5.42781) scale(35.7464 34.5545)">
<stop stop-color="#FF272D"/>
<stop offset="0.5" stop-color="#C42482"/>
<stop offset="0.99" stop-color="#620700"/>
</radialGradient>
<radialGradient id="paint6_radial_120_11700" cx="0" cy="0" r="1" gradientUnits="userSpaceOnUse" gradientTransform="translate(77.0124 53.1505) scale(55.7909 53.8961)">
<stop offset="0.16" stop-color="#FFEA00"/>
<stop offset="0.23" stop-color="#FFDE00"/>
<stop offset="0.37" stop-color="#FFBF00"/>
<stop offset="0.54" stop-color="#FF8E00"/>
<stop offset="0.76" stop-color="#FF272D"/>
<stop offset="0.8" stop-color="#F92433"/>
<stop offset="0.84" stop-color="#E91C45"/>
<stop offset="0.89" stop-color="#CF0E62"/>
<stop offset="0.94" stop-color="#B5007F"/>
</radialGradient>
<radialGradient id="paint7_radial_120_11700" cx="0" cy="0" r="1" gradientUnits="userSpaceOnUse" gradientTransform="translate(73.8133 28.1549) scale(63.5849 61.4254)">
<stop offset="0.28" stop-color="#FFEA00"/>
<stop offset="0.4" stop-color="#FFDD00"/>
<stop offset="0.63" stop-color="#FFBA00"/>
<stop offset="0.86" stop-color="#FF9100"/>
<stop offset="0.93" stop-color="#FF6711"/>
<stop offset="0.99" stop-color="#FF4A1D"/>
</radialGradient>
<linearGradient id="paint8_linear_120_11700" x1="36.597" y1="51.1587" x2="63.9395" y2="46.8364" gradientUnits="userSpaceOnUse">
<stop stop-color="#C42482" stop-opacity="0.5"/>
<stop offset="0.47" stop-color="#FF272D" stop-opacity="0.5"/>
<stop offset="0.49" stop-color="#FF2C2C" stop-opacity="0.51"/>
<stop offset="0.68" stop-color="#FF7A1A" stop-opacity="0.72"/>
<stop offset="0.83" stop-color="#FFB20D" stop-opacity="0.87"/>
<stop offset="0.94" stop-color="#FFD605" stop-opacity="0.96"/>
<stop offset="1" stop-color="#FFE302"/>
</linearGradient>
<linearGradient id="paint9_linear_120_11700" x1="36.3913" y1="44.2202" x2="33.7133" y2="34.2565" gradientUnits="userSpaceOnUse">
<stop stop-color="#891551" stop-opacity="0.6"/>
<stop offset="1" stop-color="#C42482" stop-opacity="0"/>
</linearGradient>
<linearGradient id="paint10_linear_120_11700" x1="41.604" y1="58.1544" x2="47.2211" y2="66.2774" gradientUnits="userSpaceOnUse">
<stop offset="0.01" stop-color="#891551" stop-opacity="0.5"/>
<stop offset="0.48" stop-color="#FF272D" stop-opacity="0.5"/>
<stop offset="1" stop-color="#FF272D" stop-opacity="0"/>
</linearGradient>
<linearGradient id="paint11_linear_120_11700" x1="53.0688" y1="71.9762" x2="53.5716" y2="66.8718" gradientUnits="userSpaceOnUse">
<stop stop-color="#C42482"/>
<stop offset="0.08" stop-color="#C42482" stop-opacity="0.81"/>
<stop offset="0.21" stop-color="#C42482" stop-opacity="0.57"/>
<stop offset="0.33" stop-color="#C42482" stop-opacity="0.36"/>
<stop offset="0.45" stop-color="#C42482" stop-opacity="0.2"/>
<stop offset="0.56" stop-color="#C42482" stop-opacity="0.09"/>
<stop offset="0.67" stop-color="#C42482" stop-opacity="0.02"/>
<stop offset="0.77" stop-color="#C42482" stop-opacity="0"/>
</linearGradient>
<linearGradient id="paint12_linear_120_11700" x1="70.2505" y1="28.4925" x2="90.8252" y2="76.1175" gradientUnits="userSpaceOnUse">
<stop stop-color="#FFF14F"/>
<stop offset="0.27" stop-color="#FFEE4C"/>
<stop offset="0.45" stop-color="#FFE643"/>
<stop offset="0.61" stop-color="#FFD834"/>
<stop offset="0.76" stop-color="#FFC41E"/>
<stop offset="0.89" stop-color="#FFAB02"/>
<stop offset="0.9" stop-color="#FFA900"/>
<stop offset="0.95" stop-color="#FFA000"/>
<stop offset="1" stop-color="#FF9100"/>
</linearGradient>
<linearGradient id="paint13_linear_120_11700" x1="74.58" y1="55.5799" x2="64.8638" y2="82.5859" gradientUnits="userSpaceOnUse">
<stop stop-color="#FF8E00"/>
<stop offset="0.04" stop-color="#FF8E00" stop-opacity="0.86"/>
<stop offset="0.08" stop-color="#FF8E00" stop-opacity="0.73"/>
<stop offset="0.13" stop-color="#FF8E00" stop-opacity="0.63"/>
<stop offset="0.18" stop-color="#FF8E00" stop-opacity="0.56"/>
<stop offset="0.23" stop-color="#FF8E00" stop-opacity="0.51"/>
<stop offset="0.28" stop-color="#FF8E00" stop-opacity="0.5"/>
<stop offset="0.39" stop-color="#FF8E00" stop-opacity="0.48"/>
<stop offset="0.52" stop-color="#FF8E00" stop-opacity="0.42"/>
<stop offset="0.68" stop-color="#FF8E00" stop-opacity="0.31"/>
<stop offset="0.84" stop-color="#FF8E00" stop-opacity="0.17"/>
<stop offset="1" stop-color="#FF8E00" stop-opacity="0"/>
</linearGradient>
</defs>
</svg>
