<svg width="120" height="120" viewBox="0 0 120 120" fill="none" xmlns="http://www.w3.org/2000/svg">
<circle cx="60" cy="60" r="60" fill="#6B7280"/>
<path d="M75.632 61.5738C75.6055 57.0449 77.6574 53.6316 81.8012 51.1148C79.4836 47.7945 75.9773 45.9684 71.3555 45.6164C66.9793 45.2711 62.1914 48.1664 60.4383 48.1664C58.5855 48.1664 54.3488 45.7359 51.0152 45.7359C44.1355 45.8422 36.8242 51.2211 36.8242 62.1648C36.8242 65.3988 37.4152 68.7391 38.5973 72.1789C40.1777 76.7078 45.8754 87.8043 51.8187 87.625C54.9266 87.552 57.1246 85.4203 61.1687 85.4203C65.0934 85.4203 67.1254 87.625 70.5918 87.625C76.5883 87.5387 81.7414 77.4516 83.2422 72.9094C75.2004 69.1176 75.632 61.8063 75.632 61.5738ZM68.6527 41.3199C72.0195 37.3223 71.7141 33.6832 71.6145 32.375C68.6395 32.5477 65.1996 34.4004 63.2406 36.6781C61.0824 39.1219 59.8141 42.1434 60.0863 45.55C63.3004 45.7957 66.2355 44.1422 68.6527 41.3199Z" fill="white"/>
</svg>
