<svg width="38" height="38" viewBox="0 0 38 38" fill="none" xmlns="http://www.w3.org/2000/svg">
<path opacity="0.6" fill-rule="evenodd" clip-rule="evenodd" d="M19 37C28.9411 37 37 28.9411 37 19C37 9.05887 28.9411 1 19 1C9.05887 1 1 9.05887 1 19C1 28.9411 9.05887 37 19 37Z" stroke="#BEBEBE"/>
<path d="M14.322 15.7982C15.1276 15.7982 15.7807 15.1451 15.7807 14.3395C15.7807 13.5339 15.1276 12.8809 14.322 12.8809C13.5164 12.8809 12.8633 13.5339 12.8633 14.3395C12.8633 15.1451 13.5164 15.7982 14.322 15.7982Z" fill="white"/>
<path d="M17.1581 16.9031V24.9958H19.6708V20.9938C19.6708 19.9378 19.8695 18.9151 21.1788 18.9151C22.4701 18.9151 22.4861 20.1225 22.4861 21.0605V24.9965H25.0001V20.5585C25.0001 18.3785 24.5308 16.7031 21.9828 16.7031C20.7595 16.7031 19.9395 17.3745 19.6041 18.0098H19.5701V16.9031H17.1581ZM13.0635 16.9031H15.5801V24.9958H13.0635V16.9031Z" fill="white"/>
</svg>
