<svg width="120" height="120" viewBox="0 0 120 120" fill="none" xmlns="http://www.w3.org/2000/svg">
<circle cx="60" cy="60" r="60" fill="#6B7280"/>
<path d="M39.5143 62.1709H29.1567C28.5169 62.1709 27.9424 62.7464 27.9424 63.3866V81.4163C27.9424 82.0551 28.5169 82.6306 29.1567 82.6306H39.5143C40.2183 82.6306 40.729 82.0551 40.729 81.4163V63.3866C40.729 62.6825 40.1545 62.1709 39.5143 62.1709ZM34.208 81.5435C33.9526 81.5435 33.6959 81.3515 33.6959 81.0314C33.6959 80.7761 33.8888 80.5207 34.208 80.5207C34.5281 80.5207 34.72 80.7122 34.72 81.0314C34.72 81.3515 34.5281 81.5435 34.208 81.5435ZM39.4508 79.4332H29.2209V64.0892H39.4508V79.4332Z" fill="#E4E4E4"/>
<path d="M35.6299 41.2796V41.1648C35.6299 40.5327 36.1437 40.018 36.7763 40.018H78.6345C79.2667 40.018 79.7819 40.5327 79.7819 41.1648V51.2702H82.3711V41.1648C82.3711 39.1046 80.6957 37.4287 78.6341 37.4287H36.7758C34.7156 37.4287 33.04 39.1055 33.04 41.1648V59.5819H35.6293L35.6299 41.2796Z" fill="#E4E4E4"/>
<path d="M89.9605 53.8604H74.1033C73.0172 53.8604 72.1221 54.7559 72.1221 55.8425V80.6505C72.1221 81.7367 73.0167 82.6318 74.1033 82.6318H89.9605C91.048 82.6318 91.9431 81.7371 91.9431 80.6505V55.8425C91.9431 54.7559 91.0485 53.8604 89.9605 53.8604ZM82.0962 81.4169C81.8404 81.4169 81.5855 81.2241 81.5855 80.9049C81.5855 80.65 81.777 80.3937 82.0962 80.3937C82.352 80.3937 82.6083 80.5857 82.6083 80.9049C82.6083 81.1607 82.3529 81.4169 82.0962 81.4169ZM89.8324 78.7954H74.0392V56.4183H89.8324V78.7954Z" fill="#E4E4E4"/>
<path d="M64.2914 72.9824H51.1177L49.6346 77.2012H44.5538C43.8842 77.2012 43.3418 77.744 43.3418 78.4132C43.3418 79.0828 43.8847 79.6251 44.5538 79.6251H69.5332V77.2015H65.7752L64.2914 72.9824Z" fill="#E4E4E4"/>
<path d="M43.3195 63.3868V71.2645H69.5321V63.2427H43.3047C43.3065 63.2913 43.3194 63.3369 43.3194 63.3869L43.3195 63.3868ZM57.5858 65.7596C58.4099 65.7596 59.0791 66.4283 59.0791 67.2529C59.0791 68.077 58.4103 68.7453 57.5858 68.7453C56.7617 68.7453 56.0934 68.077 56.0934 67.2529C56.0934 66.4287 56.7617 65.7596 57.5858 65.7596Z" fill="#E4E4E4"/>
</svg>
