<svg width="68" height="68" viewBox="0 0 68 68" fill="none" xmlns="http://www.w3.org/2000/svg">
<path d="M13.5143 36.1709H3.15667C2.51693 36.1709 1.94238 36.7463 1.94238 37.3865V55.4162C1.94238 56.0551 2.51693 56.6305 3.15667 56.6305H13.5143C14.2183 56.6305 14.729 56.0551 14.729 55.4162V37.3865C14.729 36.6825 14.1545 36.1709 13.5143 36.1709ZM8.20798 55.5434C7.95262 55.5434 7.69592 55.3515 7.69592 55.0314C7.69592 54.776 7.88878 54.5207 8.20798 54.5207C8.52807 54.5207 8.72004 54.7122 8.72004 55.0314C8.72004 55.3515 8.52807 55.5434 8.20798 55.5434ZM13.4508 53.4332H3.2209V38.0892H13.4508V53.4332Z" fill="#E4E4E4"/>
<path d="M9.62987 15.2794V15.1647C9.62987 14.5326 10.1437 14.0178 10.7763 14.0178H52.6345C53.2667 14.0178 53.7819 14.5326 53.7819 15.1647V25.2701H56.3711V15.1647C56.3711 13.1045 54.6957 11.4286 52.6341 11.4286H10.7758C8.71558 11.4286 7.04004 13.1054 7.04004 15.1647V33.5818H9.6293L9.62987 15.2794Z" fill="#E4E4E4"/>
<path d="M63.9605 27.86H48.1033C47.0172 27.86 46.1221 28.7555 46.1221 29.8422V54.6502C46.1221 55.7363 47.0167 56.6314 48.1033 56.6314H63.9605C65.048 56.6314 65.9431 55.7368 65.9431 54.6502V29.8422C65.9431 28.7556 65.0485 27.86 63.9605 27.86ZM56.0962 55.4166C55.8404 55.4166 55.5855 55.2237 55.5855 54.9045C55.5855 54.6496 55.777 54.3934 56.0962 54.3934C56.352 54.3934 56.6083 54.5853 56.6083 54.9045C56.6083 55.1603 56.3529 55.4166 56.0962 55.4166ZM63.8324 52.7951H48.0392V30.418H63.8324V52.7951Z" fill="#E4E4E4"/>
<path d="M38.2914 46.9823H25.1177L23.6346 51.2011H18.5538C17.8842 51.2011 17.3418 51.7439 17.3418 52.4131C17.3418 53.0827 17.8847 53.6251 18.5538 53.6251H43.5332V51.2014H39.7752L38.2914 46.9823Z" fill="#E4E4E4"/>
<path d="M17.3195 37.3869V45.2646H43.5321V37.2427H17.3047C17.3065 37.2914 17.3194 37.3369 17.3194 37.3869L17.3195 37.3869ZM31.5858 39.7597C32.4099 39.7597 33.0791 40.4284 33.0791 41.2529C33.0791 42.077 32.4103 42.7454 31.5858 42.7454C30.7617 42.7454 30.0934 42.0771 30.0934 41.2529C30.0934 40.4288 30.7617 39.7597 31.5858 39.7597Z" fill="#E4E4E4"/>
</svg>
