<svg width="38" height="38" viewBox="0 0 38 38" fill="none" xmlns="http://www.w3.org/2000/svg">
<path opacity="0.6" fill-rule="evenodd" clip-rule="evenodd" d="M19 37C28.9411 37 37 28.9411 37 19C37 9.05887 28.9411 1 19 1C9.05887 1 1 9.05887 1 19C1 28.9411 9.05887 37 19 37Z" stroke="#BEBEBE"/>
<path d="M27.125 13.9668C26.5273 14.2246 25.8769 14.4102 25.207 14.4824C25.9025 14.0692 26.4234 13.4164 26.6719 12.6465C26.0192 13.0348 25.3042 13.307 24.5586 13.4512C24.2469 13.118 23.87 12.8526 23.4514 12.6715C23.0327 12.4904 22.5812 12.3974 22.125 12.3984C20.2793 12.3984 18.7949 13.8945 18.7949 15.7305C18.7949 15.9883 18.8262 16.2461 18.8769 16.4942C16.1133 16.3496 13.6484 15.0293 12.0098 13.0078C11.7112 13.5178 11.5547 14.0985 11.5566 14.6895C11.5566 15.8457 12.1445 16.8652 13.041 17.4649C12.5127 17.4441 11.9968 17.2988 11.5352 17.041V17.082C11.5352 18.7012 12.6797 20.043 14.2051 20.3516C13.9187 20.426 13.624 20.464 13.3281 20.4649C13.1113 20.4649 12.9062 20.4434 12.6992 20.4141C13.1211 21.7344 14.3496 22.6934 15.8125 22.7246C14.668 23.6211 13.2344 24.1485 11.6777 24.1485C11.3984 24.1485 11.1406 24.1387 10.873 24.1074C12.3496 25.0547 14.1016 25.6016 15.9883 25.6016C22.1133 25.6016 25.4648 20.5274 25.4648 16.1231C25.4648 15.9785 25.4648 15.834 25.4551 15.6895C26.1035 15.2149 26.6719 14.627 27.125 13.9668Z" fill="white"/>
</svg>
