<svg width="20" height="20" viewBox="0 0 20 20" fill="none" xmlns="http://www.w3.org/2000/svg">
<path d="M15.0335 11.2918C14.6835 11.6335 14.4835 12.1252 14.5335 12.6502C14.6085 13.5502 15.4335 14.2085 16.3335 14.2085H17.9168V15.2002C17.9168 16.9252 16.5085 18.3335 14.7835 18.3335H5.21683C3.49183 18.3335 2.0835 16.9252 2.0835 15.2002V9.59184C2.0835 7.86684 3.49183 6.4585 5.21683 6.4585H14.7835C16.5085 6.4585 17.9168 7.86684 17.9168 9.59184V10.7918H16.2335C15.7668 10.7918 15.3418 10.9752 15.0335 11.2918Z" stroke="white" stroke-width="1.5" stroke-linecap="round" stroke-linejoin="round"/>
<path d="M2.0835 10.3416V6.5333C2.0835 5.54163 2.69183 4.65826 3.61683 4.30826L10.2335 1.80826C11.2668 1.41659 12.3752 2.18329 12.3752 3.29162V6.45828" stroke="white" stroke-width="1.5" stroke-linecap="round" stroke-linejoin="round"/>
<path d="M18.7992 11.642V13.3587C18.7992 13.817 18.4325 14.192 17.9658 14.2086H16.3325C15.4325 14.2086 14.6075 13.5503 14.5325 12.6503C14.4825 12.1253 14.6825 11.6336 15.0325 11.292C15.3408 10.9753 15.7658 10.792 16.2325 10.792H17.9658C18.4325 10.8087 18.7992 11.1836 18.7992 11.642Z" stroke="white" stroke-width="1.5" stroke-linecap="round" stroke-linejoin="round"/>
<path d="M5.8335 10H11.6668" stroke="white" stroke-width="1.5" stroke-linecap="round" stroke-linejoin="round"/>
</svg>
