<svg width="138" height="138" viewBox="0 0 138 138" fill="none" xmlns="http://www.w3.org/2000/svg">
<path d="M138 103.5C138 107.566 136.385 111.467 133.509 114.342C130.633 117.218 126.733 118.833 122.667 118.833H15.3333C11.2667 118.833 7.36659 117.218 4.49103 114.342C1.61547 111.467 0 107.566 0 103.5V34.4998C0 30.4332 1.61547 26.5331 4.49103 23.6575C7.36659 20.782 11.2667 19.1665 15.3333 19.1665H122.667C126.733 19.1665 130.633 20.782 133.509 23.6575C136.385 26.5331 138 30.4332 138 34.4998V103.5Z" fill="#DE2910"/>
<path d="M42.688 34.4119L45.5094 35.7766L47.7672 33.6069L47.3417 36.7119L50.1017 38.1916L47.0197 38.7436L46.4677 41.8256L44.988 39.0656L41.883 39.4911L44.0527 37.2333L42.688 34.4119ZM60.5705 45.6858L59.2059 48.5033L61.3755 50.7649L58.2744 50.3356L56.7947 53.0994L56.2427 50.0136L53.1569 49.4616L55.9207 47.9819L55.4914 44.8808L57.753 47.0504L60.5705 45.6858ZM56.902 60.1719L57.9294 63.1313L61.0612 63.1964L58.5657 65.0863L59.4742 68.0878L56.902 66.2976L54.3299 68.0878L55.2345 65.0863L52.739 63.1964L55.8709 63.1313L56.902 60.1719ZM42.688 72.7453L45.5094 74.1099L47.7672 71.9403L47.3417 75.0453L50.1017 76.5249L47.0197 77.0769L46.4677 80.1589L44.988 77.3989L41.883 77.8244L44.0527 75.5666L42.688 72.7453ZM26.8334 41.9789L30.3945 52.2178L41.2275 52.4401L32.591 58.9874L35.7305 69.3604L26.8334 63.1696L17.9362 69.3604L21.0757 58.9874L12.4392 52.4401L23.2722 52.2178L26.8334 41.9789Z" fill="#FFDE02"/>
</svg>
