<svg width="138" height="138" viewBox="0 0 138 138" fill="none" xmlns="http://www.w3.org/2000/svg">
<g clip-path="url(#clip0_120_11318)">
<path d="M138 103.5C138 107.566 136.385 111.467 133.509 114.342C130.633 117.218 126.733 118.833 122.667 118.833H92V19.1665H122.667C126.733 19.1665 130.633 20.782 133.509 23.6575C136.385 26.5331 138 30.4332 138 34.4998V103.5Z" fill="#ED2939"/>
<path d="M15.3333 19.1665C11.2667 19.1665 7.36659 20.782 4.49103 23.6575C1.61547 26.5331 0 30.4332 0 34.4998L0 103.5C0 107.566 1.61547 111.467 4.49103 114.342C7.36659 117.218 11.2667 118.833 15.3333 118.833H46V19.1665H15.3333Z" fill="#002495"/>
<path d="M46 19.1665H92V118.833H46V19.1665Z" fill="#EEEEEE"/>
</g>
<defs>
<clipPath id="clip0_120_11318">
<rect width="138" height="138" fill="white"/>
</clipPath>
</defs>
</svg>
