<svg width="138" height="138" viewBox="0 0 138 138" fill="none" xmlns="http://www.w3.org/2000/svg">
<path d="M138 103.5C138 107.566 136.385 111.467 133.509 114.342C130.633 117.218 126.733 118.833 122.667 118.833H15.3333C11.2667 118.833 7.36659 117.218 4.49103 114.342C1.61547 111.467 0 107.566 0 103.5V34.4998C0 30.4332 1.61547 26.5331 4.49103 23.6575C7.36659 20.782 11.2667 19.1665 15.3333 19.1665H122.667C126.733 19.1665 130.633 20.782 133.509 23.6575C136.385 26.5331 138 30.4332 138 34.4998V103.5Z" fill="#EEEEEE"/>
<path d="M69 95.8332C83.8196 95.8332 95.8333 83.8195 95.8333 68.9998C95.8333 54.1802 83.8196 42.1665 69 42.1665C54.1803 42.1665 42.1666 54.1802 42.1666 68.9998C42.1666 83.8195 54.1803 95.8332 69 95.8332Z" fill="#ED1B2F"/>
</svg>
