<svg width="138" height="138" viewBox="0 0 138 138" fill="none" xmlns="http://www.w3.org/2000/svg">
<g clip-path="url(#clip0_120_11303)">
<path d="M0 34.726V49.8332H21.574L0 34.726ZM17.8787 118.833H49.8333V96.458L17.8787 118.833ZM88.1667 96.4618V118.833H120.117L88.1667 96.4618ZM0 88.1665V103.274L21.5817 88.1665H0ZM120.125 19.1665H88.1667V41.5417L120.125 19.1665ZM138 103.278V88.1665H116.414L138 103.278ZM138 49.8332V34.726L116.422 49.8332H138ZM49.8333 19.1665H17.8787L49.8333 41.5417V19.1665Z" fill="#2A5F9E"/>
<path d="M96.3702 88.1666L133.6 114.237C135.418 112.364 136.724 110.055 137.395 107.533L109.737 88.1666H96.3702ZM49.8336 88.1666H41.6264L4.40088 114.233C6.39805 116.265 8.95872 117.718 11.8299 118.392L49.8336 91.7814V88.1666ZM88.1669 49.8333H96.3741L133.6 23.7666C131.568 21.7053 128.993 20.263 126.174 19.6074L88.1669 46.2184V49.8333ZM41.6264 49.8333L4.40088 23.7666C2.5837 25.641 1.27601 27.9489 0.602051 30.4711L28.2596 49.8333H41.6264Z" fill="#ED4C5C"/>
<path d="M138 80.4999H80.5V118.833H88.1667V96.4619L120.117 118.833H122.667C124.703 118.834 126.719 118.427 128.597 117.638C130.474 116.849 132.175 115.692 133.599 114.237L96.37 88.1665H109.737L137.394 107.533C137.751 106.241 138 104.903 138 103.5V103.278L116.414 88.1665H138V80.4999ZM0 80.4999V88.1665H21.5817L0 103.274V103.5C0 107.682 1.68283 111.466 4.40067 114.233L41.6262 88.1665H49.8333V91.7814L11.8297 118.389C12.9567 118.657 14.122 118.833 15.3333 118.833H17.8787L49.8333 96.458V118.833H57.5V80.4999H0ZM138 34.4998C138.002 30.4824 136.421 26.626 133.599 23.7665L96.3738 49.8332H88.1667V46.2183L126.174 19.6073C125.026 19.3257 123.849 19.1778 122.667 19.1665H120.125L88.1667 41.5417V19.1665H80.5V57.4998H138V49.8332H116.422L138 34.726V34.4998ZM49.8333 19.1665V41.5417L17.8787 19.1665H15.3333C13.2964 19.1656 11.2798 19.5721 9.40231 20.3621C7.52479 21.1521 5.82423 22.3096 4.40067 23.7665L41.6262 49.8332H28.2593L0.601833 30.471C0.221491 31.7809 0.0190647 33.136 0 34.4998L0 34.726L21.574 49.8332H0V57.4998H57.5V19.1665H49.8333Z" fill="#EEEEEE"/>
<path d="M80.5 57.4998V19.1665H57.5V57.4998H0V80.4998H57.5V118.833H80.5V80.4998H138V57.4998H80.5Z" fill="#ED4C5C"/>
</g>
<defs>
<clipPath id="clip0_120_11303">
<rect width="138" height="138" fill="white"/>
</clipPath>
</defs>
</svg>
