<svg width="138" height="138" viewBox="0 0 138 138" fill="none" xmlns="http://www.w3.org/2000/svg">
<g clip-path="url(#clip0_120_11336)">
<path d="M122.667 19.1665H15.3333C11.2667 19.1665 7.36659 20.782 4.49103 23.6575C1.61547 26.5331 0 30.4332 0 34.4998L0 103.5C0 107.566 1.61547 111.467 4.49103 114.342C7.36659 117.218 11.2667 118.833 15.3333 118.833H122.667C126.733 118.833 130.633 117.218 133.509 114.342C136.385 111.467 138 107.566 138 103.5V34.4998C138 30.4332 136.385 26.5331 133.509 23.6575C130.633 20.782 126.733 19.1665 122.667 19.1665Z" fill="#DA251D"/>
<path d="M75.7194 61.4753L68.9996 40.7944L62.2798 61.4753H40.5371L58.1283 74.2518L51.4084 94.9326L68.9996 82.1523L86.5908 94.9326L79.8709 74.2518L97.4621 61.4753H75.7194Z" fill="#FFFF00"/>
</g>
<defs>
<clipPath id="clip0_120_11336">
<rect width="138" height="138" fill="white"/>
</clipPath>
</defs>
</svg>
