<svg width="107" height="46" viewBox="0 0 107 46" fill="none" xmlns="http://www.w3.org/2000/svg">
<path d="M63.3213 17.46C63.3213 17.1377 63.4473 16.8594 63.6992 16.625C63.957 16.3965 64.2676 16.2822 64.6309 16.2822C64.9883 16.2822 65.2959 16.3965 65.5537 16.625C65.8115 16.8594 65.9404 17.1377 65.9404 17.46V27.8223C65.9404 28.1445 65.8115 28.4229 65.5537 28.6572C65.2959 28.8857 64.9883 29 64.6309 29C64.2676 29 63.957 28.8857 63.6992 28.6572C63.4473 28.4229 63.3213 28.1445 63.3213 27.8223V23.8232H60.8164C60.4531 23.8232 60.1426 23.709 59.8848 23.4805C59.627 23.2461 59.498 22.9678 59.498 22.6455C59.498 22.3174 59.627 22.0361 59.8848 21.8018C60.1426 21.5732 60.4531 21.459 60.8164 21.459H63.3213V17.46ZM56.7031 17.46C56.7031 17.1377 56.832 16.8594 57.0898 16.625C57.3418 16.3965 57.6494 16.2822 58.0127 16.2822C58.376 16.2822 58.6836 16.3965 58.9355 16.625C59.1934 16.8594 59.3223 17.1377 59.3223 17.46V27.8223C59.3223 28.1445 59.1934 28.4229 58.9355 28.6572C58.6836 28.8857 58.376 29 58.0127 29C57.6494 29 57.3418 28.8857 57.0898 28.6572C56.832 28.4229 56.7031 28.1445 56.7031 27.8223V17.46ZM77.3504 17.46C77.3504 17.1318 77.4793 16.8535 77.7371 16.625C77.9891 16.3965 78.2967 16.2822 78.66 16.2822C79.0232 16.2822 79.3338 16.3965 79.5916 16.625C79.8494 16.8535 79.9783 17.1318 79.9783 17.46V24.1924C79.9783 25.4639 79.5096 26.5684 78.5721 27.5059C77.5701 28.502 76.3895 29 75.0301 29C73.6648 29 72.4812 28.5049 71.4793 27.5146C70.5301 26.5713 70.0555 25.4639 70.0555 24.1924V17.46C70.0555 17.1318 70.1844 16.8535 70.4422 16.625C70.7 16.3965 71.0105 16.2822 71.3738 16.2822C71.7371 16.2822 72.0447 16.3965 72.2967 16.625C72.5545 16.8535 72.6834 17.1318 72.6834 17.46V24.1924C72.6834 24.8604 72.9295 25.4375 73.4217 25.9238C73.9021 26.3984 74.4383 26.6357 75.0301 26.6357C75.6102 26.6357 76.1375 26.3984 76.6121 25.9238C77.1043 25.4375 77.3504 24.8604 77.3504 24.1924V17.46ZM89.7623 18.6465V27.8223C89.7623 28.1445 89.6334 28.4229 89.3756 28.6572C89.1178 28.8857 88.8102 29 88.4527 29C88.0895 29 87.7789 28.8857 87.5211 28.6572C87.2691 28.4229 87.1432 28.1445 87.1432 27.8223V18.6465H84.7965C84.4332 18.6465 84.1227 18.5322 83.8648 18.3037C83.607 18.0693 83.4781 17.7881 83.4781 17.46C83.4781 17.1377 83.607 16.8594 83.8648 16.625C84.1227 16.3965 84.4332 16.2822 84.7965 16.2822H92.109C92.4723 16.2822 92.7799 16.3965 93.0318 16.625C93.2896 16.8594 93.4186 17.1377 93.4186 17.46C93.4186 17.7881 93.2896 18.0693 93.0318 18.3037C92.7799 18.5322 92.4723 18.6465 92.109 18.6465H89.7623ZM100.9 25.9502C100.537 25.9502 100.229 25.8359 99.977 25.6074C99.7191 25.3789 99.5902 25.1006 99.5902 24.7725C99.5902 24.4443 99.7191 24.166 99.977 23.9375C100.229 23.7031 100.537 23.5859 100.9 23.5859H102.737L101.48 18.8926C101.451 18.7988 101.407 18.7285 101.348 18.6816C101.319 18.6582 101.287 18.6465 101.251 18.6465C101.216 18.6465 101.184 18.6582 101.155 18.6816C101.096 18.7285 101.052 18.7988 101.023 18.8926L98.5619 28.1035C98.474 28.4199 98.2748 28.6631 97.9643 28.833C97.6537 29.0029 97.3227 29.0469 96.9711 28.9648C96.6195 28.8887 96.35 28.7129 96.1625 28.4375C95.975 28.1562 95.9252 27.8574 96.0131 27.541L98.474 18.3389C98.6322 17.7471 98.9574 17.2637 99.4496 16.8887C99.977 16.4844 100.578 16.2822 101.251 16.2822C101.925 16.2822 102.526 16.4844 103.053 16.8887C103.545 17.2637 103.871 17.7471 104.029 18.3389L106.49 27.541C106.578 27.8574 106.528 28.1562 106.34 28.4375C106.147 28.7129 105.874 28.8887 105.523 28.9648C105.171 29.0469 104.843 29.0029 104.538 28.833C104.228 28.6631 104.029 28.4199 103.941 28.1035L103.37 25.9502H100.9Z" fill="white"/>
<path d="M2 23C2 27.6046 3.51337 32.0815 6.30716 35.7416C9.10095 39.4018 13.0203 42.0422 17.4618 43.2566C21.9034 44.4709 26.6209 44.1918 30.8883 42.4621C35.1556 40.7325 38.7362 37.6483 41.0789 33.6842C43.4216 29.7202 44.3965 25.096 43.8535 20.5236C43.3105 15.9512 41.2797 11.6839 38.0738 8.37878C34.8679 5.07363 30.6645 2.91377 26.1108 2.23168C21.557 1.5496 16.9053 2.38309 12.8717 4.60387" stroke="url(#paint0_linear_139_401)" stroke-width="4" stroke-linecap="round" stroke-linejoin="round"/>
<path fill-rule="evenodd" clip-rule="evenodd" d="M14.0826 14.0351C14.6893 13.8207 15.124 13.2421 15.124 12.562C15.124 11.6993 14.4246 11 13.562 11C12.6993 11 12 11.6993 12 12.562C12 13.2421 12.4346 13.8207 13.0413 14.0351V29C13.0413 30.6569 14.3845 32 16.0413 32H16.8099C18.4668 32 19.8099 30.6569 19.8099 29V26.8843C19.8099 25.7797 20.7053 24.8843 21.8099 24.8843H23.0165C24.1211 24.8843 25.0165 25.7797 25.0165 26.8843V30.0041C25.0165 31.1064 25.9101 32 27.0124 32C28.1147 32 29.0083 31.1064 29.0083 30.0041L29.0083 19.2417C29.6149 19.0273 30.0496 18.4487 30.0496 17.7686C30.0496 16.9059 29.3503 16.2066 28.4876 16.2066C27.625 16.2066 26.9256 16.9059 26.9256 17.7686C26.9256 18.4487 27.3603 19.0273 27.9669 19.2417V30.0041C27.9669 30.5313 27.5396 30.9587 27.0124 30.9587C26.4852 30.9587 26.0579 30.5313 26.0579 30.0041V26.843C26.0579 25.1861 24.7147 23.843 23.0579 23.843H21.7686C20.1117 23.843 18.7686 25.1861 18.7686 26.843V28.9587C18.7686 30.0633 17.8732 30.9587 16.7686 30.9587H16.0826C14.9781 30.9587 14.0826 30.0633 14.0826 28.9587V14.0351ZM14.2562 12.562C14.2562 12.9454 13.9454 13.2562 13.562 13.2562C13.1786 13.2562 12.8678 12.9454 12.8678 12.562C12.8678 12.1786 13.1786 11.8678 13.562 11.8678C13.9454 11.8678 14.2562 12.1786 14.2562 12.562ZM28.4876 18.4629C28.871 18.4629 29.1818 18.152 29.1818 17.7686C29.1818 17.3852 28.871 17.0744 28.4876 17.0744C28.1042 17.0744 27.7934 17.3852 27.7934 17.7686C27.7934 18.152 28.1042 18.4629 28.4876 18.4629Z" fill="white"/>
<path fill-rule="evenodd" clip-rule="evenodd" d="M25.1901 18.8926C25.1901 19.9971 24.2946 20.8926 23.1901 20.8926H21.8099C20.7053 20.8926 19.8099 19.9971 19.8099 18.8926L19.8099 15.8595C19.8099 14.8051 18.9552 13.9504 17.9008 13.9504C16.8465 13.9504 15.9917 14.8051 15.9917 15.8595V26.7087C15.3851 26.9231 14.9504 27.5017 14.9504 28.1818C14.9504 29.0445 15.6497 29.7438 16.5124 29.7438C17.375 29.7438 18.0744 29.0445 18.0744 28.1818C18.0744 27.5017 17.6397 26.9232 17.0331 26.7087V15.8595C17.0331 15.3802 17.4216 14.9917 17.9008 14.9917C18.3801 14.9917 18.7686 15.3802 18.7686 15.8595V18.9339C18.7686 20.5907 20.1117 21.9339 21.7686 21.9339L23.2314 21.9339C24.8883 21.9339 26.2314 20.5907 26.2314 18.9339L26.2314 16.9917C26.2314 15.8872 27.1268 14.9917 28.2314 14.9917H28.9174C30.0219 14.9917 30.9174 15.8872 30.9174 16.9917V31.9153C30.3107 32.1298 29.876 32.7083 29.876 33.3884C29.876 34.2511 30.5754 34.9504 31.438 34.9504C32.3007 34.9504 33 34.2511 33 33.3884C33 32.7083 32.5653 32.1298 31.9587 31.9153V16.9504C31.9587 15.2936 30.6155 13.9504 28.9587 13.9504H28.1901C26.5332 13.9504 25.1901 15.2936 25.1901 16.9504V18.8926ZM32.1322 33.3884C32.1322 33.7718 31.8214 34.0826 31.438 34.0826C31.0546 34.0826 30.7438 33.7718 30.7438 33.3884C30.7438 33.005 31.0546 32.6942 31.438 32.6942C31.8214 32.6942 32.1322 33.005 32.1322 33.3884ZM16.5124 28.876C16.8958 28.876 17.2066 28.5652 17.2066 28.1818C17.2066 27.7984 16.8958 27.4876 16.5124 27.4876C16.129 27.4876 15.8182 27.7984 15.8182 28.1818C15.8182 28.5652 16.129 28.876 16.5124 28.876Z" fill="white"/>
<defs>
<linearGradient id="paint0_linear_139_401" x1="2.87805" y1="2" x2="42.6941" y2="44.3068" gradientUnits="userSpaceOnUse">
<stop stop-color="#1470D6"/>
<stop offset="1" stop-color="#CF1FBD"/>
</linearGradient>
</defs>
</svg>
